<?xml version="1.0" encoding="UTF-8" standalone="no"?>
<!-- Created with Inkscape (http://www.inkscape.org/) -->

<svg
   width="70.089111mm"
   height="71.16787mm"
   viewBox="0 0 70.089112 71.167869"
   version="1.1"
   id="svg8"
   inkscape:version="1.3.2 (091e20e, 2023-11-25, custom)"
   sodipodi:docname="Logo outline.svg"
   inkscape:export-filename="C:\Users\kataze\Pawprint Prototyping Logo\Pawprint Prototyping Fake Dog_Logo_Square.png"
   inkscape:export-xdpi="600"
   inkscape:export-ydpi="600"
   xmlns:inkscape="http://www.inkscape.org/namespaces/inkscape"
   xmlns:sodipodi="http://sodipodi.sourceforge.net/DTD/sodipodi-0.dtd"
   xmlns:xlink="http://www.w3.org/1999/xlink"
   xmlns="http://www.w3.org/2000/svg"
   xmlns:svg="http://www.w3.org/2000/svg"
   xmlns:rdf="http://www.w3.org/1999/02/22-rdf-syntax-ns#"
   xmlns:cc="http://creativecommons.org/ns#"
   xmlns:dc="http://purl.org/dc/elements/1.1/">
  <defs
     id="defs2">
    <inkscape:path-effect
       effect="bspline"
       id="path-effect3"
       is_visible="true"
       lpeversion="1.3"
       weight="33.333333"
       steps="2"
       helper_size="0"
       apply_no_weight="true"
       apply_with_weight="true"
       only_selected="false"
       uniform="false" />
  </defs>
  <sodipodi:namedview
     id="base"
     pagecolor="#ffffff"
     bordercolor="#666666"
     borderopacity="1.0"
     inkscape:pageopacity="0.0"
     inkscape:pageshadow="2"
     inkscape:zoom="2.8284271"
     inkscape:cx="190.74205"
     inkscape:cy="112.96031"
     inkscape:document-units="mm"
     inkscape:current-layer="layer1"
     showgrid="false"
     inkscape:window-width="2560"
     inkscape:window-height="1369"
     inkscape:window-x="1912"
     inkscape:window-y="-8"
     inkscape:window-maximized="1"
     fit-margin-top="0"
     fit-margin-left="0"
     fit-margin-right="0"
     fit-margin-bottom="0"
     inkscape:showpageshadow="2"
     inkscape:pagecheckerboard="0"
     inkscape:deskcolor="#d1d1d1" />
  <metadata
     id="metadata5">
    <rdf:RDF>
      <cc:Work
         rdf:about="">
        <dc:format>image/svg+xml</dc:format>
        <dc:type
           rdf:resource="http://purl.org/dc/dcmitype/StillImage" />
      </cc:Work>
    </rdf:RDF>
  </metadata>
  <g
     inkscape:label="Layer 1"
     inkscape:groupmode="layer"
     id="layer1"
     transform="translate(-100.48118,302.10499)">
    <g
       id="g4588"
       transform="translate(-388.50363,24.082576)">
      <path
         style="fill:#000000;stroke-width:0.174704"
         d="m 517.68118,-263.84001 c -1.31195,-0.0652 -2.56681,-0.60623 -3.65192,-1.57447 -0.81761,-0.72954 -0.95171,-0.93485 -1.40764,-2.15503 -0.45699,-1.22287 -0.49334,-1.52273 -0.39026,-3.21494 0.0625,-1.02644 0.2381,-2.25788 0.39018,-2.73653 0.28636,-0.90128 2.67171,-5.31021 3.57994,-6.61694 0.75628,-1.08813 1.4833,-2.83873 2.18156,-5.25306 0.64572,-2.23267 1.22084,-3.27583 2.26542,-4.10903 1.36307,-1.08725 3.64408,-0.82318 6.2459,0.72307 1.74256,1.0356 3.53802,1.67035 6.72694,2.37821 4.51546,1.00231 7.00669,2.20508 8.87359,4.28417 1.4407,1.60446 1.90812,3.78392 1.2253,5.71326 -0.60799,1.71794 -1.43811,2.59196 -3.14575,3.31211 -1.12884,0.47659 -1.62762,0.58002 -3.19235,0.66512 -3.26906,0.17778 -4.69108,0.39346 -6.6729,1.01206 -1.76209,0.55002 -2.10543,0.71335 -3.77835,1.79742 -1.20419,0.78033 -2.40621,1.73548 -3.47815,2.76383 -1.4702,1.41041 -1.80015,1.64763 -3.22032,2.31517 -1.42186,0.66834 -1.68055,0.73883 -2.55119,0.69558 z m -9.5582,-11.1287 c -2.69027,0.33761 -5.5489,-1.84724 -7.46559,-5.70593 -1.56781,-3.15629 -1.76728,-7.46129 -0.47435,-10.238 0.60713,-1.30387 1.03955,-1.6579 2.18795,-1.79125 1.24358,-0.1444 2.27139,0.17561 3.79354,1.18112 1.67344,1.10545 2.3563,1.98515 3.94674,5.08451 2.52408,4.91875 2.89586,6.41599 2.06634,8.32148 -0.74654,1.71487 -2.31057,2.92921 -4.05463,3.14807 z m 30.65983,-12.89762 c -0.97328,0.2296 -2.49097,-0.0314 -3.48557,-0.59938 -1.34332,-0.76716 -1.981,-1.69621 -2.93855,-4.28122 -1.41221,-3.81242 -2.02108,-5.83907 -2.08689,-6.94632 -0.17959,-3.02154 1.43219,-6.02023 3.38021,-6.2888 1.54115,-0.21247 4.7096,1.86925 6.6462,4.36668 1.59861,2.06157 2.74383,5.60938 2.66685,8.26174 -0.0363,1.25041 -0.78706,3.34633 -1.4235,3.97399 -0.64928,0.64033 -1.84982,1.29888 -2.75875,1.51331 z m -14.36939,-6.33825 c -0.47296,0.0606 -1.08515,0.0269 -1.36043,-0.0747 -0.92787,-0.34278 -2.25332,-1.44789 -3.20076,-2.66866 -3.06397,-3.94788 -5.46696,-14.47334 -4.00329,-17.53495 0.11683,-0.24437 0.52402,-0.61964 0.90488,-0.83395 1.4958,-0.84171 4.24022,-0.12878 6.19152,1.6084 1.48706,1.32388 3.07573,3.1514 3.91397,4.50242 0.87236,1.40601 2.21801,4.96462 2.46754,6.52552 0.705,4.40995 -1.39043,8.0247 -4.91343,8.47596 z m -10.94393,4.49691 c -1.20381,0.29299 -1.64968,0.25301 -3.12642,-0.28034 -2.54929,-0.92072 -4.60478,-3.21709 -6.15449,-6.87573 -1.17557,-2.77551 -1.59061,-5.36794 -1.39314,-8.70341 0.15089,-2.54878 1.35488,-4.64845 3.08851,-5.38612 0.70907,-0.30114 0.87339,-0.29759 1.62951,0.0403 1.45465,0.64997 3.72175,3.15045 5.92508,6.53505 0.66948,1.02842 1.33496,2.34681 2.16801,4.29505 1.05101,2.45797 1.22333,2.98856 1.37193,4.22331 0.31067,2.58156 -0.0187,4.12009 -1.04879,4.89884 -0.92313,0.69789 -1.60393,1.04464 -2.4602,1.25306 z m -14.72683,-4.31778 c -0.761,-1.79836 -0.99599,-4.28694 -0.53669,-5.68331 0.0934,-0.28392 0.17045,-0.57571 0.17124,-0.64842 0.004,-0.338 0.73261,-1.27497 0.89969,-1.15647 0.0985,0.0698 0.46756,1.05229 0.82028,2.18327 0.59933,1.9218 0.70073,2.13489 1.54959,3.25617 0.49958,0.6599 0.89185,1.24043 0.87172,1.29009 -0.0201,0.0497 -0.37704,0.13729 -0.79312,0.19479 -0.78174,0.10799 -2.13429,0.92627 -2.19647,1.3289 -0.0767,0.49654 -0.37529,0.20604 -0.78621,-0.76504 z m 34.69617,-13.71865 c -0.70076,-0.006 -2.19772,0.5923 -2.53934,1.01558 -0.13826,0.17129 -0.28518,0.29748 -0.32648,0.28043 -0.0413,-0.0171 -0.21166,-0.74153 -0.37858,-1.60991 -0.25747,-1.33952 -0.41559,-1.77593 -1.04288,-2.87848 -1.6269,-2.85947 -1.6423,-3.00643 -0.26725,-2.55041 1.67962,0.55703 3.34854,2.0713 4.53722,4.11681 0.80387,1.38328 0.80653,1.63316 0.0173,1.62599 z m -15.94687,-10.11492 c -0.78715,0.0258 -1.62939,0.34174 -2.2521,0.84495 -0.54768,0.44253 -0.54783,0.44231 -0.86998,-1.34624 -0.20187,-1.12081 -0.3611,-1.52738 -1.17801,-3.008 -1.19827,-2.17184 -1.28329,-2.38005 -1.01775,-2.49241 0.3105,-0.13139 2.45292,0.84221 3.15019,1.43158 1.2071,1.02028 3.39785,4.37126 2.94842,4.5099 -0.0691,0.0216 -0.42055,0.0485 -0.78073,0.0602 z m -14.82004,5.99256 c -0.12898,-0.15085 -0.38429,-0.83245 -0.56731,-1.51468 -0.56696,-2.11389 -0.53785,-3.80165 0.0953,-5.5271 0.22021,-0.60004 0.49905,-1.13274 0.61968,-1.18379 0.26595,-0.11254 0.67967,0.80084 1.04996,2.31805 0.23721,0.97191 1.06111,2.62655 1.9539,3.92413 l 0.31396,0.4563 -1.25093,0.43716 c -0.97836,0.3419 -1.31397,0.53126 -1.54022,0.86882 -0.36509,0.54475 -0.39043,0.55305 -0.67441,0.22109 z"
         id="path4572"
         inkscape:connector-curvature="0"
         inkscape:label="path4572" />
      <path
         inkscape:connector-curvature="0"
         id="path4576"
         d="m 546.90125,-302.72198 a 31.207387,25.749593 0 0 1 6.18432,15.34015 31.207387,25.749593 0 0 1 -31.20733,25.74934 31.207387,25.749593 0 0 1 -31.20598,-25.71471 33.586427,28.788365 0 0 0 -0.12932,2.21795 33.586427,28.788365 0 0 0 33.58665,28.78842 33.586427,28.788365 0 0 0 33.58618,-28.78842 33.586427,28.788365 0 0 0 -7.05247,-17.59273 z"
         style="fill:#ff0000;fill-opacity:0.849246;stroke-width:0.285783" />
      <path
         style="fill:none;stroke:#000000;stroke-width:0.1;stroke-opacity:1"
         d="m 495.98054,-288.10276 c 3.68694,-2.94521 -2.2044,-10.14423 0.28386,-14.15377 0.80761,-1.30138 3.21772,-0.85301 4.07556,-2.12185 3.25023,-4.80747 -3.76475,-15.39208 1.70683,-17.32539 3.03938,-1.07393 3.61555,6.2978 6.78384,6.89202 1.28305,0.24064 2.91443,-0.47808 3.57187,-1.60586 1.48543,-2.54813 -3.24656,-7.135 -0.81916,-8.81046 1.55818,-1.0755 3.41332,0.44492 5.16183,1.90991 0.86799,0.72725 1.69457,1.76089 2.76901,1.67157 0.96343,-0.0801 1.53053,-0.98516 2.20135,-1.88825 0.69866,-0.94056 1.48943,-1.89847 2.5761,-2.22474 1.77922,-0.5342 4.14846,-0.52867 5.52677,0.71682 2.17718,1.96738 0.91643,5.84733 2.0081,8.5711 0.73174,1.82572 1.7902,3.52928 2.99441,5.08445 1.1661,1.50595 2.39819,3.07592 4.04094,4.03981 3.58275,2.10219 8.62648,0.95852 11.99027,3.39579 3.55297,2.57434 6.29335,6.65969 7.35319,10.91734 1.56011,6.26737 0.89242,13.5084 -2.027,19.26955 -3.65191,7.20664 -10.44243,13.28557 -17.93851,16.29902 -7.86061,3.15999 -17.2543,2.98868 -25.40679,0.68399 -6.75551,-1.90977 -13.26152,-6.01815 -17.64041,-11.50536 -3.69073,-4.62488 -5.90237,-10.7376 -6.15673,-16.64914 -0.0646,-1.50176 -0.0865,-3.56262 1.19497,-4.34823 1.66812,-1.02262 4.22096,2.40288 5.7497,1.18168 z"
         id="path1"
         sodipodi:nodetypes="aaaaaassasaaaaaaaaaaaaaa" />
      <circle
         style="fill:none;stroke:#000000;stroke-width:0.1;stroke-opacity:1"
         id="path2"
         cx="526.25177"
         cy="-321.01337"
         r="2.9987884" />
    </g>
  </g>
  <g
     inkscape:groupmode="layer"
     id="layer2"
     inkscape:label="Text">
    <path
       style="display:none;fill:none;stroke:#000000;stroke-width:0.1;stroke-opacity:1"
       d="m 2.0356451,43.822914 c 0.2450315,1.432492 0.4900627,2.864982 1.2628672,4.862956 0.7728045,1.997975 2.0733288,4.561327 4.4954053,7.251988 2.4220764,2.690662 5.9654634,5.508409 9.4666554,7.383879 3.501192,1.87547 6.959766,2.808436 9.994445,3.416314 3.034679,0.607878 5.645102,0.890595 8.345213,0.749228 2.700111,-0.141366 5.489589,-0.7068 8.12844,-1.366512 2.63885,-0.659713 5.126763,-1.413626 7.905364,-2.85833 2.778601,-1.444704 5.847562,-3.580028 8.071737,-5.625137 2.224174,-2.04511 3.603298,-3.999763 4.905492,-6.343696 1.302194,-2.343934 2.527303,-5.076868 3.031512,-7.894784 0.504209,-2.817916 0.287459,-5.720481 -0.673837,-8.576095 -0.961297,-2.855613 -2.667025,-5.66394 -3.896918,-7.445164 -1.229892,-1.781224 -1.98382,-2.535152 -2.737763,-3.289095"
       id="path3"
       inkscape:path-effect="#path-effect3"
       inkscape:original-d="m 2.0356451,43.822914 c 0.2450315,1.432492 0.4900627,2.864982 0.735094,4.297473 1.3005771,2.563458 2.6011021,5.12681 3.901653,7.690215 3.5436019,2.817918 7.0869889,5.635664 10.6305899,8.453582 3.458783,0.933022 6.917357,1.865989 10.376137,2.799011 2.610578,0.282734 5.221001,0.565451 7.83158,0.848185 2.789643,-0.565467 5.579121,-1.130901 8.368763,-1.696368 2.488059,-0.753958 4.975972,-1.507872 7.464031,-2.261829 3.069143,-2.13545 6.138104,-4.270774 9.207247,-6.406224 1.379206,-1.954769 2.75833,-3.909422 4.137536,-5.864191 1.225182,-2.733098 2.450291,-5.466032 3.675473,-8.199128 -0.216764,-2.902736 -0.433515,-5.805301 -0.650278,-8.708037 -1.705829,-2.808491 -3.411557,-5.616818 -5.117385,-8.425308 -0.753957,-0.753958 -1.507885,-1.507886 -2.261828,-2.261829"
       sodipodi:nodetypes="cccccccccccccc" />
    <text
       xml:space="preserve"
       style="font-style:normal;font-variant:normal;font-weight:800;font-stretch:normal;font-size:3.88056px;font-family:'Open Sans';-inkscape-font-specification:'Open Sans Ultra-Bold';letter-spacing:0.370417px;word-spacing:2.3839px;display:none;fill:#000000;fill-opacity:1;stroke:#000000;stroke-width:0.1"
       id="text1"
       transform="translate(-0.11309139,1.2440053)"><textPath
         xlink:href="#path3"
         id="textPath1"><tspan
           id="tspan1"
           style="font-size:3.88056px;letter-spacing:0.370417px;fill:#000000;fill-opacity:1;stroke-width:0.1"
           dx="29.177418">PAWPRINT PROTOTYPING</tspan></textPath></text>
    <path
       d="m 22.53903,62.618072 q 0.49678,0.175161 0.667144,0.478335 0.172151,0.303805 0.03164,0.702301 -0.06301,0.178698 -0.172797,0.324828 -0.108002,0.14676 -0.269521,0.234467 -0.159732,0.08834 -0.377402,0.09597 -0.215883,0.0083 -0.494651,-0.09003 l -0.198355,-0.06994 -0.305586,0.866684 -0.705857,-0.24888 0.92117,-2.612561 z m -0.217077,0.564375 -0.182271,-0.06427 -0.211706,0.600425 0.139385,0.04915 q 0.09114,0.03213 0.180474,0.02948 0.08997,-0.0044 0.161002,-0.05775 0.07345,-0.05447 0.115037,-0.172408 0.04348,-0.123301 -0.0027,-0.225974 -0.04554,-0.104461 -0.199223,-0.158647 z m 2.709545,3.065252 3.41e-4,-0.536802 -0.870335,-0.229293 -0.267855,0.466324 -0.795211,-0.209502 1.582637,-2.459533 0.965613,0.254395 0.176356,2.922947 z m 0.0065,-1.170045 4.2e-4,-0.47016 q 5.03e-4,-0.07629 4.46e-4,-0.217382 4.25e-4,-0.142929 0.0028,-0.293186 0.0047,-0.151607 0.01049,-0.248049 -0.04063,0.08727 -0.107497,0.214653 -0.06455,0.126033 -0.132293,0.249268 -0.0659,0.123718 -0.112895,0.205393 l -0.231287,0.409336 z m 5.548294,-0.541714 -1.164851,2.604315 -0.870711,-0.15768 -0.04595,-1.234943 q -0.0014,-0.03491 -0.0036,-0.118123 -3.97e-4,-0.08287 -0.0023,-0.189134 -7.4e-5,-0.105923 0.001,-0.207779 0.0033,-0.103383 0.0084,-0.173719 -0.01995,0.06764 -0.05496,0.165278 -0.03468,0.09578 -0.07376,0.19461 -0.03721,0.09917 -0.07038,0.175966 -0.0313,0.07713 -0.04483,0.109344 l -0.477972,1.140065 -0.870712,-0.157681 -0.181302,-2.848095 0.710366,0.128643 0.04896,1.420348 q 0.0021,0.05237 0.0038,0.148968 0.004,0.09507 0.0046,0.208791 0.0028,0.112192 0.0032,0.21625 4.12e-4,0.104059 -0.0043,0.17253 0.03585,-0.112896 0.08676,-0.255801 0.05278,-0.142566 0.109958,-0.288187 0.05938,-0.147147 0.110985,-0.272596 0.0516,-0.125449 0.08697,-0.203772 l 0.427236,-0.9875 0.682399,0.123579 0.04634,1.073262 q 0.0041,0.08355 0.0081,0.220992 0.0062,0.135916 0.0083,0.294205 0.004,0.158627 0.0031,0.312513 -5.72e-4,0.15202 -0.0078,0.266253 0.02807,-0.0912 0.07983,-0.228172 0.0521,-0.138837 0.102514,-0.268353 0.05262,-0.131042 0.08003,-0.197327 l 0.550215,-1.315693 z m 1.429387,0.118065 q 0.524759,0.04582 0.765307,0.296969 0.242436,0.251312 0.205681,0.672252 -0.01648,0.188762 -0.08639,0.357644 -0.06802,0.169046 -0.202579,0.294241 -0.132675,0.12536 -0.341573,0.187005 -0.207011,0.06181 -0.50148,0.0361 l -0.209526,-0.0183 -0.07994,0.915497 -0.74561,-0.0651 0.240969,-2.759704 z m -0.06957,0.600669 -0.192537,-0.01681 -0.05538,0.634241 0.147235,0.01286 q 0.09627,0.0084 0.182126,-0.01643 0.08602,-0.02673 0.141529,-0.09606 0.05756,-0.07106 0.06844,-0.195638 0.01137,-0.130246 -0.05893,-0.218172 -0.07014,-0.08981 -0.232476,-0.103987 z m 2.551417,-0.503057 q 0.377017,-0.0061 0.628593,0.08274 0.251545,0.08691 0.379513,0.266779 0.129863,0.179835 0.134224,0.450757 0.0027,0.168616 -0.0519,0.307833 -0.05461,0.139218 -0.158938,0.25081 -0.102463,0.109667 -0.247033,0.193481 l 0.826506,1.193844 -0.848762,0.01366 -0.603536,-0.998453 -0.189456,0.003 0.01622,1.007906 -0.748351,0.01204 -0.04458,-2.769846 z m -0.0023,0.566656 -0.147775,0.0024 0.01018,0.632783 0.140198,-0.0023 q 0.172404,-0.0028 0.281069,-0.08033 0.108665,-0.07755 0.105524,-0.272691 -0.0022,-0.134513 -0.09432,-0.208832 -0.09216,-0.07432 -0.294877,-0.07106 z m 2.132664,2.097936 -0.280099,-2.756007 0.748383,-0.07606 0.280099,2.756007 z m 4.311026,-0.636035 -0.966908,0.16867 -1.33216,-1.748735 -0.0168,0.0029 q 0.02464,0.0861 0.05359,0.207997 0.02896,0.121895 0.05703,0.249714 0.02774,0.125953 0.04565,0.228617 l 0.214582,1.230101 -0.653316,0.113966 -0.476053,-2.728994 0.963174,-0.168018 1.323868,1.723254 0.0112,-0.002 q -0.02123,-0.08862 -0.04734,-0.205241 -0.02644,-0.118487 -0.0532,-0.23884 -0.0249,-0.120679 -0.04118,-0.214009 L 39.805861,64.165798 40.46291,64.05118 Z m 2.135031,-0.49736 -0.728577,0.171314 -0.493992,-2.100886 -0.658487,0.154833 -0.140087,-0.595774 2.043707,-0.480546 0.140087,0.595773 -0.656642,0.1544 z m 4.861746,-4.367322 q 0.489241,-0.195229 0.817076,-0.0792 0.329595,0.115329 0.486199,0.507778 0.07023,0.175986 0.0838,0.358259 0.01533,0.18157 -0.0485,0.353928 -0.06207,0.171654 -0.220878,0.320711 -0.15705,0.148354 -0.431588,0.257907 l -0.195345,0.07795 0.340598,0.853533 -0.695145,0.277394 -1.02671,-2.572916 z m 0.208183,0.567716 -0.179505,0.07163 0.23596,0.591313 0.137269,-0.05478 q 0.08975,-0.03582 0.155249,-0.09663 0.06479,-0.06258 0.08316,-0.149471 0.01943,-0.08936 -0.02692,-0.205506 -0.04846,-0.12143 -0.150808,-0.168312 -0.103054,-0.04864 -0.254402,0.01175 z m 2.068753,-1.604424 q 0.335037,-0.173001 0.599871,-0.205258 0.263964,-0.03394 0.458539,0.07031 0.196259,0.103379 0.320576,0.344135 0.07737,0.14984 0.09033,0.298824 0.01295,0.148983 -0.03091,0.295316 -0.04304,0.143779 -0.135301,0.283114 l 1.27099,0.702113 -0.754254,0.389467 -0.98441,-0.626178 -0.168361,0.08694 0.462493,0.895676 -0.665023,0.343393 -1.270987,-2.461428 z m 0.249834,0.508613 -0.131321,0.06781 0.290362,0.562323 0.124586,-0.06433 q 0.153208,-0.07911 0.216083,-0.196877 0.06287,-0.117767 -0.02667,-0.291178 -0.06172,-0.119535 -0.177311,-0.145151 -0.115587,-0.02562 -0.295732,0.06741 z m 4.303066,-1.604886 q 0.171575,0.270377 0.247098,0.534384 0.07611,0.261391 0.04004,0.508688 -0.03607,0.247298 -0.197225,0.470748 -0.162174,0.22185 -0.462949,0.412714 -0.294376,0.186804 -0.564166,0.239068 -0.269205,0.04965 -0.508902,-0.02041 -0.240712,-0.07166 -0.449025,-0.251402 -0.208312,-0.179742 -0.381918,-0.453319 -0.231474,-0.36477 -0.282044,-0.709691 -0.04998,-0.347536 0.109392,-0.655131 0.158362,-0.309195 0.551929,-0.558944 0.399967,-0.253809 0.743964,-0.263399 0.345596,-0.0106 0.633962,0.185661 0.288365,0.196265 0.51984,0.561035 z M 53.15611,60.80384 q 0.134011,0.211183 0.278455,0.332713 0.144443,0.12153 0.300212,0.137133 0.155768,0.0156 0.323755,-0.091 0.174385,-0.110661 0.224999,-0.257229 0.05221,-0.147584 5.63e-4,-0.327998 -0.05005,-0.18143 -0.184062,-0.392612 -0.201018,-0.316774 -0.423361,-0.433753 -0.222344,-0.116979 -0.479922,0.04647 -0.171186,0.108631 -0.223985,0.25883 -0.0512,0.149183 -0.0017,0.333228 0.05107,0.183029 0.185078,0.394211 z m 4.04312,-1.085817 -0.600956,0.446122 -1.286415,-1.732884 -0.543143,0.403204 -0.364804,-0.491415 1.685721,-1.251402 0.364804,0.491415 -0.541621,0.402075 z m 2.167224,-3.630315 q 0.212481,0.239571 0.329123,0.488163 0.116802,0.245917 0.120618,0.495801 0.0038,0.249884 -0.119662,0.496166 -0.124737,0.244865 -0.391242,0.481234 -0.260834,0.23134 -0.518843,0.325942 -0.257848,0.09193 -0.505648,0.06097 -0.249058,-0.03237 -0.483358,-0.176611 -0.234301,-0.144237 -0.449296,-0.386643 -0.286661,-0.323207 -0.391566,-0.655657 -0.104745,-0.335124 0.0036,-0.664191 0.107049,-0.330486 0.455773,-0.639777 0.354395,-0.314321 0.692464,-0.378623 0.339487,-0.06556 0.655451,0.08223 0.315964,0.147789 0.602624,0.470996 z m -1.426082,1.264827 q 0.165961,0.18712 0.327931,0.284072 0.161969,0.09695 0.318233,0.08752 0.156264,-0.0094 0.305109,-0.141442 0.154516,-0.137044 0.18112,-0.289806 0.02802,-0.15402 -0.05173,-0.323894 -0.07833,-0.171131 -0.244294,-0.358251 -0.248942,-0.28068 -0.487089,-0.360721 -0.238148,-0.08004 -0.466378,0.122382 -0.151681,0.13453 -0.179862,0.291224 -0.02676,0.155438 0.05141,0.329244 0.07959,0.172548 0.245551,0.359668 z m 3.761464,-1.772636 -0.495463,0.560973 -1.617589,-1.428691 -0.447799,0.507005 -0.458719,-0.405151 1.389806,-1.573563 0.458719,0.405151 -0.446544,0.505585 z m 0.0314,-2.916136 -0.578291,-0.973793 0.457709,-0.669467 0.879292,1.705215 0.893143,0.610635 -0.425626,0.622541 -0.874374,-0.597802 -1.926836,-0.213312 0.459847,-0.672595 z m 0.528432,-2.845631 q 0.254533,-0.461178 0.581613,-0.579321 0.327994,-0.119803 0.697932,0.08437 0.165891,0.09156 0.291958,0.223901 0.126984,0.130683 0.186912,0.304435 0.06084,0.172092 0.03255,0.38805 -0.02738,0.214299 -0.170209,0.47309 l -0.10163,0.184139 0.804571,0.444059 -0.361656,0.65527 -2.425328,-1.338587 z m 0.520953,0.307002 -0.09339,0.169209 0.557394,0.307637 0.07142,-0.129395 q 0.04669,-0.08461 0.05878,-0.173162 0.01042,-0.08947 -0.03047,-0.168312 -0.04163,-0.08141 -0.151124,-0.141843 -0.114464,-0.06318 -0.223337,-0.03453 -0.110531,0.02773 -0.189271,0.170396 z m 2.765513,-0.621137 -2.504474,-1.183909 0.321485,-0.68008 2.504475,1.183909 z m 1.635294,-4.037958 -0.331833,0.923713 -2.178811,0.292421 -0.0058,0.01605 q 0.08702,0.02119 0.20727,0.05634 0.120256,0.03515 0.245221,0.074 0.123181,0.03821 0.221259,0.07344 l 1.175148,0.422159 -0.224212,0.624131 -2.607082,-0.936565 0.330553,-0.920147 2.152563,-0.297823 0.0038,-0.0107 q -0.08752,-0.0254 -0.201782,-0.06041 -0.116049,-0.03565 -0.23388,-0.07194 -0.117192,-0.03807 -0.206353,-0.0701 l -1.178715,-0.42344 0.225493,-0.627697 z m -1.143335,-2.318814 0.209882,-1.177056 1.469921,0.262103 q 0.03516,0.22376 0.03324,0.504421 -0.0038,0.280329 -0.05701,0.57879 -0.07018,0.393595 -0.27603,0.662917 -0.205848,0.269321 -0.54697,0.379792 -0.342987,0.11014 -0.820525,0.02499 -0.429037,-0.0765 -0.711286,-0.296203 -0.284114,-0.220033 -0.396986,-0.569282 -0.114404,-0.351446 -0.03158,-0.815926 0.04557,-0.255558 0.134981,-0.476352 0.08941,-0.220793 0.194295,-0.377239 l 0.536692,0.336285 q -0.09903,0.134393 -0.162742,0.286631 -0.06558,0.151905 -0.09818,0.334712 -0.04357,0.244365 0.03988,0.41322 0.08378,0.16699 0.256479,0.267073 0.170833,0.09975 0.392813,0.139332 0.253692,0.04524 0.441678,0.0056 0.186452,-0.04182 0.30247,-0.163556 0.114485,-0.123938 0.149742,-0.321669 0.01164,-0.06529 0.01895,-0.16022 0.0076,-0.0968 0.0032,-0.147626 l -0.427173,-0.07617 -0.08681,0.486865 z"
       id="text2"
       style="font-weight:800;font-size:3.88056px;font-family:'Open Sans';-inkscape-font-specification:'Open Sans Ultra-Bold';letter-spacing:0.370417px;word-spacing:2.3839px;display:inline;stroke:#000000;stroke-width:0.1"
       transform="translate(-0.11309139,1.2440053)"
       aria-label="PAWPRINT PROTOTYPING" />
  </g>
</svg>
