<?xml version="1.0" encoding="UTF-8" standalone="no"?>
<!-- Created with Inkscape (http://www.inkscape.org/) -->

<svg
   xmlns:dc="http://purl.org/dc/elements/1.1/"
   xmlns:cc="http://creativecommons.org/ns#"
   xmlns:rdf="http://www.w3.org/1999/02/22-rdf-syntax-ns#"
   xmlns:svg="http://www.w3.org/2000/svg"
   xmlns="http://www.w3.org/2000/svg"
   xmlns:sodipodi="http://sodipodi.sourceforge.net/DTD/sodipodi-0.dtd"
   xmlns:inkscape="http://www.inkscape.org/namespaces/inkscape"
   width="67.172829mm"
   height="67.531944mm"
   viewBox="0 0 67.172829 67.531944"
   version="1.1"
   id="svg8"
   inkscape:version="0.92.4 (5da689c313, 2019-01-14)"
   sodipodi:docname="Pawprint Prototyping Icon Logo.svg"
   inkscape:export-filename="C:\Users\kataze\Pawprint Prototyping Logo\Pawprint Prototyping Fake Dog_Logo_Square.png"
   inkscape:export-xdpi="600"
   inkscape:export-ydpi="600">
  <defs
     id="defs2" />
  <sodipodi:namedview
     id="base"
     pagecolor="#ffffff"
     bordercolor="#666666"
     borderopacity="1.0"
     inkscape:pageopacity="0.0"
     inkscape:pageshadow="2"
     inkscape:zoom="0.29244415"
     inkscape:cx="240.09941"
     inkscape:cy="801.24537"
     inkscape:document-units="mm"
     inkscape:current-layer="layer1"
     showgrid="false"
     inkscape:window-width="1920"
     inkscape:window-height="1027"
     inkscape:window-x="-8"
     inkscape:window-y="-8"
     inkscape:window-maximized="1"
     fit-margin-top="0"
     fit-margin-left="0"
     fit-margin-right="0"
     fit-margin-bottom="0" />
  <metadata
     id="metadata5">
    <rdf:RDF>
      <cc:Work
         rdf:about="">
        <dc:format>image/svg+xml</dc:format>
        <dc:type
           rdf:resource="http://purl.org/dc/dcmitype/StillImage" />
        <dc:title></dc:title>
      </cc:Work>
    </rdf:RDF>
  </metadata>
  <g
     inkscape:label="Layer 1"
     inkscape:groupmode="layer"
     id="layer1"
     transform="translate(-102.03931,299.79019)">
    <path
       inkscape:connector-curvature="0"
       style="fill:#ff0000;fill-opacity:1;stroke-width:0.12314262"
       d="m 512.97279,-544.68137 c 1.12574,3.73881 1.6969,7.63173 1.68865,11.54717 -0.066,21.39044 -11.94444,26.55118 -32.8088,26.3143 -13.73723,-0.17413 -26.35862,-7.97948 -32.96082,-20.38386 5.67193,14.80018 19.54397,24.63111 35.01227,24.81303 20.86428,0.23676 37.86685,-7.73459 37.93287,-29.12495 0.003,-4.03127 -0.53093,-9.09389 -1.71845,-13.16569 z"
       id="ellipse920"
       sodipodi:nodetypes="cccccccc" />
    <path
       style="fill:#000000;stroke-width:0.17470409"
       d="m 482.51971,-508.62169 c -1.31195,-0.0652 -2.56681,-0.60623 -3.65193,-1.57447 -0.8176,-0.72954 -0.9517,-0.93485 -1.40764,-2.15503 -0.45698,-1.22287 -0.49333,-1.52273 -0.39026,-3.21494 0.0625,-1.02644 0.23811,-2.25788 0.39019,-2.73653 0.28636,-0.90128 2.6717,-5.31021 3.57993,-6.61694 0.75629,-1.08813 1.4833,-2.83873 2.18156,-5.25306 0.64572,-2.23267 1.22084,-3.27583 2.26542,-4.10903 1.36307,-1.08725 3.64409,-0.82318 6.24591,0.72307 1.74255,1.0356 3.53801,1.67035 6.72694,2.37821 4.51545,1.00231 7.00669,2.20508 8.87358,4.28417 1.4407,1.60446 1.90813,3.78392 1.2253,5.71326 -0.60799,1.71794 -1.4381,2.59196 -3.14574,3.31211 -1.12885,0.47659 -1.62762,0.58002 -3.19235,0.66512 -3.26907,0.17778 -4.69108,0.39346 -6.67291,1.01206 -1.76209,0.55002 -2.10543,0.71335 -3.77834,1.79742 -1.20419,0.78033 -2.40622,1.73548 -3.47816,2.76383 -1.47019,1.41041 -1.80014,1.64763 -3.22032,2.31517 -1.42185,0.66834 -1.68055,0.73883 -2.55118,0.69558 z m -9.5582,-11.1287 c -2.69027,0.33761 -5.54891,-1.84724 -7.4656,-5.70593 -1.5678,-3.15629 -1.76727,-7.46129 -0.47435,-10.238 0.60714,-1.30387 1.03955,-1.6579 2.18796,-1.79125 1.24358,-0.1444 2.27139,0.17561 3.79354,1.18112 1.67344,1.10545 2.35629,1.98515 3.94674,5.08451 2.52407,4.91875 2.89585,6.41599 2.06633,8.32148 -0.74653,1.71487 -2.31057,2.92921 -4.05462,3.14807 z m 30.65982,-12.89762 c -0.97328,0.2296 -2.49096,-0.0314 -3.48556,-0.59938 -1.34332,-0.76716 -1.98101,-1.69621 -2.93855,-4.28122 -1.41222,-3.81242 -2.02108,-5.83907 -2.0869,-6.94632 -0.17959,-3.02154 1.4322,-6.02023 3.38021,-6.2888 1.54116,-0.21247 4.70961,1.86925 6.6462,4.36668 1.59862,2.06157 2.74384,5.60938 2.66685,8.26174 -0.0363,1.25041 -0.78706,3.34633 -1.4235,3.97399 -0.64928,0.64033 -1.84981,1.29888 -2.75875,1.51331 z m -14.36938,-6.33825 c -0.47297,0.0606 -1.08516,0.0269 -1.36044,-0.0747 -0.92786,-0.34278 -2.25331,-1.44789 -3.20076,-2.66866 -3.06396,-3.94788 -5.46696,-14.47334 -4.00328,-17.53495 0.11682,-0.24437 0.52402,-0.61964 0.90487,-0.83395 1.4958,-0.84171 4.24023,-0.12878 6.19152,1.6084 1.48706,1.32388 3.07573,3.1514 3.91398,4.50242 0.87235,1.40601 2.218,4.96462 2.46754,6.52552 0.705,4.40995 -1.39044,8.0247 -4.91343,8.47596 z m -10.94394,4.49691 c -1.2038,0.29299 -1.64968,0.25301 -3.12642,-0.28034 -2.54928,-0.92072 -4.60477,-3.21709 -6.15449,-6.87573 -1.17556,-2.77551 -1.5906,-5.36794 -1.39314,-8.70341 0.15089,-2.54878 1.35489,-4.64845 3.08851,-5.38612 0.70907,-0.30114 0.87339,-0.29759 1.62951,0.0403 1.45466,0.64997 3.72175,3.15045 5.92508,6.53505 0.66949,1.02842 1.33497,2.34681 2.16801,4.29505 1.05102,2.45797 1.22334,2.98856 1.37194,4.22331 0.31066,2.58156 -0.0187,4.12009 -1.0488,4.89884 -0.92312,0.69789 -1.60393,1.04464 -2.4602,1.25306 z m -14.72683,-4.31778 c -0.76099,-1.79836 -0.99598,-4.28694 -0.53668,-5.68331 0.0934,-0.28392 0.17044,-0.57571 0.17124,-0.64842 0.004,-0.338 0.73261,-1.27497 0.89969,-1.15647 0.0985,0.0698 0.46755,1.05229 0.82028,2.18327 0.59932,1.9218 0.70072,2.13489 1.54959,3.25617 0.49957,0.6599 0.89184,1.24043 0.87171,1.29009 -0.0201,0.0497 -0.37703,0.13729 -0.79312,0.19479 -0.78173,0.10799 -2.13428,0.92627 -2.19647,1.3289 -0.0767,0.49654 -0.37528,0.20604 -0.7862,-0.76504 z m 34.69618,-13.71865 c -0.70076,-0.006 -2.19772,0.5923 -2.53934,1.01558 -0.13827,0.17129 -0.28519,0.29748 -0.32648,0.28043 -0.0413,-0.0171 -0.21166,-0.74153 -0.37858,-1.60991 -0.25748,-1.33952 -0.41559,-1.77593 -1.04289,-2.87848 -1.6269,-2.85947 -1.6423,-3.00643 -0.26725,-2.55041 1.67962,0.55703 3.34854,2.0713 4.53723,4.11681 0.80386,1.38328 0.80652,1.63316 0.0173,1.62599 z m -15.94687,-10.11492 c -0.78716,0.0258 -1.6294,0.34174 -2.25211,0.84495 -0.54768,0.44253 -0.54782,0.44231 -0.86997,-1.34624 -0.20188,-1.12081 -0.3611,-1.52738 -1.17801,-3.008 -1.19828,-2.17184 -1.2833,-2.38005 -1.01776,-2.49241 0.3105,-0.13139 2.45292,0.84221 3.1502,1.43158 1.20709,1.02028 3.39784,4.37126 2.94842,4.5099 -0.0691,0.0216 -0.42055,0.0485 -0.78074,0.0602 z m -14.82004,5.99256 c -0.12899,-0.15085 -0.3843,-0.83245 -0.56731,-1.51468 -0.56697,-2.11389 -0.53786,-3.80165 0.0953,-5.5271 0.2202,-0.60004 0.49905,-1.13274 0.61968,-1.18379 0.26595,-0.11254 0.67967,0.80084 1.04995,2.31805 0.23721,0.97191 1.06111,2.62655 1.9539,3.92413 l 0.31397,0.4563 -1.25094,0.43716 c -0.97836,0.3419 -1.31396,0.53126 -1.54022,0.86882 -0.36509,0.54475 -0.39042,0.55305 -0.6744,0.22109 z"
       id="path863"
       inkscape:connector-curvature="0" />
    <path
       style="fill:#000000;stroke-width:0.17470409"
       d="m 494.04357,-275.95677 c -1.31195,-0.0652 -2.56681,-0.60623 -3.65192,-1.57447 -0.81761,-0.72954 -0.95171,-0.93485 -1.40764,-2.15503 -0.45699,-1.22287 -0.49334,-1.52273 -0.39026,-3.21494 0.0625,-1.02644 0.2381,-2.25788 0.39018,-2.73653 0.28636,-0.90128 2.67171,-5.31021 3.57994,-6.61694 0.75628,-1.08813 1.4833,-2.83873 2.18156,-5.25306 0.64572,-2.23267 1.22084,-3.27583 2.26542,-4.10903 1.36307,-1.08725 3.64408,-0.82318 6.2459,0.72307 1.74256,1.0356 3.53802,1.67035 6.72694,2.37821 4.51546,1.00231 7.00669,2.20508 8.87359,4.28417 1.4407,1.60446 1.90812,3.78392 1.2253,5.71326 -0.60799,1.71794 -1.43811,2.59196 -3.14575,3.31211 -1.12884,0.47659 -1.62762,0.58002 -3.19235,0.66512 -3.26906,0.17778 -4.69108,0.39346 -6.6729,1.01206 -1.76209,0.55002 -2.10543,0.71335 -3.77835,1.79742 -1.20419,0.78033 -2.40621,1.73548 -3.47815,2.76383 -1.4702,1.41041 -1.80015,1.64763 -3.22032,2.31517 -1.42186,0.66834 -1.68055,0.73883 -2.55119,0.69558 z m -9.5582,-11.1287 c -2.69027,0.33761 -5.5489,-1.84724 -7.46559,-5.70593 -1.56781,-3.15629 -1.76728,-7.46129 -0.47435,-10.238 0.60713,-1.30387 1.03955,-1.6579 2.18795,-1.79125 1.24358,-0.1444 2.27139,0.17561 3.79354,1.18112 1.67344,1.10545 2.3563,1.98515 3.94674,5.08451 2.52408,4.91875 2.89586,6.41599 2.06634,8.32148 -0.74654,1.71487 -2.31057,2.92921 -4.05463,3.14807 z m 30.65983,-12.89762 c -0.97328,0.2296 -2.49097,-0.0314 -3.48557,-0.59938 -1.34332,-0.76716 -1.981,-1.69621 -2.93855,-4.28122 -1.41221,-3.81242 -2.02108,-5.83907 -2.08689,-6.94632 -0.17959,-3.02154 1.43219,-6.02023 3.38021,-6.2888 1.54115,-0.21247 4.7096,1.86925 6.6462,4.36668 1.59861,2.06157 2.74383,5.60938 2.66685,8.26174 -0.0363,1.25041 -0.78706,3.34633 -1.4235,3.97399 -0.64928,0.64033 -1.84982,1.29888 -2.75875,1.51331 z m -14.36939,-6.33825 c -0.47296,0.0606 -1.08515,0.0269 -1.36043,-0.0747 -0.92787,-0.34278 -2.25332,-1.44789 -3.20076,-2.66866 -3.06397,-3.94788 -5.46696,-14.47334 -4.00329,-17.53495 0.11683,-0.24437 0.52402,-0.61964 0.90488,-0.83395 1.4958,-0.84171 4.24022,-0.12878 6.19152,1.6084 1.48706,1.32388 3.07573,3.1514 3.91397,4.50242 0.87236,1.40601 2.21801,4.96462 2.46754,6.52552 0.705,4.40995 -1.39043,8.0247 -4.91343,8.47596 z m -10.94393,4.49691 c -1.20381,0.29299 -1.64968,0.25301 -3.12642,-0.28034 -2.54929,-0.92072 -4.60478,-3.21709 -6.15449,-6.87573 -1.17557,-2.77551 -1.59061,-5.36794 -1.39314,-8.70341 0.15089,-2.54878 1.35488,-4.64845 3.08851,-5.38612 0.70907,-0.30114 0.87339,-0.29759 1.62951,0.0403 1.45465,0.64997 3.72175,3.15045 5.92508,6.53505 0.66948,1.02842 1.33496,2.34681 2.16801,4.29505 1.05101,2.45797 1.22333,2.98856 1.37193,4.22331 0.31067,2.58156 -0.0187,4.12009 -1.04879,4.89884 -0.92313,0.69789 -1.60393,1.04464 -2.4602,1.25306 z m -14.72683,-4.31778 c -0.761,-1.79836 -0.99599,-4.28694 -0.53669,-5.68331 0.0934,-0.28392 0.17045,-0.57571 0.17124,-0.64842 0.004,-0.338 0.73261,-1.27497 0.89969,-1.15647 0.0985,0.0698 0.46756,1.05229 0.82028,2.18327 0.59933,1.9218 0.70073,2.13489 1.54959,3.25617 0.49958,0.6599 0.89185,1.24043 0.87172,1.29009 -0.0201,0.0497 -0.37704,0.13729 -0.79312,0.19479 -0.78174,0.10799 -2.13429,0.92627 -2.19647,1.3289 -0.0767,0.49654 -0.37529,0.20604 -0.78621,-0.76504 z m 34.69617,-13.71865 c -0.70076,-0.006 -2.19772,0.5923 -2.53934,1.01558 -0.13826,0.17129 -0.28518,0.29748 -0.32648,0.28043 -0.0413,-0.0171 -0.21166,-0.74153 -0.37858,-1.60991 -0.25747,-1.33952 -0.41559,-1.77593 -1.04288,-2.87848 -1.6269,-2.85947 -1.6423,-3.00643 -0.26725,-2.55041 1.67962,0.55703 3.34854,2.0713 4.53722,4.11681 0.80387,1.38328 0.80653,1.63316 0.0173,1.62599 z m -15.94687,-10.11492 c -0.78715,0.0258 -1.62939,0.34174 -2.2521,0.84495 -0.54768,0.44253 -0.54783,0.44231 -0.86998,-1.34624 -0.20187,-1.12081 -0.3611,-1.52738 -1.17801,-3.008 -1.19827,-2.17184 -1.28329,-2.38005 -1.01775,-2.49241 0.3105,-0.13139 2.45292,0.84221 3.15019,1.43158 1.2071,1.02028 3.39785,4.37126 2.94842,4.5099 -0.0691,0.0216 -0.42055,0.0485 -0.78073,0.0602 z m -14.82004,5.99256 c -0.12898,-0.15085 -0.38429,-0.83245 -0.56731,-1.51468 -0.56696,-2.11389 -0.53785,-3.80165 0.0953,-5.5271 0.22021,-0.60004 0.49905,-1.13274 0.61968,-1.18379 0.26595,-0.11254 0.67967,0.80084 1.04996,2.31805 0.23721,0.97191 1.06111,2.62655 1.9539,3.92413 l 0.31396,0.4563 -1.25093,0.43716 c -0.97836,0.3419 -1.31397,0.53126 -1.54022,0.86882 -0.36509,0.54475 -0.39043,0.55305 -0.67441,0.22109 z"
       id="path863-5"
       inkscape:connector-curvature="0" />
    <path
       style="stroke-width:0.26458332"
       d="m 539.79439,-307.9732 c 0.0494,0.47473 0.53603,6.49156 0.55521,6.96723 -3.61879,17.09319 -23.79567,28.68486 -52.59131,28.68486 -15.80523,-0.004 -30.75477,-4.71341 -40.64661,-12.80542 9.05939,11.13045 26.7141,18.08541 45.93828,18.09708 28.79564,0 51.57361,-15.32367 51.57348,-34.22633 -0.004,-2.25584 0.21869,-4.50592 -0.45929,-6.71742 z"
       id="path75"
       inkscape:connector-curvature="0"
       sodipodi:nodetypes="cccccccc" />
    <path
       inkscape:connector-curvature="0"
       id="path37"
       d="m 490.87701,-354.66838 c -1.31195,-0.0652 -2.56681,-0.60623 -3.65192,-1.57447 -0.81761,-0.72954 -0.95171,-0.93485 -1.40764,-2.15503 -0.45699,-1.22287 -0.49334,-1.52273 -0.39026,-3.21494 0.0625,-1.02644 0.2381,-2.25788 0.39018,-2.73653 0.28636,-0.90128 2.67171,-5.31021 3.57994,-6.61694 0.75628,-1.08813 1.4833,-2.83873 2.18156,-5.25306 0.64572,-2.23267 1.22084,-3.27583 2.26542,-4.10903 1.36307,-1.08725 3.64408,-0.82318 6.2459,0.72307 1.74256,1.0356 3.53802,1.67035 6.72694,2.37821 4.51546,1.00231 7.00669,2.20508 8.87359,4.28417 1.4407,1.60446 1.90812,3.78392 1.2253,5.71326 -0.60799,1.71794 -1.43811,2.59196 -3.14575,3.31211 -1.12884,0.47659 -1.62762,0.58002 -3.19235,0.66512 -3.26906,0.17778 -4.69108,0.39346 -6.6729,1.01206 -1.76209,0.55002 -2.10543,0.71335 -3.77835,1.79742 -1.20419,0.78033 -2.40621,1.73548 -3.47815,2.76383 -1.4702,1.41041 -1.80015,1.64763 -3.22032,2.31517 -1.42186,0.66834 -1.68055,0.73883 -2.55119,0.69558 z m -9.5582,-11.1287 c -2.69027,0.33761 -5.5489,-1.84724 -7.46559,-5.70593 -1.56781,-3.15629 -1.76728,-7.46129 -0.47435,-10.238 0.60713,-1.30387 1.03955,-1.6579 2.18795,-1.79125 1.24358,-0.1444 2.27139,0.17561 3.79354,1.18112 1.67344,1.10545 2.3563,1.98515 3.94674,5.08451 2.52408,4.91875 2.89586,6.41599 2.06634,8.32148 -0.74654,1.71487 -2.31057,2.92921 -4.05463,3.14807 z m 30.65983,-12.89762 c -0.97328,0.2296 -2.49097,-0.0314 -3.48557,-0.59938 -1.34332,-0.76716 -1.981,-1.69621 -2.93855,-4.28122 -1.41221,-3.81242 -2.02108,-5.83907 -2.08689,-6.94632 -0.17959,-3.02154 1.43219,-6.02023 3.38021,-6.2888 1.54115,-0.21247 4.7096,1.86925 6.6462,4.36668 1.59861,2.06157 2.74383,5.60938 2.66685,8.26174 -0.0363,1.25041 -0.78706,3.34633 -1.4235,3.97399 -0.64928,0.64033 -1.84982,1.29888 -2.75875,1.51331 z m -14.36939,-6.33825 c -0.47296,0.0606 -1.08515,0.0269 -1.36043,-0.0747 -0.92787,-0.34278 -2.25332,-1.44789 -3.20076,-2.66866 -3.06397,-3.94788 -5.46696,-14.47334 -4.00329,-17.53495 0.11683,-0.24437 0.52402,-0.61964 0.90488,-0.83395 1.4958,-0.84171 4.24022,-0.12878 6.19152,1.6084 1.48706,1.32388 3.07573,3.1514 3.91397,4.50242 0.87236,1.40601 2.21801,4.96462 2.46754,6.52552 0.705,4.40995 -1.39043,8.0247 -4.91343,8.47596 z m -10.94393,4.49691 c -1.20381,0.29299 -1.64968,0.25301 -3.12642,-0.28034 -2.54929,-0.92072 -4.60478,-3.21709 -6.15449,-6.87573 -1.17557,-2.77551 -1.59061,-5.36794 -1.39314,-8.70341 0.15089,-2.54878 1.35488,-4.64845 3.08851,-5.38612 0.70907,-0.30114 0.87339,-0.29759 1.62951,0.0403 1.45465,0.64997 3.72175,3.15045 5.92508,6.53505 0.66948,1.02842 1.33496,2.34681 2.16801,4.29505 1.05101,2.45797 1.22333,2.98856 1.37193,4.22331 0.31067,2.58156 -0.0187,4.12009 -1.04879,4.89884 -0.92313,0.69789 -1.60393,1.04464 -2.4602,1.25306 z m -14.72683,-4.31778 c -0.761,-1.79836 -0.99599,-4.28694 -0.53669,-5.68331 0.0934,-0.28392 0.17045,-0.57571 0.17124,-0.64842 0.004,-0.338 0.73261,-1.27497 0.89969,-1.15647 0.0985,0.0698 0.46756,1.05229 0.82028,2.18327 0.59933,1.9218 0.70073,2.13489 1.54959,3.25617 0.49958,0.6599 0.89185,1.24043 0.87172,1.29009 -0.0201,0.0497 -0.37704,0.13729 -0.79312,0.19479 -0.78174,0.10799 -2.13429,0.92627 -2.19647,1.3289 -0.0767,0.49654 -0.37529,0.20604 -0.78621,-0.76504 z m 34.69617,-13.71865 c -0.70076,-0.006 -2.19772,0.5923 -2.53934,1.01558 -0.13826,0.17129 -0.28518,0.29748 -0.32648,0.28043 -0.0413,-0.0171 -0.21166,-0.74153 -0.37858,-1.60991 -0.25747,-1.33952 -0.41559,-1.77593 -1.04288,-2.87848 -1.6269,-2.85947 -1.6423,-3.00643 -0.26725,-2.55041 1.67962,0.55703 3.34854,2.0713 4.53722,4.11681 0.80387,1.38328 0.80653,1.63316 0.0173,1.62599 z m -15.94687,-10.11492 c -0.78715,0.0258 -1.62939,0.34174 -2.2521,0.84495 -0.54768,0.44253 -0.54783,0.44231 -0.86998,-1.34624 -0.20187,-1.12081 -0.3611,-1.52738 -1.17801,-3.008 -1.19827,-2.17184 -1.28329,-2.38005 -1.01775,-2.49241 0.3105,-0.13139 2.45292,0.84221 3.15019,1.43158 1.2071,1.02028 3.39785,4.37126 2.94842,4.5099 -0.0691,0.0216 -0.42055,0.0485 -0.78073,0.0602 z m -14.82004,5.99256 c -0.12898,-0.15085 -0.38429,-0.83245 -0.56731,-1.51468 -0.56696,-2.11389 -0.53785,-3.80165 0.0953,-5.5271 0.22021,-0.60004 0.49905,-1.13274 0.61968,-1.18379 0.26595,-0.11254 0.67967,0.80084 1.04996,2.31805 0.23721,0.97191 1.06111,2.62655 1.9539,3.92413 l 0.31396,0.4563 -1.25093,0.43716 c -0.97836,0.3419 -1.31397,0.53126 -1.54022,0.86882 -0.36509,0.54475 -0.39043,0.55305 -0.67441,0.22109 z"
       style="fill:#000000;stroke-width:0.17470409" />
    <path
       style="fill:#ff0000;fill-opacity:0.84924622;stroke-width:0.22365028"
       d="m 523.18465,-380.89186 a 34.379783,26.011018 0 0 1 0.16796,2.17299 34.379783,26.011018 0 0 1 -34.37983,26.01082 34.379783,26.011018 0 0 1 -24.4543,-7.74268 34.379783,26.011018 0 0 0 29.74597,13.03435 34.379783,26.011018 0 0 0 34.37983,-26.01082 34.379783,26.011018 0 0 0 -1.46606,-7.46466 z"
       id="path41"
       inkscape:connector-curvature="0" />
    <path
       style="fill:#000000;stroke-width:0.17470409"
       d="m 484.09152,-432.02289 c -1.31195,-0.0652 -2.56681,-0.60623 -3.65192,-1.57447 -0.81761,-0.72954 -0.95171,-0.93485 -1.40764,-2.15503 -0.45699,-1.22287 -0.49334,-1.52273 -0.39026,-3.21494 0.0625,-1.02644 0.2381,-2.25788 0.39018,-2.73653 0.28636,-0.90128 2.67171,-5.31021 3.57994,-6.61694 0.75628,-1.08813 1.4833,-2.83873 2.18156,-5.25306 0.64572,-2.23267 1.22084,-3.27583 2.26542,-4.10903 1.36307,-1.08725 3.64408,-0.82318 6.2459,0.72307 1.74256,1.0356 3.53802,1.67035 6.72694,2.37821 4.51546,1.00231 7.00669,2.20508 8.87359,4.28417 1.4407,1.60446 1.90812,3.78392 1.2253,5.71326 -0.60799,1.71794 -1.43811,2.59196 -3.14575,3.31211 -1.12884,0.47659 -1.62762,0.58002 -3.19235,0.66512 -3.26906,0.17778 -4.69108,0.39346 -6.6729,1.01206 -1.76209,0.55002 -2.10543,0.71335 -3.77835,1.79742 -1.20419,0.78033 -2.40621,1.73548 -3.47815,2.76383 -1.4702,1.41041 -1.80015,1.64763 -3.22032,2.31517 -1.42186,0.66834 -1.68055,0.73883 -2.55119,0.69558 z m -9.5582,-11.1287 c -2.69027,0.33761 -5.5489,-1.84724 -7.46559,-5.70593 -1.56781,-3.15629 -1.76728,-7.46129 -0.47435,-10.238 0.60713,-1.30387 1.03955,-1.6579 2.18795,-1.79125 1.24358,-0.1444 2.27139,0.17561 3.79354,1.18112 1.67344,1.10545 2.3563,1.98515 3.94674,5.08451 2.52408,4.91875 2.89586,6.41599 2.06634,8.32148 -0.74654,1.71487 -2.31057,2.92921 -4.05463,3.14807 z m 30.65983,-12.89762 c -0.97328,0.2296 -2.49097,-0.0314 -3.48557,-0.59938 -1.34332,-0.76716 -1.981,-1.69621 -2.93855,-4.28122 -1.41221,-3.81242 -2.02108,-5.83907 -2.08689,-6.94632 -0.17959,-3.02154 1.43219,-6.02023 3.38021,-6.2888 1.54115,-0.21247 4.7096,1.86925 6.6462,4.36668 1.59861,2.06157 2.74383,5.60938 2.66685,8.26174 -0.0363,1.25041 -0.78706,3.34633 -1.4235,3.97399 -0.64928,0.64033 -1.84982,1.29888 -2.75875,1.51331 z m -14.36939,-6.33825 c -0.47296,0.0606 -1.08515,0.0269 -1.36043,-0.0747 -0.92787,-0.34278 -2.25332,-1.44789 -3.20076,-2.66866 -3.06397,-3.94788 -5.46696,-14.47334 -4.00329,-17.53495 0.11683,-0.24437 0.52402,-0.61964 0.90488,-0.83395 1.4958,-0.84171 4.24022,-0.12878 6.19152,1.6084 1.48706,1.32388 3.07573,3.1514 3.91397,4.50242 0.87236,1.40601 2.21801,4.96462 2.46754,6.52552 0.705,4.40995 -1.39043,8.0247 -4.91343,8.47596 z m -10.94393,4.49691 c -1.20381,0.29299 -1.64968,0.25301 -3.12642,-0.28034 -2.54929,-0.92072 -4.60478,-3.21709 -6.15449,-6.87573 -1.17557,-2.77551 -1.59061,-5.36794 -1.39314,-8.70341 0.15089,-2.54878 1.35488,-4.64845 3.08851,-5.38612 0.70907,-0.30114 0.87339,-0.29759 1.62951,0.0403 1.45465,0.64997 3.72175,3.15045 5.92508,6.53505 0.66948,1.02842 1.33496,2.34681 2.16801,4.29505 1.05101,2.45797 1.22333,2.98856 1.37193,4.22331 0.31067,2.58156 -0.0187,4.12009 -1.04879,4.89884 -0.92313,0.69789 -1.60393,1.04464 -2.4602,1.25306 z m -14.72683,-4.31778 c -0.761,-1.79836 -0.99599,-4.28694 -0.53669,-5.68331 0.0934,-0.28392 0.17045,-0.57571 0.17124,-0.64842 0.004,-0.338 0.73261,-1.27497 0.89969,-1.15647 0.0985,0.0698 0.46756,1.05229 0.82028,2.18327 0.59933,1.9218 0.70073,2.13489 1.54959,3.25617 0.49958,0.6599 0.89185,1.24043 0.87172,1.29009 -0.0201,0.0497 -0.37704,0.13729 -0.79312,0.19479 -0.78174,0.10799 -2.13429,0.92627 -2.19647,1.3289 -0.0767,0.49654 -0.37529,0.20604 -0.78621,-0.76504 z m 34.69617,-13.71865 c -0.70076,-0.006 -2.19772,0.5923 -2.53934,1.01558 -0.13826,0.17129 -0.28518,0.29748 -0.32648,0.28043 -0.0413,-0.0171 -0.21166,-0.74153 -0.37858,-1.60991 -0.25747,-1.33952 -0.41559,-1.77593 -1.04288,-2.87848 -1.6269,-2.85947 -1.6423,-3.00643 -0.26725,-2.55041 1.67962,0.55703 3.34854,2.0713 4.53722,4.11681 0.80387,1.38328 0.80653,1.63316 0.0173,1.62599 z M 483.9023,-486.0419 c -0.78715,0.0258 -1.62939,0.34174 -2.2521,0.84495 -0.54768,0.44253 -0.54783,0.44231 -0.86998,-1.34624 -0.20187,-1.12081 -0.3611,-1.52738 -1.17801,-3.008 -1.19827,-2.17184 -1.28329,-2.38005 -1.01775,-2.49241 0.3105,-0.13139 2.45292,0.84221 3.15019,1.43158 1.2071,1.02028 3.39785,4.37126 2.94842,4.5099 -0.0691,0.0216 -0.42055,0.0485 -0.78073,0.0602 z m -14.82004,5.99256 c -0.12898,-0.15085 -0.38429,-0.83245 -0.56731,-1.51468 -0.56696,-2.11389 -0.53785,-3.80165 0.0953,-5.5271 0.22021,-0.60004 0.49905,-1.13274 0.61968,-1.18379 0.26595,-0.11254 0.67967,0.80084 1.04996,2.31805 0.23721,0.97191 1.06111,2.62655 1.9539,3.92413 l 0.31396,0.4563 -1.25093,0.43716 c -0.97836,0.3419 -1.31397,0.53126 -1.54022,0.86882 -0.36509,0.54475 -0.39043,0.55305 -0.67441,0.22109 z"
       id="path4559"
       inkscape:connector-curvature="0" />
    <path
       style="fill:#ff0000;fill-opacity:0.84924622;stroke-width:0.22018901"
       d="m 516.11943,-471.40641 a 35.058331,33.248869 0 0 1 1.35286,8.99945 35.058331,33.248869 0 0 1 -35.05832,33.24914 35.058331,33.248869 0 0 1 -22.55107,-7.79436 35.058331,33.248869 0 0 0 27.84274,13.08602 35.058331,33.248869 0 0 0 35.05832,-33.24913 35.058331,33.248869 0 0 0 -3.453,-14.29112 z"
       id="path4563"
       inkscape:connector-curvature="0" />
    <g
       id="g4588"
       transform="translate(-388.50363,24.082576)">
      <path
         style="fill:#000000;stroke-width:0.17470409"
         d="m 517.68118,-263.84001 c -1.31195,-0.0652 -2.56681,-0.60623 -3.65192,-1.57447 -0.81761,-0.72954 -0.95171,-0.93485 -1.40764,-2.15503 -0.45699,-1.22287 -0.49334,-1.52273 -0.39026,-3.21494 0.0625,-1.02644 0.2381,-2.25788 0.39018,-2.73653 0.28636,-0.90128 2.67171,-5.31021 3.57994,-6.61694 0.75628,-1.08813 1.4833,-2.83873 2.18156,-5.25306 0.64572,-2.23267 1.22084,-3.27583 2.26542,-4.10903 1.36307,-1.08725 3.64408,-0.82318 6.2459,0.72307 1.74256,1.0356 3.53802,1.67035 6.72694,2.37821 4.51546,1.00231 7.00669,2.20508 8.87359,4.28417 1.4407,1.60446 1.90812,3.78392 1.2253,5.71326 -0.60799,1.71794 -1.43811,2.59196 -3.14575,3.31211 -1.12884,0.47659 -1.62762,0.58002 -3.19235,0.66512 -3.26906,0.17778 -4.69108,0.39346 -6.6729,1.01206 -1.76209,0.55002 -2.10543,0.71335 -3.77835,1.79742 -1.20419,0.78033 -2.40621,1.73548 -3.47815,2.76383 -1.4702,1.41041 -1.80015,1.64763 -3.22032,2.31517 -1.42186,0.66834 -1.68055,0.73883 -2.55119,0.69558 z m -9.5582,-11.1287 c -2.69027,0.33761 -5.5489,-1.84724 -7.46559,-5.70593 -1.56781,-3.15629 -1.76728,-7.46129 -0.47435,-10.238 0.60713,-1.30387 1.03955,-1.6579 2.18795,-1.79125 1.24358,-0.1444 2.27139,0.17561 3.79354,1.18112 1.67344,1.10545 2.3563,1.98515 3.94674,5.08451 2.52408,4.91875 2.89586,6.41599 2.06634,8.32148 -0.74654,1.71487 -2.31057,2.92921 -4.05463,3.14807 z m 30.65983,-12.89762 c -0.97328,0.2296 -2.49097,-0.0314 -3.48557,-0.59938 -1.34332,-0.76716 -1.981,-1.69621 -2.93855,-4.28122 -1.41221,-3.81242 -2.02108,-5.83907 -2.08689,-6.94632 -0.17959,-3.02154 1.43219,-6.02023 3.38021,-6.2888 1.54115,-0.21247 4.7096,1.86925 6.6462,4.36668 1.59861,2.06157 2.74383,5.60938 2.66685,8.26174 -0.0363,1.25041 -0.78706,3.34633 -1.4235,3.97399 -0.64928,0.64033 -1.84982,1.29888 -2.75875,1.51331 z m -14.36939,-6.33825 c -0.47296,0.0606 -1.08515,0.0269 -1.36043,-0.0747 -0.92787,-0.34278 -2.25332,-1.44789 -3.20076,-2.66866 -3.06397,-3.94788 -5.46696,-14.47334 -4.00329,-17.53495 0.11683,-0.24437 0.52402,-0.61964 0.90488,-0.83395 1.4958,-0.84171 4.24022,-0.12878 6.19152,1.6084 1.48706,1.32388 3.07573,3.1514 3.91397,4.50242 0.87236,1.40601 2.21801,4.96462 2.46754,6.52552 0.705,4.40995 -1.39043,8.0247 -4.91343,8.47596 z m -10.94393,4.49691 c -1.20381,0.29299 -1.64968,0.25301 -3.12642,-0.28034 -2.54929,-0.92072 -4.60478,-3.21709 -6.15449,-6.87573 -1.17557,-2.77551 -1.59061,-5.36794 -1.39314,-8.70341 0.15089,-2.54878 1.35488,-4.64845 3.08851,-5.38612 0.70907,-0.30114 0.87339,-0.29759 1.62951,0.0403 1.45465,0.64997 3.72175,3.15045 5.92508,6.53505 0.66948,1.02842 1.33496,2.34681 2.16801,4.29505 1.05101,2.45797 1.22333,2.98856 1.37193,4.22331 0.31067,2.58156 -0.0187,4.12009 -1.04879,4.89884 -0.92313,0.69789 -1.60393,1.04464 -2.4602,1.25306 z m -14.72683,-4.31778 c -0.761,-1.79836 -0.99599,-4.28694 -0.53669,-5.68331 0.0934,-0.28392 0.17045,-0.57571 0.17124,-0.64842 0.004,-0.338 0.73261,-1.27497 0.89969,-1.15647 0.0985,0.0698 0.46756,1.05229 0.82028,2.18327 0.59933,1.9218 0.70073,2.13489 1.54959,3.25617 0.49958,0.6599 0.89185,1.24043 0.87172,1.29009 -0.0201,0.0497 -0.37704,0.13729 -0.79312,0.19479 -0.78174,0.10799 -2.13429,0.92627 -2.19647,1.3289 -0.0767,0.49654 -0.37529,0.20604 -0.78621,-0.76504 z m 34.69617,-13.71865 c -0.70076,-0.006 -2.19772,0.5923 -2.53934,1.01558 -0.13826,0.17129 -0.28518,0.29748 -0.32648,0.28043 -0.0413,-0.0171 -0.21166,-0.74153 -0.37858,-1.60991 -0.25747,-1.33952 -0.41559,-1.77593 -1.04288,-2.87848 -1.6269,-2.85947 -1.6423,-3.00643 -0.26725,-2.55041 1.67962,0.55703 3.34854,2.0713 4.53722,4.11681 0.80387,1.38328 0.80653,1.63316 0.0173,1.62599 z m -15.94687,-10.11492 c -0.78715,0.0258 -1.62939,0.34174 -2.2521,0.84495 -0.54768,0.44253 -0.54783,0.44231 -0.86998,-1.34624 -0.20187,-1.12081 -0.3611,-1.52738 -1.17801,-3.008 -1.19827,-2.17184 -1.28329,-2.38005 -1.01775,-2.49241 0.3105,-0.13139 2.45292,0.84221 3.15019,1.43158 1.2071,1.02028 3.39785,4.37126 2.94842,4.5099 -0.0691,0.0216 -0.42055,0.0485 -0.78073,0.0602 z m -14.82004,5.99256 c -0.12898,-0.15085 -0.38429,-0.83245 -0.56731,-1.51468 -0.56696,-2.11389 -0.53785,-3.80165 0.0953,-5.5271 0.22021,-0.60004 0.49905,-1.13274 0.61968,-1.18379 0.26595,-0.11254 0.67967,0.80084 1.04996,2.31805 0.23721,0.97191 1.06111,2.62655 1.9539,3.92413 l 0.31396,0.4563 -1.25093,0.43716 c -0.97836,0.3419 -1.31397,0.53126 -1.54022,0.86882 -0.36509,0.54475 -0.39043,0.55305 -0.67441,0.22109 z"
         id="path4572"
         inkscape:connector-curvature="0" />
      <path
         inkscape:connector-curvature="0"
         id="path4576"
         d="m 546.90125,-302.72198 a 31.207387,25.749593 0 0 1 6.18432,15.34015 31.207387,25.749593 0 0 1 -31.20733,25.74934 31.207387,25.749593 0 0 1 -31.20598,-25.71471 33.586427,28.788365 0 0 0 -0.12932,2.21795 33.586427,28.788365 0 0 0 33.58665,28.78842 33.586427,28.788365 0 0 0 33.58618,-28.78842 33.586427,28.788365 0 0 0 -7.05247,-17.59273 z"
         style="fill:#ff0000;fill-opacity:0.84924622;stroke-width:0.28578264" />
    </g>
    <text
       xml:space="preserve"
       style="font-style:normal;font-weight:normal;font-size:74.81872559px;line-height:1.25;font-family:sans-serif;letter-spacing:0px;word-spacing:0px;fill:#000000;fill-opacity:1;stroke:none;stroke-width:1.87046802"
       x="312.47391"
       y="-592.31812"
       id="text4592"><tspan
         sodipodi:role="line"
         id="tspan4590"
         x="312.47391"
         y="-592.31812"
         style="stroke-width:1.87046802">BAD BOYS</tspan></text>
    <text
       xml:space="preserve"
       style="font-style:normal;font-weight:normal;font-size:59.34791565px;line-height:1.25;font-family:sans-serif;letter-spacing:0px;word-spacing:0px;fill:#000000;fill-opacity:1;stroke:none;stroke-width:1.48369789"
       x="-35.503872"
       y="-314.05151"
       id="text4596"><tspan
         sodipodi:role="line"
         id="tspan4594"
         x="-35.503872"
         y="-314.05151"
         style="stroke-width:1.48369789">GOOD BOY</tspan></text>
  </g>
</svg>
