%TF.GenerationSoftware,KiCad,Pcbnew,9.0.6*%
%TF.CreationDate,2025-11-26T15:21:52-08:00*%
%TF.ProjectId,CNC_Class_PCB,434e435f-436c-4617-9373-5f5043422e6b,rev?*%
%TF.SameCoordinates,Original*%
%TF.FileFunction,Copper,L2,Bot*%
%TF.FilePolarity,Positive*%
%FSLAX46Y46*%
G04 Gerber Fmt 4.6, Leading zero omitted, Abs format (unit mm)*
G04 Created by KiCad (PCBNEW 9.0.6) date 2025-11-26 15:21:52*
%MOMM*%
%LPD*%
G01*
G04 APERTURE LIST*
G04 Aperture macros list*
%AMRoundRect*
0 Rectangle with rounded corners*
0 $1 Rounding radius*
0 $2 $3 $4 $5 $6 $7 $8 $9 X,Y pos of 4 corners*
0 Add a 4 corners polygon primitive as box body*
4,1,4,$2,$3,$4,$5,$6,$7,$8,$9,$2,$3,0*
0 Add four circle primitives for the rounded corners*
1,1,$1+$1,$2,$3*
1,1,$1+$1,$4,$5*
1,1,$1+$1,$6,$7*
1,1,$1+$1,$8,$9*
0 Add four rect primitives between the rounded corners*
20,1,$1+$1,$2,$3,$4,$5,0*
20,1,$1+$1,$4,$5,$6,$7,0*
20,1,$1+$1,$6,$7,$8,$9,0*
20,1,$1+$1,$8,$9,$2,$3,0*%
G04 Aperture macros list end*
%TA.AperFunction,SMDPad,CuDef*%
%ADD10C,17.900000*%
%TD*%
%TA.AperFunction,SMDPad,CuDef*%
%ADD11RoundRect,0.855000X1.995000X2.195000X-1.995000X2.195000X-1.995000X-2.195000X1.995000X-2.195000X0*%
%TD*%
%TA.AperFunction,ComponentPad*%
%ADD12C,1.600000*%
%TD*%
%TA.AperFunction,SMDPad,CuDef*%
%ADD13RoundRect,0.150000X0.954423X0.146891X0.604423X0.753109X-0.954423X-0.146891X-0.604423X-0.753109X0*%
%TD*%
%TA.AperFunction,ComponentPad*%
%ADD14R,1.500000X1.050000*%
%TD*%
%TA.AperFunction,ComponentPad*%
%ADD15O,1.500000X1.050000*%
%TD*%
%TA.AperFunction,ViaPad*%
%ADD16C,1.500000*%
%TD*%
%TA.AperFunction,Conductor*%
%ADD17C,0.500000*%
%TD*%
G04 APERTURE END LIST*
D10*
%TO.P,BT1,2,-*%
%TO.N,GND*%
X78100000Y-115500000D03*
D11*
%TO.P,BT1,1,+*%
%TO.N,+BATT*%
X65200000Y-115500000D03*
%TO.N,N/C*%
X91000000Y-115500000D03*
%TD*%
D12*
%TO.P,R4,1*%
%TO.N,Vdrive*%
X97500000Y-104500000D03*
%TO.P,R4,2*%
%TO.N,Net-(D4-A)*%
X97500000Y-94340000D03*
%TD*%
%TO.P,R3,1*%
%TO.N,Vdrive*%
X86000000Y-91000000D03*
%TO.P,R3,2*%
%TO.N,Net-(D3-A)*%
X86000000Y-80840000D03*
%TD*%
%TO.P,R2,1*%
%TO.N,Vdrive*%
X71000000Y-91000000D03*
%TO.P,R2,2*%
%TO.N,Net-(D2-A)*%
X71000000Y-80840000D03*
%TD*%
%TO.P,R1,1*%
%TO.N,Vdrive*%
X60000000Y-104580000D03*
%TO.P,R1,2*%
%TO.N,Net-(D1-A)*%
X60000000Y-94420000D03*
%TD*%
D13*
%TO.P,SW1,1*%
%TO.N,VCC*%
X53255737Y-108739102D03*
%TO.P,SW1,2*%
%TO.N,Net-(U1-Q)*%
X52255737Y-107007051D03*
%TO.P,SW1,3*%
%TO.N,Vdrive*%
X50255737Y-103542949D03*
%TO.P,SW1,4*%
%TO.N,unconnected-(SW1-Pad4)*%
X49255737Y-101810898D03*
%TO.P,SW1,5*%
%TO.N,VCC*%
X50744263Y-110189102D03*
%TO.P,SW1,6*%
%TO.N,Vdrive*%
X49744263Y-108457051D03*
%TO.P,SW1,7*%
%TO.N,+BATT*%
X47744263Y-104992949D03*
%TO.P,SW1,8*%
%TO.N,unconnected-(SW1-Pad8)*%
X46744263Y-103260898D03*
%TD*%
D14*
%TO.P,Q2,1,E*%
%TO.N,GND*%
X92550000Y-109770000D03*
D15*
%TO.P,Q2,2,B*%
%TO.N,Net-(Q2-B)*%
X92550000Y-108500000D03*
%TO.P,Q2,3,C*%
%TO.N,Net-(D1-K)*%
X92550000Y-107230000D03*
%TD*%
D16*
%TO.N,Net-(U1-Q)*%
X69050000Y-101450000D03*
%TO.N,VCC*%
X63000000Y-109500000D03*
%TD*%
D17*
%TO.N,GND*%
X91270000Y-109770000D02*
X90000000Y-108500000D01*
X92550000Y-109770000D02*
X91270000Y-109770000D01*
X90000000Y-108500000D02*
X85100000Y-108500000D01*
X85100000Y-108500000D02*
X78100000Y-115500000D01*
%TO.N,+BATT*%
X53000000Y-115500000D02*
X48454799Y-110954799D01*
X65200000Y-115500000D02*
X53000000Y-115500000D01*
%TO.N,Net-(U1-Q)*%
X63492948Y-107007052D02*
X52255737Y-107007052D01*
X69050000Y-101450000D02*
X63492948Y-107007052D01*
%TO.N,Vdrive*%
X59920000Y-104500000D02*
X60000000Y-104580000D01*
X50255737Y-103542949D02*
X51212788Y-104500000D01*
X51212788Y-104500000D02*
X59920000Y-104500000D01*
X97500000Y-102000000D02*
X97500000Y-104500000D01*
X86500000Y-91000000D02*
X97500000Y-102000000D01*
X86000000Y-91000000D02*
X86500000Y-91000000D01*
X60000000Y-102000000D02*
X71000000Y-91000000D01*
X60000000Y-104580000D02*
X60000000Y-102000000D01*
%TO.N,+BATT*%
X47744263Y-109844193D02*
X47744263Y-104992948D01*
X48038475Y-110326720D02*
X47744263Y-109844193D01*
X48454799Y-110954799D02*
X48038475Y-110326720D01*
%TO.N,Vdrive*%
X71000000Y-91000000D02*
X86000000Y-91000000D01*
%TO.N,VCC*%
X50810899Y-110189101D02*
X53255737Y-108739102D01*
X50744263Y-110189101D02*
X50810899Y-110189101D01*
X61739102Y-108739102D02*
X53255737Y-108739102D01*
X62500000Y-109500000D02*
X61739102Y-108739102D01*
X63000000Y-109500000D02*
X62500000Y-109500000D01*
%TO.N,Vdrive*%
X49744263Y-104054423D02*
X50255737Y-103542949D01*
X49744263Y-108457051D02*
X49744263Y-104054423D01*
%TD*%
%TA.AperFunction,NonConductor*%
G36*
X58781593Y-105470185D02*
G01*
X58814871Y-105501614D01*
X58834824Y-105529076D01*
X58855483Y-105557510D01*
X59022490Y-105724517D01*
X59170750Y-105832235D01*
X59213415Y-105887564D01*
X59219394Y-105957177D01*
X59186788Y-106018972D01*
X59125949Y-106053330D01*
X59097864Y-106056552D01*
X53799860Y-106056552D01*
X53732821Y-106036867D01*
X53692473Y-105994552D01*
X53559741Y-105764652D01*
X53559728Y-105764632D01*
X53536529Y-105730082D01*
X53536527Y-105730079D01*
X53469496Y-105660582D01*
X53437125Y-105598666D01*
X53443367Y-105529076D01*
X53486241Y-105473907D01*
X53552136Y-105450676D01*
X53558747Y-105450500D01*
X58714554Y-105450500D01*
X58781593Y-105470185D01*
G37*
%TD.AperFunction*%
%TA.AperFunction,NonConductor*%
G36*
X50834983Y-105377287D02*
G01*
X50836410Y-105377082D01*
X50866214Y-105385258D01*
X50935537Y-105413973D01*
X51119167Y-105450499D01*
X51119171Y-105450500D01*
X51119172Y-105450500D01*
X52087989Y-105450500D01*
X52155028Y-105470185D01*
X52200783Y-105522989D01*
X52210727Y-105592147D01*
X52181702Y-105655703D01*
X52149989Y-105681887D01*
X50880763Y-106414674D01*
X50812863Y-106431147D01*
X50746836Y-106408294D01*
X50703645Y-106353373D01*
X50694763Y-106307287D01*
X50694763Y-105499820D01*
X50704003Y-105468349D01*
X50712121Y-105436546D01*
X50713802Y-105434980D01*
X50714448Y-105432781D01*
X50739230Y-105411307D01*
X50763259Y-105388936D01*
X50765518Y-105388528D01*
X50767252Y-105387026D01*
X50799717Y-105382357D01*
X50832018Y-105376530D01*
X50834983Y-105377287D01*
G37*
%TD.AperFunction*%
%TA.AperFunction,NonConductor*%
G36*
X72584566Y-50519392D02*
G01*
X72807253Y-50547233D01*
X72826225Y-50551131D01*
X73009783Y-50604074D01*
X73029239Y-50611507D01*
X73183749Y-50685965D01*
X73201879Y-50696688D01*
X73338195Y-50793834D01*
X73353465Y-50806688D01*
X73479271Y-50931229D01*
X73491025Y-50944676D01*
X73609395Y-51101609D01*
X73617838Y-51114370D01*
X73621001Y-51119860D01*
X73728509Y-51306436D01*
X73734284Y-51317765D01*
X73835801Y-51545036D01*
X73839633Y-51554682D01*
X73930716Y-51815184D01*
X73933209Y-51823166D01*
X74011562Y-52107489D01*
X74013703Y-52116586D01*
X74144662Y-52784829D01*
X74145969Y-52792898D01*
X74240888Y-53532784D01*
X74241365Y-53537098D01*
X74315547Y-54336020D01*
X74315594Y-54336539D01*
X74456861Y-55930786D01*
X74456861Y-55930787D01*
X74458073Y-55944474D01*
X74456698Y-55954810D01*
X74463872Y-56009918D01*
X74464097Y-56012457D01*
X74464098Y-56012466D01*
X74468784Y-56065345D01*
X74470552Y-56073276D01*
X74470359Y-56073318D01*
X74474137Y-56088773D01*
X74563085Y-56772012D01*
X74564693Y-56784369D01*
X74563590Y-56799937D01*
X74573174Y-56849505D01*
X74573668Y-56853300D01*
X74579692Y-56899571D01*
X74579696Y-56899585D01*
X74580894Y-56902490D01*
X74588007Y-56926231D01*
X74675043Y-57376388D01*
X74714463Y-57580275D01*
X74714514Y-57580536D01*
X74714514Y-57580537D01*
X74716677Y-57591727D01*
X74716819Y-57592458D01*
X74716748Y-57609338D01*
X74729285Y-57656938D01*
X74730067Y-57660981D01*
X74730071Y-57660998D01*
X74738633Y-57705279D01*
X74740705Y-57709538D01*
X74749107Y-57732194D01*
X74814015Y-57978622D01*
X74814015Y-57978623D01*
X74817258Y-57990936D01*
X74818026Y-58005419D01*
X74833985Y-58054444D01*
X74834892Y-58057888D01*
X74834893Y-58057890D01*
X74847129Y-58104339D01*
X74847133Y-58104351D01*
X74848014Y-58105891D01*
X74858269Y-58129042D01*
X74933856Y-58361230D01*
X74933857Y-58361230D01*
X74937577Y-58372657D01*
X74939685Y-58389918D01*
X74957906Y-58435105D01*
X74959223Y-58439150D01*
X74959223Y-58439152D01*
X74972987Y-58481432D01*
X74972990Y-58481438D01*
X74975921Y-58485947D01*
X74986959Y-58507155D01*
X75076836Y-58730037D01*
X75081031Y-58740441D01*
X75085184Y-58760628D01*
X75105574Y-58801305D01*
X75107466Y-58805997D01*
X75122606Y-58843540D01*
X75122606Y-58843541D01*
X75128257Y-58851050D01*
X75140030Y-58870044D01*
X75246561Y-59082571D01*
X75246562Y-59082571D01*
X75251201Y-59091826D01*
X75258281Y-59114869D01*
X75280609Y-59150494D01*
X75283258Y-59155778D01*
X75283259Y-59155779D01*
X75295591Y-59180381D01*
X75299457Y-59188092D01*
X75308588Y-59198368D01*
X75320964Y-59214881D01*
X75439038Y-59403272D01*
X75451888Y-59423774D01*
X75462852Y-59449177D01*
X75486733Y-59479369D01*
X75507181Y-59511994D01*
X75520513Y-59524393D01*
X75533319Y-59538266D01*
X75593284Y-59614077D01*
X75686784Y-59732286D01*
X75702435Y-59759006D01*
X75727485Y-59783744D01*
X75732204Y-59789710D01*
X75732204Y-59789711D01*
X75749330Y-59811361D01*
X75767231Y-59824684D01*
X75780329Y-59835930D01*
X75914634Y-59968561D01*
X75958941Y-60012316D01*
X75979573Y-60038759D01*
X76005626Y-60058419D01*
X76011488Y-60064208D01*
X76011489Y-60064209D01*
X76028850Y-60081354D01*
X76051021Y-60093969D01*
X76064386Y-60102760D01*
X76251198Y-60243730D01*
X76258311Y-60249097D01*
X76258311Y-60249098D01*
X76265569Y-60254575D01*
X76286061Y-60275373D01*
X76317933Y-60294090D01*
X76323652Y-60298406D01*
X76347449Y-60316362D01*
X76347453Y-60316365D01*
X76352037Y-60318221D01*
X76366095Y-60323912D01*
X76382359Y-60331926D01*
X76530258Y-60418782D01*
X76531115Y-60419285D01*
X76539515Y-60424218D01*
X76556727Y-60438824D01*
X76596115Y-60457457D01*
X76610139Y-60465693D01*
X76633687Y-60479523D01*
X76645095Y-60482670D01*
X76665147Y-60490115D01*
X76697290Y-60505321D01*
X76825105Y-60565788D01*
X76842142Y-60577976D01*
X76884444Y-60593860D01*
X76889076Y-60596051D01*
X76889077Y-60596052D01*
X76925292Y-60613185D01*
X76925295Y-60613185D01*
X76925296Y-60613186D01*
X76934952Y-60614943D01*
X76956326Y-60620850D01*
X77123059Y-60683457D01*
X77139820Y-60693589D01*
X77184535Y-60706540D01*
X77228104Y-60722900D01*
X77236173Y-60723688D01*
X77258608Y-60727995D01*
X77329609Y-60748560D01*
X77419728Y-60774662D01*
X77419727Y-60774662D01*
X77429733Y-60777560D01*
X77431007Y-60777929D01*
X77447488Y-60786317D01*
X77494085Y-60796199D01*
X77522613Y-60804462D01*
X77539825Y-60809448D01*
X77539826Y-60809448D01*
X77539830Y-60809449D01*
X77546575Y-60809584D01*
X77569797Y-60812256D01*
X77746732Y-60849781D01*
X77762998Y-60856679D01*
X77810967Y-60863404D01*
X77858363Y-60873456D01*
X77864083Y-60873153D01*
X77887833Y-60874180D01*
X78068124Y-60899457D01*
X78084290Y-60905060D01*
X78133161Y-60908575D01*
X78181687Y-60915379D01*
X78186675Y-60914764D01*
X78210721Y-60914155D01*
X78393151Y-60927279D01*
X78409359Y-60931718D01*
X78458651Y-60931991D01*
X78486018Y-60933959D01*
X78507828Y-60935529D01*
X78507829Y-60935528D01*
X78507832Y-60935529D01*
X78512389Y-60934652D01*
X78536496Y-60932421D01*
X78719817Y-60933437D01*
X78736233Y-60936787D01*
X78785494Y-60933801D01*
X78834847Y-60934075D01*
X78839279Y-60932913D01*
X78863200Y-60929091D01*
X79046149Y-60918005D01*
X79062947Y-60920277D01*
X79111722Y-60914031D01*
X79160782Y-60911058D01*
X79165349Y-60909532D01*
X79188870Y-60904151D01*
X79370196Y-60880932D01*
X79387553Y-60882077D01*
X79435340Y-60872590D01*
X79483662Y-60866403D01*
X79488639Y-60864361D01*
X79511535Y-60857464D01*
X79689980Y-60822042D01*
X79708070Y-60821942D01*
X79754385Y-60809257D01*
X79801497Y-60799905D01*
X79807106Y-60797141D01*
X79829137Y-60788783D01*
X80003506Y-60741027D01*
X80022506Y-60739491D01*
X80066847Y-60723680D01*
X80071345Y-60722448D01*
X80071346Y-60722448D01*
X80112228Y-60711252D01*
X80112230Y-60711250D01*
X80112233Y-60711250D01*
X80118668Y-60707486D01*
X80139608Y-60697734D01*
X80199171Y-60676496D01*
X93852429Y-60676496D01*
X93852664Y-60677499D01*
X93853743Y-60677607D01*
X93852939Y-60685692D01*
X93854552Y-60736245D01*
X93854597Y-60742320D01*
X93853731Y-60792893D01*
X93854653Y-60800967D01*
X93853244Y-60801127D01*
X93854163Y-60830047D01*
X93855598Y-60830120D01*
X93855189Y-60838238D01*
X93859270Y-60888736D01*
X93859348Y-60889753D01*
X93859530Y-60892265D01*
X93861227Y-60945420D01*
X93864066Y-60954809D01*
X93865063Y-60968551D01*
X93863018Y-60977994D01*
X93863325Y-60981793D01*
X93864848Y-60981796D01*
X93864833Y-60989924D01*
X93871367Y-61040251D01*
X93871505Y-61041354D01*
X93871799Y-61043794D01*
X93876084Y-61096812D01*
X93879283Y-61105787D01*
X93880942Y-61119528D01*
X93879351Y-61129053D01*
X93879791Y-61132447D01*
X93881386Y-61132373D01*
X93881763Y-61140489D01*
X93890730Y-61190515D01*
X93890933Y-61191682D01*
X93891339Y-61194084D01*
X93898188Y-61246821D01*
X93901728Y-61255411D01*
X93904049Y-61269110D01*
X93902912Y-61278714D01*
X93903455Y-61281742D01*
X93905111Y-61281586D01*
X93905877Y-61289674D01*
X93917255Y-61339290D01*
X93917527Y-61340504D01*
X93918036Y-61342833D01*
X93927423Y-61395190D01*
X93931292Y-61403427D01*
X93934270Y-61417038D01*
X93933592Y-61426677D01*
X93934223Y-61429429D01*
X93935917Y-61429187D01*
X93937070Y-61437231D01*
X93950819Y-61486274D01*
X93951162Y-61487522D01*
X93951769Y-61489780D01*
X93963669Y-61541665D01*
X93967862Y-61549579D01*
X93971493Y-61563071D01*
X93971273Y-61572710D01*
X93971987Y-61575254D01*
X93973700Y-61574925D01*
X93975237Y-61582910D01*
X93991323Y-61631271D01*
X93991735Y-61632529D01*
X93992437Y-61634718D01*
X94006817Y-61686006D01*
X94011333Y-61693624D01*
X94015608Y-61706949D01*
X94015847Y-61716593D01*
X94016635Y-61718961D01*
X94018357Y-61718544D01*
X94020273Y-61726445D01*
X94020273Y-61726447D01*
X94020274Y-61726448D01*
X94038689Y-61774091D01*
X94039133Y-61775258D01*
X94039933Y-61777397D01*
X94056753Y-61827961D01*
X94061599Y-61835311D01*
X94066507Y-61848430D01*
X94067204Y-61858050D01*
X94068084Y-61860328D01*
X94069795Y-61859826D01*
X94072083Y-61867620D01*
X94092714Y-61914250D01*
X94094976Y-61919713D01*
X94113366Y-61967290D01*
X94117260Y-61974422D01*
X94117006Y-61974560D01*
X94122994Y-61984805D01*
X94128799Y-61997551D01*
X94130570Y-62006174D01*
X94154423Y-62053809D01*
X94155375Y-62055899D01*
X94155386Y-62055980D01*
X94155912Y-62057095D01*
X94176554Y-62103751D01*
X94176555Y-62103752D01*
X94176556Y-62103754D01*
X94180785Y-62110692D01*
X94179266Y-62111617D01*
X94190969Y-62134981D01*
X94192613Y-62134323D01*
X94195635Y-62141865D01*
X94220612Y-62186305D01*
X94223390Y-62191537D01*
X94246204Y-62237096D01*
X94250763Y-62243829D01*
X94249311Y-62244811D01*
X94262219Y-62267771D01*
X94263805Y-62267046D01*
X94267187Y-62274439D01*
X94294240Y-62317597D01*
X94297270Y-62322698D01*
X94322223Y-62367094D01*
X94327097Y-62373599D01*
X94325725Y-62374626D01*
X94339887Y-62397209D01*
X94341398Y-62396428D01*
X94345128Y-62403645D01*
X94374207Y-62445427D01*
X94377487Y-62450390D01*
X94390842Y-62471694D01*
X94404506Y-62493492D01*
X94409683Y-62499753D01*
X94408401Y-62500812D01*
X94423866Y-62523025D01*
X94425291Y-62522200D01*
X94429362Y-62529223D01*
X94429366Y-62529228D01*
X94460384Y-62569504D01*
X94463906Y-62574313D01*
X94485421Y-62605227D01*
X94492941Y-62616032D01*
X94492943Y-62616034D01*
X94498416Y-62622040D01*
X94498256Y-62622185D01*
X94507181Y-62631435D01*
X94515722Y-62642323D01*
X94519808Y-62650934D01*
X94554250Y-62691433D01*
X94555783Y-62693387D01*
X94555809Y-62693453D01*
X94556464Y-62694262D01*
X94587432Y-62734471D01*
X94593189Y-62740208D01*
X94592110Y-62741290D01*
X94610387Y-62762773D01*
X94611614Y-62761893D01*
X94616355Y-62768498D01*
X94651021Y-62805449D01*
X94655047Y-62809955D01*
X94687872Y-62848551D01*
X94693900Y-62854002D01*
X94693802Y-62854110D01*
X94704230Y-62863021D01*
X94713679Y-62872945D01*
X94718899Y-62881639D01*
X94757131Y-62918584D01*
X94758902Y-62920444D01*
X94758931Y-62920502D01*
X94759529Y-62921108D01*
X94794149Y-62958010D01*
X94800438Y-62963163D01*
X94800371Y-62963244D01*
X94811636Y-62971963D01*
X94821495Y-62981370D01*
X94827344Y-62990105D01*
X94867339Y-63025111D01*
X94869271Y-63026954D01*
X94869298Y-63027002D01*
X94869840Y-63027500D01*
X94906151Y-63062589D01*
X94912682Y-63067425D01*
X94912648Y-63067470D01*
X94924820Y-63075979D01*
X94935051Y-63084840D01*
X94941575Y-63093609D01*
X94983265Y-63126596D01*
X94985340Y-63128393D01*
X94985366Y-63128433D01*
X94985829Y-63128819D01*
X95023756Y-63162015D01*
X95030516Y-63166522D01*
X95029898Y-63167448D01*
X95054779Y-63187129D01*
X95055526Y-63186329D01*
X95061467Y-63191869D01*
X95102448Y-63221097D01*
X95107387Y-63224808D01*
X95146843Y-63256027D01*
X95146846Y-63256028D01*
X95153821Y-63260195D01*
X95153315Y-63261040D01*
X95180065Y-63280112D01*
X95180689Y-63279373D01*
X95186899Y-63284607D01*
X95186902Y-63284610D01*
X95186904Y-63284611D01*
X95186905Y-63284612D01*
X95229212Y-63311695D01*
X95234360Y-63315175D01*
X95275268Y-63344351D01*
X95278461Y-63346048D01*
X95297762Y-63355683D01*
X95308910Y-63362802D01*
X95317733Y-63371545D01*
X95363962Y-63397957D01*
X95366125Y-63399338D01*
X95366518Y-63399590D01*
X95366525Y-63399598D01*
X95366629Y-63399661D01*
X95408894Y-63426718D01*
X95410332Y-63427392D01*
X95432399Y-63437061D01*
X95432762Y-63437268D01*
X95452632Y-63451584D01*
X95453814Y-63452391D01*
X95498528Y-63475025D01*
X95504035Y-63477989D01*
X95547563Y-63502860D01*
X95547568Y-63502861D01*
X95548885Y-63503400D01*
X95571701Y-63512065D01*
X95573283Y-63512866D01*
X95593918Y-63526216D01*
X95594984Y-63526868D01*
X95594988Y-63526871D01*
X95640773Y-63547205D01*
X95646430Y-63549892D01*
X95691117Y-63572513D01*
X95692291Y-63572925D01*
X95715694Y-63580482D01*
X95718648Y-63581794D01*
X95739888Y-63594057D01*
X95741028Y-63594677D01*
X95741035Y-63594682D01*
X95790727Y-63613808D01*
X95839374Y-63635415D01*
X95852047Y-63637410D01*
X95864316Y-63642132D01*
X95864320Y-63642135D01*
X95864331Y-63642138D01*
X95865873Y-63642731D01*
X95867349Y-63643300D01*
X95889257Y-63654513D01*
X95890347Y-63655036D01*
X95890353Y-63655040D01*
X95929789Y-63667969D01*
X95937939Y-63670641D01*
X95943849Y-63672745D01*
X95990596Y-63690738D01*
X95990601Y-63690738D01*
X95991824Y-63691033D01*
X96015872Y-63696191D01*
X96017558Y-63696744D01*
X96039831Y-63706757D01*
X96041109Y-63707293D01*
X96041110Y-63707294D01*
X96089495Y-63720492D01*
X96095440Y-63722276D01*
X96113182Y-63728093D01*
X96143082Y-63737897D01*
X96144429Y-63738150D01*
X96168461Y-63742033D01*
X96168851Y-63742139D01*
X96191441Y-63750942D01*
X96193000Y-63751505D01*
X96193003Y-63751507D01*
X96242840Y-63762441D01*
X96245121Y-63762944D01*
X96296479Y-63776954D01*
X96308894Y-63777009D01*
X96321810Y-63779858D01*
X96330391Y-63784575D01*
X96337712Y-63786182D01*
X96337959Y-63785375D01*
X96345736Y-63787753D01*
X96395777Y-63796129D01*
X96398486Y-63796590D01*
X96450460Y-63807994D01*
X96462331Y-63807449D01*
X96475476Y-63809685D01*
X96484246Y-63813965D01*
X96490877Y-63815076D01*
X96491118Y-63814122D01*
X96498993Y-63816107D01*
X96498995Y-63816107D01*
X96498997Y-63816108D01*
X96549077Y-63821943D01*
X96549486Y-63821993D01*
X96552309Y-63822333D01*
X96604734Y-63831110D01*
X96616059Y-63830019D01*
X96629404Y-63831629D01*
X96638341Y-63835466D01*
X96644321Y-63836164D01*
X96644539Y-63835074D01*
X96652506Y-63836666D01*
X96652511Y-63836668D01*
X96702949Y-63840022D01*
X96703459Y-63840058D01*
X96706190Y-63840254D01*
X96758990Y-63846408D01*
X96769806Y-63844819D01*
X96783303Y-63845788D01*
X96792416Y-63849189D01*
X96797756Y-63849545D01*
X96797939Y-63848322D01*
X96805973Y-63849520D01*
X96805976Y-63849521D01*
X96856727Y-63850389D01*
X96857254Y-63850400D01*
X96859881Y-63850461D01*
X96912954Y-63853993D01*
X96923269Y-63851951D01*
X96936890Y-63852271D01*
X96946131Y-63855222D01*
X96950905Y-63855304D01*
X96951038Y-63853968D01*
X96959114Y-63854769D01*
X96959124Y-63854772D01*
X97009701Y-63853157D01*
X97010590Y-63853132D01*
X97013168Y-63853068D01*
X97066332Y-63853980D01*
X97076172Y-63851522D01*
X97089874Y-63851186D01*
X97099251Y-63853691D01*
X97103477Y-63853556D01*
X97103550Y-63852113D01*
X97111663Y-63852521D01*
X97111666Y-63852520D01*
X97111668Y-63852521D01*
X97162330Y-63848426D01*
X97163184Y-63848361D01*
X97165680Y-63848179D01*
X97218853Y-63846484D01*
X97228246Y-63843642D01*
X97241990Y-63842646D01*
X97251461Y-63844696D01*
X97255228Y-63844392D01*
X97255231Y-63842862D01*
X97263352Y-63842875D01*
X97263360Y-63842877D01*
X97313776Y-63836329D01*
X97314786Y-63836203D01*
X97317209Y-63835910D01*
X97370245Y-63831625D01*
X97379227Y-63828422D01*
X97392965Y-63826764D01*
X97402529Y-63828361D01*
X97405873Y-63827927D01*
X97405799Y-63826321D01*
X97413915Y-63825942D01*
X97413924Y-63825943D01*
X97464157Y-63816937D01*
X97465099Y-63816773D01*
X97467441Y-63816376D01*
X97520257Y-63809518D01*
X97528854Y-63805974D01*
X97542547Y-63803655D01*
X97552183Y-63804795D01*
X97555166Y-63804261D01*
X97555008Y-63802595D01*
X97563099Y-63801827D01*
X97563099Y-63801826D01*
X97563105Y-63801827D01*
X97612863Y-63790414D01*
X97613931Y-63790176D01*
X97616209Y-63789677D01*
X97668626Y-63780281D01*
X97676862Y-63776411D01*
X97690479Y-63773433D01*
X97700141Y-63774113D01*
X97702862Y-63773489D01*
X97702619Y-63771788D01*
X97710660Y-63770634D01*
X97710665Y-63770634D01*
X97759878Y-63756835D01*
X97760952Y-63756540D01*
X97763174Y-63755941D01*
X97815097Y-63744034D01*
X97823014Y-63739838D01*
X97836507Y-63736207D01*
X97846191Y-63736427D01*
X97848689Y-63735726D01*
X97848357Y-63734002D01*
X97856338Y-63732465D01*
X97904699Y-63716376D01*
X97905968Y-63715961D01*
X97908136Y-63715265D01*
X97959439Y-63700882D01*
X97967055Y-63696365D01*
X97980382Y-63692091D01*
X97990054Y-63691851D01*
X97992400Y-63691070D01*
X97991981Y-63689342D01*
X97999875Y-63687427D01*
X97999876Y-63687426D01*
X97999880Y-63687426D01*
X98047550Y-63668997D01*
X98048719Y-63668554D01*
X98050849Y-63667757D01*
X98101393Y-63650944D01*
X98108742Y-63646097D01*
X98121860Y-63641190D01*
X98131516Y-63640489D01*
X98133754Y-63639624D01*
X98133249Y-63637904D01*
X98141047Y-63635612D01*
X98141054Y-63635612D01*
X98187712Y-63614967D01*
X98193150Y-63612716D01*
X98193251Y-63612677D01*
X98240719Y-63594329D01*
X98240725Y-63594323D01*
X98247855Y-63590432D01*
X98247994Y-63590687D01*
X98258237Y-63584699D01*
X98270981Y-63578894D01*
X98279606Y-63577124D01*
X98327237Y-63553271D01*
X98329304Y-63552330D01*
X98329387Y-63552318D01*
X98330532Y-63551779D01*
X98377180Y-63531140D01*
X98384123Y-63526908D01*
X98384272Y-63527153D01*
X98394270Y-63520649D01*
X98406714Y-63514249D01*
X98415295Y-63512056D01*
X98461723Y-63485959D01*
X98463748Y-63484918D01*
X98463829Y-63484902D01*
X98464919Y-63484323D01*
X98510530Y-63461484D01*
X98510534Y-63461479D01*
X98517264Y-63456924D01*
X98517419Y-63457154D01*
X98527199Y-63450106D01*
X98539303Y-63443134D01*
X98547865Y-63440504D01*
X98593000Y-63412208D01*
X98594993Y-63411061D01*
X98595074Y-63411041D01*
X98596110Y-63410426D01*
X98640525Y-63385463D01*
X98647033Y-63380588D01*
X98647190Y-63380797D01*
X98656778Y-63373170D01*
X98668513Y-63365646D01*
X98677074Y-63362559D01*
X98720757Y-63332155D01*
X98722734Y-63330888D01*
X98722810Y-63330865D01*
X98723795Y-63330215D01*
X98766915Y-63303184D01*
X98766917Y-63303183D01*
X98766919Y-63303180D01*
X98773181Y-63298004D01*
X98774247Y-63299293D01*
X98796454Y-63283833D01*
X98795622Y-63282398D01*
X98802655Y-63278319D01*
X98802659Y-63278318D01*
X98842944Y-63247290D01*
X98847748Y-63243772D01*
X98889459Y-63214743D01*
X98889464Y-63214736D01*
X98895467Y-63209268D01*
X98896550Y-63210457D01*
X98918392Y-63193631D01*
X98917527Y-63192292D01*
X98924343Y-63187884D01*
X98924355Y-63187879D01*
X98963076Y-63154947D01*
X98967646Y-63151248D01*
X99007899Y-63120248D01*
X99007902Y-63120243D01*
X99013639Y-63114487D01*
X99014726Y-63115571D01*
X99036200Y-63097300D01*
X99035317Y-63096070D01*
X99041917Y-63091332D01*
X99041917Y-63091331D01*
X99041920Y-63091330D01*
X99078916Y-63056620D01*
X99083365Y-63052647D01*
X99121972Y-63019814D01*
X99121975Y-63019809D01*
X99127424Y-63013784D01*
X99128493Y-63014751D01*
X99149592Y-62994952D01*
X99148705Y-62993836D01*
X99155065Y-62988779D01*
X99155070Y-62988777D01*
X99190212Y-62952408D01*
X99194545Y-62948138D01*
X99201483Y-62941629D01*
X99231434Y-62913530D01*
X99231439Y-62913521D01*
X99236581Y-62907246D01*
X99236662Y-62907312D01*
X99245387Y-62896039D01*
X99254790Y-62886182D01*
X99263526Y-62880334D01*
X99298533Y-62840334D01*
X99300367Y-62838413D01*
X99300415Y-62838385D01*
X99300914Y-62837843D01*
X99303536Y-62835130D01*
X99336012Y-62801522D01*
X99336014Y-62801516D01*
X99340852Y-62794985D01*
X99340900Y-62795020D01*
X99349400Y-62782858D01*
X99358261Y-62772625D01*
X99367027Y-62766105D01*
X99400030Y-62724393D01*
X99401819Y-62722328D01*
X99401859Y-62722301D01*
X99402218Y-62721870D01*
X99435436Y-62683919D01*
X99435436Y-62683917D01*
X99435438Y-62683916D01*
X99439948Y-62677153D01*
X99440878Y-62677773D01*
X99460547Y-62652907D01*
X99459743Y-62652157D01*
X99465287Y-62646210D01*
X99465286Y-62646210D01*
X99465291Y-62646207D01*
X99494542Y-62605190D01*
X99498186Y-62600340D01*
X99529445Y-62560837D01*
X99529447Y-62560833D01*
X99533611Y-62553863D01*
X99534457Y-62554368D01*
X99553532Y-62527615D01*
X99552790Y-62526990D01*
X99558021Y-62520782D01*
X99558029Y-62520775D01*
X99585143Y-62478417D01*
X99588572Y-62473345D01*
X99617770Y-62432406D01*
X99617772Y-62432401D01*
X99621588Y-62425225D01*
X99622335Y-62425622D01*
X99640707Y-62396915D01*
X99640045Y-62396412D01*
X99644958Y-62389948D01*
X99644963Y-62389944D01*
X99669871Y-62346345D01*
X99673076Y-62341050D01*
X99700135Y-62298783D01*
X99700137Y-62298773D01*
X99700826Y-62297307D01*
X99710493Y-62275247D01*
X99710705Y-62274877D01*
X99724976Y-62255079D01*
X99725803Y-62253867D01*
X99725808Y-62253863D01*
X99749858Y-62206351D01*
X99776277Y-62160112D01*
X99779538Y-62147718D01*
X99786284Y-62134390D01*
X99799621Y-62113778D01*
X99800284Y-62112693D01*
X99800289Y-62112688D01*
X99813220Y-62083574D01*
X99820624Y-62066904D01*
X99821899Y-62064032D01*
X99845929Y-62016562D01*
X99848566Y-62003989D01*
X99853902Y-61991974D01*
X99853904Y-61991972D01*
X99853906Y-61991964D01*
X99855220Y-61989006D01*
X99867458Y-61967819D01*
X99868095Y-61966647D01*
X99868095Y-61966645D01*
X99868098Y-61966642D01*
X99887223Y-61916952D01*
X99908832Y-61868301D01*
X99910827Y-61855629D01*
X99916709Y-61840346D01*
X99927893Y-61818494D01*
X99928450Y-61817333D01*
X99928456Y-61817325D01*
X99944065Y-61769710D01*
X99946165Y-61763818D01*
X99964155Y-61717082D01*
X99964438Y-61715909D01*
X99969604Y-61691811D01*
X99970159Y-61690118D01*
X99980178Y-61667837D01*
X99980710Y-61666569D01*
X99980710Y-61666567D01*
X99980712Y-61666565D01*
X99994729Y-61615179D01*
X100011315Y-61564589D01*
X100012019Y-61551793D01*
X100015545Y-61538865D01*
X100024339Y-61516288D01*
X100024921Y-61514677D01*
X100024924Y-61514672D01*
X100035834Y-61464944D01*
X100036359Y-61462563D01*
X100050372Y-61411196D01*
X100050427Y-61398784D01*
X100053277Y-61385865D01*
X100057998Y-61377277D01*
X100059602Y-61369973D01*
X100058791Y-61369725D01*
X100061167Y-61361955D01*
X100061167Y-61361949D01*
X100061169Y-61361947D01*
X100069519Y-61312066D01*
X100070010Y-61309173D01*
X100081412Y-61257216D01*
X100080867Y-61245349D01*
X100083104Y-61232201D01*
X100087388Y-61223422D01*
X100088498Y-61216801D01*
X100087541Y-61216560D01*
X100089528Y-61208678D01*
X100091301Y-61193461D01*
X100095375Y-61158501D01*
X100095410Y-61158210D01*
X100095750Y-61155383D01*
X100104530Y-61102949D01*
X100103438Y-61091618D01*
X100105048Y-61078273D01*
X100108892Y-61069319D01*
X100109588Y-61063354D01*
X100108493Y-61063135D01*
X100110083Y-61055177D01*
X100110087Y-61055168D01*
X100113455Y-61004528D01*
X100113478Y-61004210D01*
X100113672Y-61001502D01*
X100119828Y-60948684D01*
X100118239Y-60937871D01*
X100119209Y-60924373D01*
X100122612Y-60915256D01*
X100122967Y-60909925D01*
X100121742Y-60909743D01*
X100122941Y-60901705D01*
X100123810Y-60850953D01*
X100123821Y-60850417D01*
X100123882Y-60847788D01*
X100127414Y-60794724D01*
X100125372Y-60784409D01*
X100125693Y-60770793D01*
X100128649Y-60761535D01*
X100128731Y-60756786D01*
X100127390Y-60756653D01*
X100128192Y-60748565D01*
X100128194Y-60748559D01*
X100126580Y-60697992D01*
X100126555Y-60697100D01*
X100126491Y-60694520D01*
X100127404Y-60641351D01*
X100124946Y-60631506D01*
X100124610Y-60617808D01*
X100127116Y-60608426D01*
X100126982Y-60604203D01*
X100125538Y-60604131D01*
X100125946Y-60596014D01*
X100125144Y-60586087D01*
X100121849Y-60545323D01*
X100121786Y-60544487D01*
X100121605Y-60541992D01*
X100119910Y-60488828D01*
X100117068Y-60479432D01*
X100116072Y-60465693D01*
X100118124Y-60456212D01*
X100117821Y-60452452D01*
X100116288Y-60452450D01*
X100116303Y-60444317D01*
X100109767Y-60393988D01*
X100109628Y-60392879D01*
X100109336Y-60390465D01*
X100105052Y-60337433D01*
X100101851Y-60328456D01*
X100100193Y-60314715D01*
X100101789Y-60305154D01*
X100101354Y-60301801D01*
X100099750Y-60301876D01*
X100099372Y-60293759D01*
X100099371Y-60293757D01*
X100099372Y-60293755D01*
X100090391Y-60243661D01*
X100090198Y-60242553D01*
X100089798Y-60240195D01*
X100082948Y-60187424D01*
X100079405Y-60178828D01*
X100077086Y-60165132D01*
X100078225Y-60155505D01*
X100077689Y-60152510D01*
X100076026Y-60152668D01*
X100075258Y-60144576D01*
X100075257Y-60144575D01*
X100075258Y-60144572D01*
X100063856Y-60094859D01*
X100063607Y-60093744D01*
X100063102Y-60091439D01*
X100053713Y-60039054D01*
X100049843Y-60030817D01*
X100046865Y-60017200D01*
X100047544Y-60007544D01*
X100046919Y-60004819D01*
X100045220Y-60005063D01*
X100044066Y-59997017D01*
X100044066Y-59997015D01*
X100030293Y-59947891D01*
X100029975Y-59946734D01*
X100029374Y-59944500D01*
X100017467Y-59892578D01*
X100013272Y-59884661D01*
X100009642Y-59871170D01*
X100009862Y-59861496D01*
X100009159Y-59858988D01*
X100007436Y-59859320D01*
X100005899Y-59851335D01*
X99989806Y-59802959D01*
X99989392Y-59801694D01*
X99988698Y-59799532D01*
X99974318Y-59748239D01*
X99969800Y-59740618D01*
X99965528Y-59727300D01*
X99965287Y-59717622D01*
X99964505Y-59715270D01*
X99962777Y-59715690D01*
X99960862Y-59707793D01*
X99944135Y-59664520D01*
X99942451Y-59660164D01*
X99941992Y-59658956D01*
X99941195Y-59656825D01*
X99924383Y-59606284D01*
X99919536Y-59598933D01*
X99914629Y-59585818D01*
X99913927Y-59576153D01*
X99913063Y-59573915D01*
X99911343Y-59574421D01*
X99909053Y-59566626D01*
X99909051Y-59566622D01*
X99909051Y-59566619D01*
X99888364Y-59519865D01*
X99887873Y-59518736D01*
X99886978Y-59516654D01*
X99867769Y-59466955D01*
X99862578Y-59459845D01*
X99857051Y-59446977D01*
X99855890Y-59437364D01*
X99854917Y-59435163D01*
X99853225Y-59435750D01*
X99850566Y-59428074D01*
X99850565Y-59428068D01*
X99838148Y-59403272D01*
X99827733Y-59382473D01*
X99825210Y-59377120D01*
X99820877Y-59367327D01*
X99804580Y-59330490D01*
X99804577Y-59330486D01*
X99800349Y-59323549D01*
X99801868Y-59322622D01*
X99790170Y-59299261D01*
X99788522Y-59299922D01*
X99785499Y-59292378D01*
X99760519Y-59247932D01*
X99757740Y-59242699D01*
X99750320Y-59227881D01*
X99734928Y-59197143D01*
X99734926Y-59197141D01*
X99734926Y-59197140D01*
X99730372Y-59190413D01*
X99730600Y-59190258D01*
X99723551Y-59180472D01*
X99716578Y-59168365D01*
X99713949Y-59159807D01*
X99685671Y-59114698D01*
X99684514Y-59112688D01*
X99684494Y-59112608D01*
X99683872Y-59111560D01*
X99658912Y-59067151D01*
X99654037Y-59060643D01*
X99654246Y-59060486D01*
X99646617Y-59050895D01*
X99639094Y-59039159D01*
X99636007Y-59030599D01*
X99605598Y-58986905D01*
X99604333Y-58984931D01*
X99604310Y-58984853D01*
X99603663Y-58983874D01*
X99576632Y-58940754D01*
X99571454Y-58934491D01*
X99571638Y-58934338D01*
X99563385Y-58924921D01*
X99555340Y-58913595D01*
X99551768Y-58905013D01*
X99519291Y-58862844D01*
X99517906Y-58860894D01*
X99517880Y-58860820D01*
X99517221Y-58859920D01*
X99499137Y-58833935D01*
X99488194Y-58818211D01*
X99488193Y-58818210D01*
X99482719Y-58812202D01*
X99483904Y-58811121D01*
X99467071Y-58789269D01*
X99465737Y-58790132D01*
X99461326Y-58783308D01*
X99452158Y-58772528D01*
X99428433Y-58744631D01*
X99424681Y-58739996D01*
X99393703Y-58699772D01*
X99393701Y-58699771D01*
X99393701Y-58699770D01*
X99387946Y-58694035D01*
X99389023Y-58692953D01*
X99370750Y-58671471D01*
X99369522Y-58672353D01*
X99364785Y-58665754D01*
X99364783Y-58665751D01*
X99330090Y-58628771D01*
X99326082Y-58624283D01*
X99311682Y-58607351D01*
X99293262Y-58585692D01*
X99293256Y-58585688D01*
X99287235Y-58580243D01*
X99288201Y-58579174D01*
X99268408Y-58558080D01*
X99267294Y-58558967D01*
X99262237Y-58552606D01*
X99262235Y-58552604D01*
X99262234Y-58552602D01*
X99231373Y-58522780D01*
X99225861Y-58517453D01*
X99221598Y-58513126D01*
X99196099Y-58485947D01*
X99186987Y-58476234D01*
X99186982Y-58476231D01*
X99180698Y-58471081D01*
X99181547Y-58470044D01*
X99160153Y-58449371D01*
X99159158Y-58450246D01*
X99153793Y-58444141D01*
X99149526Y-58440406D01*
X99115752Y-58410845D01*
X99111298Y-58406749D01*
X99074983Y-58371656D01*
X99074980Y-58371654D01*
X99068451Y-58366819D01*
X99069185Y-58365827D01*
X99046094Y-58345619D01*
X99045221Y-58346468D01*
X99039559Y-58340635D01*
X99039557Y-58340634D01*
X99039557Y-58340633D01*
X99000029Y-58309356D01*
X98995311Y-58305429D01*
X98993526Y-58303867D01*
X98969704Y-58283016D01*
X98957375Y-58272225D01*
X98950615Y-58267718D01*
X98950617Y-58267714D01*
X98937473Y-58259451D01*
X98926904Y-58251156D01*
X98919663Y-58242373D01*
X98876374Y-58211499D01*
X98874131Y-58209739D01*
X98874108Y-58209706D01*
X98873745Y-58209434D01*
X98834292Y-58178217D01*
X98834291Y-58178216D01*
X98834288Y-58178214D01*
X98834284Y-58178212D01*
X98827313Y-58174048D01*
X98827816Y-58173204D01*
X98801068Y-58154132D01*
X98800446Y-58154871D01*
X98794227Y-58149630D01*
X98751908Y-58122539D01*
X98746762Y-58119060D01*
X98705868Y-58089894D01*
X98698689Y-58086078D01*
X98699083Y-58085335D01*
X98670373Y-58066959D01*
X98669873Y-58067618D01*
X98663403Y-58062700D01*
X98663400Y-58062698D01*
X98646902Y-58053272D01*
X98619818Y-58037797D01*
X98614482Y-58034567D01*
X98583339Y-58014631D01*
X98572239Y-58007525D01*
X98572238Y-58007524D01*
X98572237Y-58007524D01*
X98570752Y-58006827D01*
X98548637Y-57997126D01*
X98548273Y-57996918D01*
X98528487Y-57982650D01*
X98527320Y-57981853D01*
X98527319Y-57981852D01*
X98484279Y-57960065D01*
X98482598Y-57959214D01*
X98477087Y-57956247D01*
X98476481Y-57955901D01*
X98433570Y-57931383D01*
X98432251Y-57930844D01*
X98409401Y-57922162D01*
X98407822Y-57921362D01*
X98387173Y-57908001D01*
X98386144Y-57907371D01*
X98340367Y-57887038D01*
X98340367Y-57887039D01*
X98337493Y-57885762D01*
X98290019Y-57861731D01*
X98277449Y-57859093D01*
X98265439Y-57853759D01*
X98265438Y-57853758D01*
X98262494Y-57852451D01*
X98241244Y-57840184D01*
X98240096Y-57839559D01*
X98193339Y-57821562D01*
X98187574Y-57819174D01*
X98151271Y-57803051D01*
X98141754Y-57798824D01*
X98140572Y-57798475D01*
X98116819Y-57792110D01*
X98113804Y-57790950D01*
X98091911Y-57779746D01*
X98090783Y-57779204D01*
X98090781Y-57779203D01*
X98090778Y-57779202D01*
X98090776Y-57779201D01*
X98043178Y-57763595D01*
X98043178Y-57763594D01*
X98040161Y-57762604D01*
X97990535Y-57743505D01*
X97977769Y-57742150D01*
X97965325Y-57738071D01*
X97965323Y-57738071D01*
X97963634Y-57737518D01*
X97941356Y-57727508D01*
X97940025Y-57726950D01*
X97940024Y-57726949D01*
X97940023Y-57726949D01*
X97921244Y-57721826D01*
X97891650Y-57713752D01*
X97891650Y-57713751D01*
X97888604Y-57712920D01*
X97838046Y-57696346D01*
X97825251Y-57695641D01*
X97812566Y-57692181D01*
X97812532Y-57692159D01*
X97812424Y-57692142D01*
X97812018Y-57692031D01*
X97789616Y-57683273D01*
X97788127Y-57682735D01*
X97739092Y-57671975D01*
X97738965Y-57671947D01*
X97735972Y-57671287D01*
X97684654Y-57657289D01*
X97672243Y-57657232D01*
X97659322Y-57654383D01*
X97650759Y-57649675D01*
X97643417Y-57648063D01*
X97643172Y-57648867D01*
X97635401Y-57646491D01*
X97635398Y-57646490D01*
X97635397Y-57646490D01*
X97585801Y-57638186D01*
X97585518Y-57638139D01*
X97582624Y-57637646D01*
X97530672Y-57626249D01*
X97518803Y-57626792D01*
X97505658Y-57624557D01*
X97496897Y-57620281D01*
X97490252Y-57619167D01*
X97490012Y-57620120D01*
X97482126Y-57618132D01*
X97432141Y-57612307D01*
X97431654Y-57612250D01*
X97428831Y-57611909D01*
X97376400Y-57603133D01*
X97365066Y-57604222D01*
X97351731Y-57602615D01*
X97342795Y-57598778D01*
X97336811Y-57598079D01*
X97336594Y-57599169D01*
X97328622Y-57597575D01*
X97278325Y-57594229D01*
X97277682Y-57594185D01*
X97274926Y-57593987D01*
X97222140Y-57587836D01*
X97211326Y-57589423D01*
X97197831Y-57588455D01*
X97188732Y-57585059D01*
X97183375Y-57584701D01*
X97183194Y-57585921D01*
X97175158Y-57584722D01*
X97124683Y-57583858D01*
X97123896Y-57583842D01*
X97121219Y-57583779D01*
X97068180Y-57580251D01*
X97057865Y-57582291D01*
X97044248Y-57581972D01*
X97035012Y-57579022D01*
X97030235Y-57578940D01*
X97030103Y-57580275D01*
X97022016Y-57579472D01*
X97022015Y-57579472D01*
X96988851Y-57580530D01*
X96971454Y-57581085D01*
X96970543Y-57581111D01*
X96967964Y-57581174D01*
X96914803Y-57580264D01*
X96904960Y-57582720D01*
X96891261Y-57583057D01*
X96881916Y-57580560D01*
X96877647Y-57580696D01*
X96877575Y-57582130D01*
X96869461Y-57581721D01*
X96818968Y-57585802D01*
X96817954Y-57585880D01*
X96815442Y-57586062D01*
X96762285Y-57587759D01*
X96752884Y-57590601D01*
X96739150Y-57591598D01*
X96729691Y-57589550D01*
X96725902Y-57589856D01*
X96725900Y-57591382D01*
X96717775Y-57591367D01*
X96717774Y-57591367D01*
X96717771Y-57591367D01*
X96667433Y-57597903D01*
X96666333Y-57598041D01*
X96663889Y-57598335D01*
X96610886Y-57602620D01*
X96601908Y-57605820D01*
X96588170Y-57607479D01*
X96578638Y-57605887D01*
X96575257Y-57606326D01*
X96575332Y-57607923D01*
X96567214Y-57608301D01*
X96567213Y-57608301D01*
X96567211Y-57608301D01*
X96517120Y-57617280D01*
X96516033Y-57617469D01*
X96513655Y-57617871D01*
X96460878Y-57624726D01*
X96452284Y-57628267D01*
X96438586Y-57630588D01*
X96428985Y-57629451D01*
X96425954Y-57629994D01*
X96426111Y-57631650D01*
X96418027Y-57632416D01*
X96368419Y-57643794D01*
X96367199Y-57644067D01*
X96364882Y-57644573D01*
X96312510Y-57653963D01*
X96304271Y-57657833D01*
X96290659Y-57660811D01*
X96281024Y-57660133D01*
X96278269Y-57660765D01*
X96278512Y-57662458D01*
X96270473Y-57663610D01*
X96221451Y-57677355D01*
X96220199Y-57677699D01*
X96217939Y-57678307D01*
X96166034Y-57690212D01*
X96158119Y-57694405D01*
X96144628Y-57698036D01*
X96134968Y-57697816D01*
X96132443Y-57698524D01*
X96132774Y-57700242D01*
X96124794Y-57701778D01*
X96076412Y-57717872D01*
X96075154Y-57718283D01*
X96072919Y-57718999D01*
X96021699Y-57733361D01*
X96014080Y-57737876D01*
X96000758Y-57742151D01*
X95991116Y-57742390D01*
X95988736Y-57743181D01*
X95989154Y-57744901D01*
X95981252Y-57746818D01*
X95933694Y-57765201D01*
X95932441Y-57765678D01*
X95930287Y-57766483D01*
X95879742Y-57783299D01*
X95872390Y-57788145D01*
X95859275Y-57793053D01*
X95849650Y-57793751D01*
X95847378Y-57794629D01*
X95847881Y-57796341D01*
X95840086Y-57798630D01*
X95840084Y-57798630D01*
X95840083Y-57798631D01*
X95818283Y-57808276D01*
X95793445Y-57819265D01*
X95787987Y-57821526D01*
X95740410Y-57839917D01*
X95733287Y-57843808D01*
X95732434Y-57842247D01*
X95708620Y-57852783D01*
X95709202Y-57854462D01*
X95701522Y-57857121D01*
X95655924Y-57879955D01*
X95650577Y-57882474D01*
X95603954Y-57903102D01*
X95597014Y-57907334D01*
X95596866Y-57907092D01*
X95586861Y-57913597D01*
X95574417Y-57919995D01*
X95565844Y-57922188D01*
X95519441Y-57948268D01*
X95517365Y-57949336D01*
X95517282Y-57949351D01*
X95516184Y-57949935D01*
X95470602Y-57972763D01*
X95463869Y-57977322D01*
X95462891Y-57975878D01*
X95439934Y-57988783D01*
X95440656Y-57990361D01*
X95433266Y-57993741D01*
X95390106Y-58020797D01*
X95385005Y-58023827D01*
X95340613Y-58048779D01*
X95334111Y-58053650D01*
X95333086Y-58052282D01*
X95310497Y-58066446D01*
X95311277Y-58067955D01*
X95304061Y-58071685D01*
X95304059Y-58071686D01*
X95304056Y-58071687D01*
X95304054Y-58071689D01*
X95262294Y-58100752D01*
X95257328Y-58104034D01*
X95214221Y-58131059D01*
X95207951Y-58136243D01*
X95207798Y-58136058D01*
X95198384Y-58144309D01*
X95187057Y-58152354D01*
X95178480Y-58155926D01*
X95136330Y-58188386D01*
X95134364Y-58189784D01*
X95134292Y-58189808D01*
X95133392Y-58190468D01*
X95091671Y-58219505D01*
X95085671Y-58224973D01*
X95085527Y-58224815D01*
X95076274Y-58233741D01*
X95065386Y-58242282D01*
X95056781Y-58246366D01*
X95016276Y-58280812D01*
X95014337Y-58282334D01*
X95014269Y-58282361D01*
X95013460Y-58283016D01*
X94973242Y-58313991D01*
X94967504Y-58319750D01*
X94967374Y-58319620D01*
X94958286Y-58329273D01*
X94947870Y-58338278D01*
X94939214Y-58342916D01*
X94900443Y-58379289D01*
X94898525Y-58380948D01*
X94898461Y-58380977D01*
X94897755Y-58381608D01*
X94859164Y-58414429D01*
X94853710Y-58420461D01*
X94852644Y-58419497D01*
X94831548Y-58439294D01*
X94832432Y-58440406D01*
X94826070Y-58445462D01*
X94790912Y-58481846D01*
X94786587Y-58486107D01*
X94749703Y-58520712D01*
X94744550Y-58527003D01*
X94744469Y-58526936D01*
X94735745Y-58538206D01*
X94726341Y-58548061D01*
X94717606Y-58553912D01*
X94682611Y-58593895D01*
X94680768Y-58595827D01*
X94680720Y-58595854D01*
X94680226Y-58596392D01*
X94645124Y-58632719D01*
X94640288Y-58639251D01*
X94640242Y-58639217D01*
X94631731Y-58651392D01*
X94622872Y-58661619D01*
X94614108Y-58668141D01*
X94581141Y-58709804D01*
X94579329Y-58711897D01*
X94579288Y-58711923D01*
X94578907Y-58712381D01*
X94545701Y-58750322D01*
X94541193Y-58757084D01*
X94541188Y-58757081D01*
X94532924Y-58770224D01*
X94524625Y-58780797D01*
X94515847Y-58788036D01*
X94484990Y-58831300D01*
X94483225Y-58833550D01*
X94483195Y-58833571D01*
X94482922Y-58833935D01*
X94451690Y-58873407D01*
X94448561Y-58878645D01*
X94439597Y-58894585D01*
X94431882Y-58905461D01*
X94423105Y-58913471D01*
X94394431Y-58958262D01*
X94392721Y-58960674D01*
X94392701Y-58960689D01*
X94392537Y-58960933D01*
X94363366Y-59001837D01*
X94359551Y-59009014D01*
X94358809Y-59008619D01*
X94340436Y-59037327D01*
X94341093Y-59037827D01*
X94336174Y-59044298D01*
X94311274Y-59087877D01*
X94308047Y-59093209D01*
X94281000Y-59135462D01*
X94280300Y-59136955D01*
X94270638Y-59159000D01*
X94270432Y-59159361D01*
X94256120Y-59179220D01*
X94255327Y-59180381D01*
X94232691Y-59225099D01*
X94232691Y-59225100D01*
X94231276Y-59227893D01*
X94204859Y-59274132D01*
X94201599Y-59286517D01*
X94195669Y-59298233D01*
X94195670Y-59298233D01*
X94194867Y-59299820D01*
X94181489Y-59320504D01*
X94180847Y-59321555D01*
X94160515Y-59367327D01*
X94160516Y-59367328D01*
X94159232Y-59370217D01*
X94135207Y-59417681D01*
X94132570Y-59430246D01*
X94127237Y-59442254D01*
X94125922Y-59445215D01*
X94113658Y-59466460D01*
X94113033Y-59467609D01*
X94095030Y-59514377D01*
X94095031Y-59514378D01*
X94093903Y-59517308D01*
X94072303Y-59565942D01*
X94070307Y-59578610D01*
X94065589Y-59590868D01*
X94065590Y-59590868D01*
X94064428Y-59593888D01*
X94053203Y-59615826D01*
X94052679Y-59616919D01*
X94037072Y-59664519D01*
X94037073Y-59664520D01*
X94036098Y-59667495D01*
X94016981Y-59717164D01*
X94015626Y-59729932D01*
X94011532Y-59742421D01*
X94011530Y-59742423D01*
X94010998Y-59744050D01*
X94000958Y-59766404D01*
X94000423Y-59767680D01*
X93987231Y-59816036D01*
X93987232Y-59816037D01*
X93986408Y-59819058D01*
X93969821Y-59869654D01*
X93969116Y-59882450D01*
X93965655Y-59895136D01*
X93965614Y-59895202D01*
X93965581Y-59895410D01*
X93965472Y-59895806D01*
X93956731Y-59918134D01*
X93956211Y-59919574D01*
X93945462Y-59968561D01*
X93945434Y-59968692D01*
X93944772Y-59971689D01*
X93930764Y-60023048D01*
X93930707Y-60035459D01*
X93927858Y-60048379D01*
X93923152Y-60056937D01*
X93921539Y-60064284D01*
X93922342Y-60064530D01*
X93919965Y-60072298D01*
X93919965Y-60072301D01*
X93916170Y-60094970D01*
X93911667Y-60121866D01*
X93911614Y-60122181D01*
X93911119Y-60125087D01*
X93899724Y-60177026D01*
X93900267Y-60188894D01*
X93898032Y-60202040D01*
X93893759Y-60210793D01*
X93892644Y-60217449D01*
X93893593Y-60217689D01*
X93891607Y-60225568D01*
X93885781Y-60275556D01*
X93885724Y-60276043D01*
X93885384Y-60278855D01*
X93876606Y-60331300D01*
X93877695Y-60342633D01*
X93876088Y-60355969D01*
X93872250Y-60364905D01*
X93871552Y-60370887D01*
X93872642Y-60371105D01*
X93871050Y-60379068D01*
X93871049Y-60379074D01*
X93871049Y-60379076D01*
X93867686Y-60429610D01*
X93867659Y-60430014D01*
X93867462Y-60432746D01*
X93861308Y-60485559D01*
X93862895Y-60496370D01*
X93861926Y-60509868D01*
X93858534Y-60518953D01*
X93858177Y-60524314D01*
X93859394Y-60524496D01*
X93858195Y-60532535D01*
X93857328Y-60583033D01*
X93857312Y-60583814D01*
X93857249Y-60586490D01*
X93853722Y-60639520D01*
X93855761Y-60649828D01*
X93855442Y-60663448D01*
X93852494Y-60672677D01*
X93852429Y-60676496D01*
X80199171Y-60676496D01*
X80308741Y-60637427D01*
X80328763Y-60634181D01*
X80370576Y-60615379D01*
X80413764Y-60599980D01*
X80421161Y-60594871D01*
X80440758Y-60583821D01*
X80593553Y-60515116D01*
X80614107Y-60507969D01*
X80624626Y-60505321D01*
X80658737Y-60486305D01*
X80668221Y-60481541D01*
X80703847Y-60465523D01*
X80712251Y-60458665D01*
X80730260Y-60446437D01*
X80880199Y-60362859D01*
X80896773Y-60357450D01*
X80937562Y-60330884D01*
X80980080Y-60307184D01*
X80983976Y-60303402D01*
X81002653Y-60288489D01*
X81009892Y-60283775D01*
X81028378Y-60274375D01*
X81032462Y-60272171D01*
X81032466Y-60272170D01*
X81073677Y-60242403D01*
X81078597Y-60239028D01*
X81121197Y-60211284D01*
X81121200Y-60211280D01*
X81124725Y-60208263D01*
X81140147Y-60194395D01*
X81152266Y-60185642D01*
X81170296Y-60174821D01*
X81181724Y-60169222D01*
X81214039Y-60141027D01*
X81248793Y-60115926D01*
X81263486Y-60097884D01*
X81427033Y-59955190D01*
X81439884Y-59945379D01*
X81460744Y-59931511D01*
X81477194Y-59912838D01*
X81488707Y-59901380D01*
X81507461Y-59885019D01*
X81521425Y-59864233D01*
X81531297Y-59851431D01*
X81677719Y-59685240D01*
X81701170Y-59665128D01*
X81721090Y-59636014D01*
X81744413Y-59609543D01*
X81754290Y-59589630D01*
X81763035Y-59574711D01*
X81885665Y-59395489D01*
X81904683Y-59375150D01*
X81922720Y-59341334D01*
X81944361Y-59309707D01*
X81950472Y-59292331D01*
X81958031Y-59275133D01*
X82056473Y-59090582D01*
X82059285Y-59085308D01*
X82074177Y-59065935D01*
X82090170Y-59027408D01*
X82109807Y-58990596D01*
X82113012Y-58976792D01*
X82119273Y-58957305D01*
X82129594Y-58932445D01*
X82171493Y-58831517D01*
X82197512Y-58768842D01*
X82201774Y-58758573D01*
X82213161Y-58740901D01*
X82226942Y-58697948D01*
X82228918Y-58693191D01*
X82240309Y-58665752D01*
X82244242Y-58656279D01*
X82245543Y-58646451D01*
X82250397Y-58624856D01*
X82316686Y-58418275D01*
X82325261Y-58402656D01*
X82336751Y-58355746D01*
X82351508Y-58309760D01*
X82351795Y-58303855D01*
X82355207Y-58280397D01*
X82407542Y-58066748D01*
X82413940Y-58053272D01*
X82423173Y-58002936D01*
X82435348Y-57953235D01*
X82435298Y-57950952D01*
X82437303Y-57925907D01*
X82478577Y-57700906D01*
X82484950Y-57684694D01*
X82490426Y-57636315D01*
X82499212Y-57588420D01*
X82498777Y-57583021D01*
X82499162Y-57559128D01*
X82566466Y-56964534D01*
X82571413Y-56949130D01*
X82573853Y-56899270D01*
X82579469Y-56849664D01*
X82578896Y-56845850D01*
X82577667Y-56821359D01*
X82578590Y-56802511D01*
X82607976Y-56202259D01*
X82610880Y-56191663D01*
X82611190Y-56136606D01*
X82613883Y-56081609D01*
X82613881Y-56081603D01*
X82613217Y-56073505D01*
X82613326Y-56073496D01*
X82611637Y-56057270D01*
X82619736Y-54621559D01*
X82625823Y-53895340D01*
X82625930Y-53891152D01*
X82626917Y-53867859D01*
X82654592Y-53214748D01*
X82655178Y-53206886D01*
X82721234Y-52588659D01*
X82722517Y-52579741D01*
X82725319Y-52564272D01*
X82770682Y-52313803D01*
X82772361Y-52305988D01*
X82781589Y-52268879D01*
X82833792Y-52058954D01*
X82836536Y-52049534D01*
X82909949Y-51830354D01*
X82914284Y-51819226D01*
X82998879Y-51629688D01*
X83005441Y-51617007D01*
X83025038Y-51583947D01*
X83100092Y-51457328D01*
X83109478Y-51443671D01*
X83213744Y-51311797D01*
X83226298Y-51298156D01*
X83342029Y-51189899D01*
X83357452Y-51177620D01*
X83490122Y-51088241D01*
X83507356Y-51078532D01*
X83665648Y-51005346D01*
X83683206Y-50998791D01*
X83885134Y-50940376D01*
X83898221Y-50937349D01*
X84028995Y-50914489D01*
X84038731Y-50913182D01*
X84172761Y-50900585D01*
X84182869Y-50900051D01*
X84311181Y-50898507D01*
X84321410Y-50898808D01*
X84445290Y-50907602D01*
X84455474Y-50908751D01*
X84576092Y-50927437D01*
X84585982Y-50929385D01*
X84704592Y-50957814D01*
X84714006Y-50960469D01*
X84831535Y-50998679D01*
X84840318Y-51001906D01*
X84957604Y-51050118D01*
X84965659Y-51053770D01*
X85083162Y-51112208D01*
X85090438Y-51116136D01*
X85208386Y-51184987D01*
X85214894Y-51189060D01*
X85286415Y-51236986D01*
X85333389Y-51268462D01*
X85339120Y-51272543D01*
X85458122Y-51362521D01*
X85463141Y-51366527D01*
X85582405Y-51466898D01*
X85586823Y-51470799D01*
X85706151Y-51581325D01*
X85709992Y-51585040D01*
X85829259Y-51705463D01*
X85832583Y-51708953D01*
X85889948Y-51771582D01*
X85948144Y-51835119D01*
X85952312Y-51839910D01*
X86192411Y-52130619D01*
X86196756Y-52136197D01*
X86430174Y-52454124D01*
X86433420Y-52458763D01*
X86503705Y-52564272D01*
X86653305Y-52788846D01*
X86663471Y-52804106D01*
X86665878Y-52807865D01*
X86892469Y-53176082D01*
X86894227Y-53179029D01*
X87109188Y-53551035D01*
X87117628Y-53565640D01*
X87118869Y-53567839D01*
X87338978Y-53967314D01*
X87340006Y-53969219D01*
X87775222Y-54792781D01*
X87776265Y-54794799D01*
X87877175Y-54994524D01*
X87878239Y-54996682D01*
X87977550Y-55203102D01*
X87978167Y-55204404D01*
X88149681Y-55571759D01*
X88154632Y-55584237D01*
X88179599Y-55636011D01*
X88182151Y-55641303D01*
X88208685Y-55698133D01*
X88210732Y-55700570D01*
X88359921Y-56009941D01*
X88361175Y-56012540D01*
X88365754Y-56025738D01*
X88366342Y-56025525D01*
X88369122Y-56033158D01*
X88395108Y-56083045D01*
X88396003Y-56084764D01*
X88421253Y-56137123D01*
X88426377Y-56143071D01*
X88433019Y-56155821D01*
X88433020Y-56155823D01*
X88476116Y-56238556D01*
X88481254Y-56251965D01*
X88481752Y-56251766D01*
X88484783Y-56259305D01*
X88512085Y-56307752D01*
X88513101Y-56309556D01*
X88539712Y-56360639D01*
X88545367Y-56366807D01*
X88552365Y-56379223D01*
X88552367Y-56379226D01*
X88598369Y-56460853D01*
X88604779Y-56475849D01*
X88604882Y-56475803D01*
X88608236Y-56483205D01*
X88635902Y-56527688D01*
X88638632Y-56532295D01*
X88664366Y-56577958D01*
X88669246Y-56584456D01*
X88669156Y-56584523D01*
X88679226Y-56597346D01*
X88736891Y-56690063D01*
X88741614Y-56703039D01*
X88771591Y-56745855D01*
X88773372Y-56748718D01*
X88799199Y-56790244D01*
X88799858Y-56790861D01*
X88816679Y-56810253D01*
X88870225Y-56886732D01*
X88870225Y-56886733D01*
X88877840Y-56897609D01*
X88882603Y-56908953D01*
X88915513Y-56951418D01*
X88917225Y-56953863D01*
X88917246Y-56953891D01*
X88946362Y-56995477D01*
X88946365Y-56995480D01*
X88948845Y-56998186D01*
X88955002Y-57006230D01*
X88995040Y-57054167D01*
X88997310Y-57056967D01*
X88997559Y-57057283D01*
X89031248Y-57100753D01*
X89032546Y-57101739D01*
X89038352Y-57109116D01*
X89038843Y-57110342D01*
X89041573Y-57113358D01*
X89041574Y-57113359D01*
X89047712Y-57120140D01*
X89077445Y-57152985D01*
X89080680Y-57156705D01*
X89114944Y-57197729D01*
X89114946Y-57197730D01*
X89118792Y-57202335D01*
X89126223Y-57210516D01*
X89127328Y-57211635D01*
X89127329Y-57211637D01*
X89132500Y-57216875D01*
X89164141Y-57248928D01*
X89166693Y-57251591D01*
X89167230Y-57252169D01*
X89202980Y-57291661D01*
X89205434Y-57293245D01*
X89212613Y-57300964D01*
X89213182Y-57302103D01*
X89217079Y-57306037D01*
X89217698Y-57306780D01*
X89217699Y-57306781D01*
X89223715Y-57312333D01*
X89255423Y-57341593D01*
X89259566Y-57345598D01*
X89295642Y-57382144D01*
X89295645Y-57382146D01*
X89296083Y-57382486D01*
X89311157Y-57396352D01*
X89312962Y-57398311D01*
X89312964Y-57398313D01*
X89312966Y-57398315D01*
X89351612Y-57430560D01*
X89354405Y-57432965D01*
X89355359Y-57433811D01*
X89393216Y-57468745D01*
X89396982Y-57470722D01*
X89405893Y-57478624D01*
X89406452Y-57479516D01*
X89410229Y-57482658D01*
X89413395Y-57485748D01*
X89452885Y-57515290D01*
X89458038Y-57519363D01*
X89468687Y-57528248D01*
X89495916Y-57550969D01*
X89499397Y-57553173D01*
X89514562Y-57564484D01*
X89519185Y-57568516D01*
X89551049Y-57589681D01*
X89559103Y-57595031D01*
X89559510Y-57595301D01*
X89562573Y-57597403D01*
X89563906Y-57598347D01*
X89603945Y-57628301D01*
X89609114Y-57630368D01*
X89620095Y-57638146D01*
X89620642Y-57638839D01*
X89624323Y-57641277D01*
X89630475Y-57646039D01*
X89635327Y-57648867D01*
X89671618Y-57670021D01*
X89677772Y-57673854D01*
X89717416Y-57700188D01*
X89717419Y-57700189D01*
X89724715Y-57703763D01*
X89724560Y-57704079D01*
X89729616Y-57706279D01*
X89742186Y-57713130D01*
X89747302Y-57717698D01*
X89790963Y-57739715D01*
X89792715Y-57740670D01*
X89792855Y-57740810D01*
X89795820Y-57742420D01*
X89836372Y-57766059D01*
X89843868Y-57769200D01*
X89843786Y-57769394D01*
X89850632Y-57771921D01*
X89863286Y-57777904D01*
X89869625Y-57782890D01*
X89914440Y-57802089D01*
X89916474Y-57803051D01*
X89916626Y-57803186D01*
X89919275Y-57804420D01*
X89960765Y-57825343D01*
X89960771Y-57825344D01*
X89968434Y-57828022D01*
X89968404Y-57828105D01*
X89977030Y-57830716D01*
X89989771Y-57835844D01*
X89997308Y-57841036D01*
X90043164Y-57857332D01*
X90045538Y-57858288D01*
X90045689Y-57858407D01*
X90048074Y-57859341D01*
X90090472Y-57877506D01*
X90098294Y-57879703D01*
X90097910Y-57881069D01*
X90120079Y-57888996D01*
X90120736Y-57887499D01*
X90128171Y-57890757D01*
X90128172Y-57890757D01*
X90128175Y-57890759D01*
X90173697Y-57903953D01*
X90177824Y-57905229D01*
X90179244Y-57905695D01*
X90225276Y-57922055D01*
X90230287Y-57922454D01*
X90242434Y-57926443D01*
X90243132Y-57926923D01*
X90247141Y-57928094D01*
X90248980Y-57928780D01*
X90248984Y-57928783D01*
X90296292Y-57939685D01*
X90302955Y-57941418D01*
X90334647Y-57950604D01*
X90349545Y-57954922D01*
X90349552Y-57954922D01*
X90350707Y-57955098D01*
X90355378Y-57955901D01*
X90366553Y-57958042D01*
X90369984Y-57959628D01*
X90418992Y-57968091D01*
X90420059Y-57968296D01*
X90420195Y-57968366D01*
X90424538Y-57969240D01*
X90471901Y-57980156D01*
X90471913Y-57980155D01*
X90472339Y-57980197D01*
X90490830Y-57983396D01*
X90490899Y-57983413D01*
X90490903Y-57983415D01*
X90490906Y-57983415D01*
X90490909Y-57983416D01*
X90539310Y-57989060D01*
X90544142Y-57989720D01*
X90545111Y-57989871D01*
X90594079Y-57998329D01*
X90597247Y-57998040D01*
X90607884Y-57999707D01*
X90608646Y-58000066D01*
X90609954Y-58000220D01*
X90611444Y-58000312D01*
X90611448Y-58000314D01*
X90660469Y-58003365D01*
X90667028Y-58003952D01*
X90715795Y-58009640D01*
X90715796Y-58009639D01*
X90716022Y-58009666D01*
X90718914Y-58009676D01*
X90728978Y-58009894D01*
X90731335Y-58010551D01*
X90781658Y-58011041D01*
X90782339Y-58011056D01*
X90782447Y-58011090D01*
X90787335Y-58011266D01*
X90836765Y-58014345D01*
X90836766Y-58014344D01*
X90840657Y-58014587D01*
X90844770Y-58014631D01*
X90850325Y-58014403D01*
X90850327Y-58014404D01*
X90900381Y-58012356D01*
X90905490Y-58012253D01*
X90905978Y-58012253D01*
X90956720Y-58012749D01*
X90958524Y-58012283D01*
X90967135Y-58012289D01*
X90968220Y-58012191D01*
X90968223Y-58012192D01*
X91018790Y-58007659D01*
X91024712Y-58007272D01*
X91075459Y-58005198D01*
X91075465Y-58005196D01*
X91076566Y-58005151D01*
X91084076Y-58004156D01*
X91084854Y-58004255D01*
X91136232Y-57997247D01*
X91136338Y-57997234D01*
X91136374Y-57997239D01*
X91141517Y-57996659D01*
X91192820Y-57992061D01*
X91192824Y-57992059D01*
X91195149Y-57991851D01*
X91200088Y-57990956D01*
X91200094Y-57990957D01*
X91251576Y-57981634D01*
X91256857Y-57980797D01*
X91308676Y-57973731D01*
X91308678Y-57973729D01*
X91309858Y-57973569D01*
X91313904Y-57972663D01*
X91313909Y-57972664D01*
X91365768Y-57961061D01*
X91370633Y-57960077D01*
X91422955Y-57950604D01*
X91422959Y-57950601D01*
X91423760Y-57950457D01*
X91425983Y-57949808D01*
X91426251Y-57949736D01*
X91426254Y-57949737D01*
X91478479Y-57935936D01*
X91482948Y-57934846D01*
X91535669Y-57923053D01*
X91535671Y-57923051D01*
X91537611Y-57922618D01*
X91542559Y-57921617D01*
X91545329Y-57921114D01*
X91545334Y-57921114D01*
X91592647Y-57905940D01*
X91598783Y-57904147D01*
X91646816Y-57891457D01*
X91646933Y-57891389D01*
X91670693Y-57880914D01*
X91734368Y-57860495D01*
X91758766Y-57855307D01*
X91761500Y-57855009D01*
X91805373Y-57837962D01*
X91812393Y-57835475D01*
X91857233Y-57821097D01*
X91859545Y-57819607D01*
X91881773Y-57808277D01*
X91947821Y-57782615D01*
X91970756Y-57776399D01*
X91972644Y-57775836D01*
X91972652Y-57775835D01*
X92021364Y-57754042D01*
X92071090Y-57734722D01*
X92081342Y-57727209D01*
X92156827Y-57693438D01*
X92171877Y-57688618D01*
X92171807Y-57688413D01*
X92179489Y-57685777D01*
X92179497Y-57685776D01*
X92229408Y-57660968D01*
X92280272Y-57638213D01*
X92288272Y-57631710D01*
X92362073Y-57595028D01*
X92375381Y-57590227D01*
X92375174Y-57589681D01*
X92382769Y-57586802D01*
X92382772Y-57586802D01*
X92432053Y-57560315D01*
X92435532Y-57558517D01*
X92453353Y-57549658D01*
X92485643Y-57533610D01*
X92485644Y-57533608D01*
X92492394Y-57529069D01*
X92492721Y-57529555D01*
X92504332Y-57521469D01*
X92564918Y-57488907D01*
X92576925Y-57483259D01*
X92583159Y-57480723D01*
X92583172Y-57480720D01*
X92633975Y-57451829D01*
X92636510Y-57450428D01*
X92688032Y-57422739D01*
X92688041Y-57422730D01*
X92693511Y-57418792D01*
X92704662Y-57411635D01*
X92766668Y-57376375D01*
X92778460Y-57370479D01*
X92784978Y-57367641D01*
X92784987Y-57367639D01*
X92834979Y-57337572D01*
X92837545Y-57336073D01*
X92888188Y-57307276D01*
X92888193Y-57307270D01*
X92893858Y-57302983D01*
X92904786Y-57295591D01*
X93617773Y-56866798D01*
X93618763Y-56866210D01*
X94030147Y-56625161D01*
X94031989Y-56624105D01*
X94235195Y-56510199D01*
X94236900Y-56509263D01*
X94441345Y-56399351D01*
X94443495Y-56398224D01*
X94647680Y-56294031D01*
X94650478Y-56292649D01*
X94690936Y-56273280D01*
X94853941Y-56195246D01*
X94857159Y-56193762D01*
X95059887Y-56103970D01*
X95063639Y-56102385D01*
X95265116Y-56021196D01*
X95269542Y-56019511D01*
X95469503Y-55947747D01*
X95474530Y-55946064D01*
X95672779Y-55884462D01*
X95678457Y-55882847D01*
X95874584Y-55832145D01*
X95881021Y-55830663D01*
X96074962Y-55791442D01*
X96082049Y-55790225D01*
X96273649Y-55763039D01*
X96281428Y-55762186D01*
X96470874Y-55747510D01*
X96479284Y-55747148D01*
X96672634Y-55745416D01*
X96679243Y-55745535D01*
X96766961Y-55749481D01*
X96771519Y-55749771D01*
X96863259Y-55757325D01*
X96868404Y-55757858D01*
X97226604Y-55802495D01*
X97232103Y-55803306D01*
X97595575Y-55865336D01*
X97600969Y-55866381D01*
X97967770Y-55945981D01*
X97973185Y-55947284D01*
X98340302Y-56044443D01*
X98345756Y-56046023D01*
X98709963Y-56160604D01*
X98715565Y-56162513D01*
X98958118Y-56251766D01*
X99073810Y-56294337D01*
X99079595Y-56296632D01*
X99341730Y-56408320D01*
X99428834Y-56445432D01*
X99434840Y-56448182D01*
X99560312Y-56509732D01*
X99772093Y-56613620D01*
X99778352Y-56616915D01*
X100100726Y-56798563D01*
X100107252Y-56802511D01*
X100411870Y-56999811D01*
X100418677Y-57004550D01*
X100702865Y-57216875D01*
X100709905Y-57222546D01*
X100971220Y-57449241D01*
X100978406Y-57455994D01*
X101214601Y-57696345D01*
X101221787Y-57704321D01*
X101435845Y-57963643D01*
X101441096Y-57970474D01*
X101531023Y-58096286D01*
X101534410Y-58101277D01*
X101621138Y-58236013D01*
X101624376Y-58241332D01*
X101703698Y-58379358D01*
X101706741Y-58384987D01*
X101719879Y-58410869D01*
X101776685Y-58522780D01*
X101780141Y-58530185D01*
X101879790Y-58763405D01*
X101883271Y-58772528D01*
X101934625Y-58924921D01*
X101954490Y-58983874D01*
X101961277Y-59004013D01*
X101963973Y-59013166D01*
X102023371Y-59247681D01*
X102025293Y-59256648D01*
X102067235Y-59495138D01*
X102068438Y-59503730D01*
X102093849Y-59746926D01*
X102094426Y-59754993D01*
X102104086Y-60003354D01*
X102104152Y-60010795D01*
X102098783Y-60264651D01*
X102098456Y-60271405D01*
X102078784Y-60530835D01*
X102078176Y-60536879D01*
X102044973Y-60801810D01*
X102044191Y-60807111D01*
X101999182Y-61072163D01*
X101997858Y-61078843D01*
X101870431Y-61640422D01*
X101868679Y-61647240D01*
X101704107Y-62219750D01*
X101702684Y-62224362D01*
X101509084Y-62810864D01*
X101508014Y-62813966D01*
X101096328Y-63958480D01*
X101093348Y-63966762D01*
X101092857Y-63967476D01*
X101071140Y-64028501D01*
X101071097Y-64028622D01*
X101071048Y-64028761D01*
X101047062Y-64095444D01*
X101046020Y-64099091D01*
X100877058Y-64573907D01*
X100872540Y-64586602D01*
X100869469Y-64591275D01*
X100850482Y-64648589D01*
X100850020Y-64649889D01*
X100850012Y-64649913D01*
X100830233Y-64705497D01*
X100829089Y-64710838D01*
X100825552Y-64723846D01*
X100667295Y-65201592D01*
X100662904Y-65214846D01*
X100657972Y-65222999D01*
X100642233Y-65277249D01*
X100624464Y-65330893D01*
X100622938Y-65338874D01*
X100622600Y-65338809D01*
X100620021Y-65353816D01*
X100479561Y-65837992D01*
X100475962Y-65850395D01*
X100469487Y-65862540D01*
X100457658Y-65913488D01*
X100456716Y-65916739D01*
X100456715Y-65916744D01*
X100443081Y-65963745D01*
X100443080Y-65963748D01*
X100443063Y-65964598D01*
X100439877Y-65990082D01*
X100325727Y-66481782D01*
X100323063Y-66493255D01*
X100315625Y-66510025D01*
X100308213Y-66557223D01*
X100307198Y-66561599D01*
X100297412Y-66603752D01*
X100297412Y-66603754D01*
X100297633Y-66610319D01*
X100296202Y-66633723D01*
X100219039Y-67125163D01*
X100217153Y-67137174D01*
X100211365Y-67152977D01*
X100206969Y-67202029D01*
X100206332Y-67206091D01*
X100206331Y-67206102D01*
X100199326Y-67250725D01*
X100199325Y-67250732D01*
X100199821Y-67255384D01*
X100200023Y-67279574D01*
X100184778Y-67449742D01*
X100182974Y-67469882D01*
X100179161Y-67482196D01*
X100177111Y-67535299D01*
X100176829Y-67538453D01*
X100176829Y-67538468D01*
X100172365Y-67588309D01*
X100172407Y-67589307D01*
X100174070Y-67614120D01*
X100167630Y-67781045D01*
X100167093Y-67794963D01*
X100164590Y-67804290D01*
X100164560Y-67860648D01*
X100164469Y-67863008D01*
X100164469Y-67863011D01*
X100162387Y-67916994D01*
X100163136Y-67925085D01*
X100162816Y-67925114D01*
X100164517Y-67940341D01*
X100164449Y-68070425D01*
X100164373Y-68215540D01*
X100163070Y-68220848D01*
X100164337Y-68281291D01*
X100164337Y-68282647D01*
X100164307Y-68341853D01*
X100164975Y-68346951D01*
X100165999Y-68360460D01*
X100171425Y-68618956D01*
X100171425Y-68618957D01*
X100171700Y-68632093D01*
X100170543Y-68637272D01*
X100173079Y-68697850D01*
X100173107Y-68699159D01*
X100173108Y-68699165D01*
X100174355Y-68758542D01*
X100175066Y-68763186D01*
X100176384Y-68776758D01*
X100187217Y-69035429D01*
X100187217Y-69035431D01*
X100187758Y-69048367D01*
X100186739Y-69053406D01*
X100190508Y-69114048D01*
X100190562Y-69115333D01*
X100190563Y-69115350D01*
X100193057Y-69174892D01*
X100193794Y-69179113D01*
X100195399Y-69192725D01*
X100209617Y-69421436D01*
X100212425Y-69466600D01*
X100211170Y-69473891D01*
X100216507Y-69532267D01*
X100216620Y-69534074D01*
X100216620Y-69534075D01*
X100220143Y-69590750D01*
X100221702Y-69598724D01*
X100221012Y-69598858D01*
X100223816Y-69612191D01*
X100284869Y-70279855D01*
X100284869Y-70279856D01*
X100286144Y-70293805D01*
X100284899Y-70303062D01*
X100292129Y-70359268D01*
X100292338Y-70361544D01*
X100297295Y-70415733D01*
X100297296Y-70415740D01*
X100297297Y-70415744D01*
X100299087Y-70423668D01*
X100298721Y-70423750D01*
X100302311Y-70438397D01*
X100388202Y-71105949D01*
X100390009Y-71119989D01*
X100389142Y-71128692D01*
X100398399Y-71185199D01*
X100398675Y-71187337D01*
X100398675Y-71187338D01*
X100405710Y-71242017D01*
X100407792Y-71249879D01*
X100407333Y-71250000D01*
X100411322Y-71264078D01*
X100519988Y-71927346D01*
X100519987Y-71927346D01*
X100522299Y-71941459D01*
X100521751Y-71949614D01*
X100532931Y-72006343D01*
X100533255Y-72008320D01*
X100542284Y-72063426D01*
X100544634Y-72071208D01*
X100544088Y-72071372D01*
X100548416Y-72084909D01*
X100678092Y-72742873D01*
X100678091Y-72742873D01*
X100680881Y-72757032D01*
X100680599Y-72764667D01*
X100693597Y-72821546D01*
X100693966Y-72823417D01*
X100693969Y-72823430D01*
X100704887Y-72878825D01*
X100707486Y-72886524D01*
X100706860Y-72886735D01*
X100711469Y-72899750D01*
X100824194Y-73392995D01*
X100863631Y-73565560D01*
X100863567Y-73572698D01*
X100878289Y-73629698D01*
X100878679Y-73631403D01*
X100878679Y-73631404D01*
X100891401Y-73687074D01*
X100894233Y-73694699D01*
X100893528Y-73694960D01*
X100898379Y-73707481D01*
X101064846Y-74352004D01*
X101064847Y-74352004D01*
X101067797Y-74363425D01*
X101067827Y-74367527D01*
X101084257Y-74427152D01*
X101084498Y-74428084D01*
X101099729Y-74487055D01*
X101100325Y-74488530D01*
X101104881Y-74501997D01*
X101220989Y-74923346D01*
X101278472Y-75131949D01*
X101278537Y-75135191D01*
X101295962Y-75195420D01*
X101296180Y-75196211D01*
X101312744Y-75256318D01*
X101317294Y-75269153D01*
X101497276Y-75891240D01*
X101501174Y-75904713D01*
X101501438Y-75910747D01*
X101519452Y-75967893D01*
X101519873Y-75969346D01*
X101536120Y-76025501D01*
X101538792Y-76031605D01*
X101543457Y-76044038D01*
X101639273Y-76347978D01*
X101742879Y-76676629D01*
X101743311Y-76682928D01*
X101762670Y-76739410D01*
X101763129Y-76740865D01*
X101763129Y-76740867D01*
X101780606Y-76796306D01*
X101783735Y-76803018D01*
X101788647Y-76815201D01*
X101869835Y-77052067D01*
X101874048Y-77064359D01*
X101874508Y-77069520D01*
X101895379Y-77126594D01*
X101895782Y-77127769D01*
X101895793Y-77127799D01*
X101915098Y-77184122D01*
X101917042Y-77188034D01*
X101922450Y-77200618D01*
X102008256Y-77435251D01*
X102008256Y-77435253D01*
X102013027Y-77448300D01*
X102013691Y-77454193D01*
X102035609Y-77510053D01*
X102036091Y-77511370D01*
X102036121Y-77511449D01*
X102055466Y-77564347D01*
X102056255Y-77566502D01*
X102059201Y-77572141D01*
X102064731Y-77584270D01*
X102155613Y-77815882D01*
X102155612Y-77815882D01*
X102160970Y-77829538D01*
X102161895Y-77836169D01*
X102184990Y-77890750D01*
X102185584Y-77892263D01*
X102206659Y-77945973D01*
X102210590Y-77953086D01*
X102209849Y-77953495D01*
X102216351Y-77964867D01*
X102313281Y-78193946D01*
X102318921Y-78207276D01*
X102320171Y-78214645D01*
X102344548Y-78267838D01*
X102345267Y-78269537D01*
X102367360Y-78321750D01*
X102371476Y-78328756D01*
X102370883Y-78329103D01*
X102377984Y-78340800D01*
X102444675Y-78486321D01*
X102487931Y-78580708D01*
X102489579Y-78588815D01*
X102515326Y-78640485D01*
X102531349Y-78675447D01*
X102539387Y-78692987D01*
X102543709Y-78699871D01*
X102543239Y-78700165D01*
X102551030Y-78712137D01*
X102596528Y-78803443D01*
X102669068Y-78949017D01*
X102671193Y-78957844D01*
X102698401Y-79007884D01*
X102723796Y-79058846D01*
X102723800Y-79058850D01*
X102728339Y-79065583D01*
X102727991Y-79065817D01*
X102736532Y-79078011D01*
X102856781Y-79299165D01*
X102863410Y-79311356D01*
X102866094Y-79320863D01*
X102894811Y-79369107D01*
X102895958Y-79371217D01*
X102895969Y-79371235D01*
X102921647Y-79418460D01*
X102926427Y-79425032D01*
X102926195Y-79425200D01*
X102935543Y-79437540D01*
X103065034Y-79655084D01*
X103065035Y-79655086D01*
X103072033Y-79666843D01*
X103075359Y-79676976D01*
X103105628Y-79723286D01*
X103106970Y-79725540D01*
X103106979Y-79725554D01*
X103133977Y-79770909D01*
X103139010Y-79777290D01*
X103138884Y-79777388D01*
X103149110Y-79789808D01*
X103288624Y-80003250D01*
X103296006Y-80014543D01*
X103300059Y-80025238D01*
X103331964Y-80069555D01*
X103361851Y-80115278D01*
X103361857Y-80115283D01*
X103367148Y-80121441D01*
X103367117Y-80121466D01*
X103378256Y-80133855D01*
X103528920Y-80343128D01*
X103528920Y-80343129D01*
X103536637Y-80353848D01*
X103541675Y-80365382D01*
X103575028Y-80407173D01*
X103576809Y-80409647D01*
X103576832Y-80409678D01*
X103606281Y-80450582D01*
X103608108Y-80452523D01*
X103624264Y-80468865D01*
X103816169Y-80709320D01*
X103821840Y-80720711D01*
X103857150Y-80760669D01*
X103859091Y-80763101D01*
X103890433Y-80802373D01*
X103891772Y-80803661D01*
X103909402Y-80819799D01*
X103992340Y-80913654D01*
X104115463Y-81052985D01*
X104124226Y-81067932D01*
X104158945Y-81102191D01*
X104161756Y-81105372D01*
X104176830Y-81122431D01*
X104191254Y-81138753D01*
X104195672Y-81141681D01*
X104214261Y-81156775D01*
X104745086Y-81680573D01*
X104756516Y-81696957D01*
X104791811Y-81726679D01*
X104824668Y-81759101D01*
X104824672Y-81759103D01*
X104824673Y-81759104D01*
X104832150Y-81763355D01*
X104850739Y-81776303D01*
X105315827Y-82167955D01*
X105424570Y-82259528D01*
X105434647Y-82272173D01*
X105474816Y-82301840D01*
X105477834Y-82304381D01*
X105477834Y-82304382D01*
X105477837Y-82304384D01*
X105513006Y-82334001D01*
X105513007Y-82334001D01*
X105513009Y-82334003D01*
X105516489Y-82335633D01*
X105537559Y-82348180D01*
X106140490Y-82793486D01*
X106148695Y-82802808D01*
X106193361Y-82832535D01*
X106236509Y-82864403D01*
X106236510Y-82864403D01*
X106236511Y-82864404D01*
X106239695Y-82866166D01*
X106259094Y-82876283D01*
X106871394Y-83283798D01*
X106871393Y-83283798D01*
X106883166Y-83291633D01*
X106889212Y-83298039D01*
X106937910Y-83328067D01*
X106985540Y-83359767D01*
X106985545Y-83359770D01*
X106992837Y-83363349D01*
X106992632Y-83363765D01*
X107005926Y-83370006D01*
X107644141Y-83763541D01*
X107648607Y-83768043D01*
X107700143Y-83798073D01*
X107750918Y-83829382D01*
X107750929Y-83829385D01*
X107757743Y-83832442D01*
X107769427Y-83838445D01*
X108689322Y-84374472D01*
X109233422Y-84691521D01*
X109234513Y-84692164D01*
X109767935Y-85010593D01*
X110734239Y-85587433D01*
X110738596Y-85590158D01*
X111443842Y-86051837D01*
X111448593Y-86055107D01*
X112118575Y-86539652D01*
X112124616Y-86544311D01*
X112748678Y-87056962D01*
X112755812Y-87063298D01*
X113332082Y-87616230D01*
X113337910Y-87622212D01*
X113596683Y-87906362D01*
X113600717Y-87911019D01*
X113686758Y-88015494D01*
X113848173Y-88211491D01*
X113852219Y-88216678D01*
X114083253Y-88529666D01*
X114087218Y-88535365D01*
X114302142Y-88863490D01*
X114305582Y-88869057D01*
X114746534Y-89626670D01*
X114749341Y-89631763D01*
X115157897Y-90416142D01*
X115160391Y-90421208D01*
X115535278Y-91228673D01*
X115537483Y-91233714D01*
X115878072Y-92061615D01*
X115880012Y-92066637D01*
X116185773Y-92912494D01*
X116187465Y-92917506D01*
X116457851Y-93778758D01*
X116459309Y-93783771D01*
X116693765Y-94657747D01*
X116695002Y-94662775D01*
X116893028Y-95546919D01*
X116894051Y-95551975D01*
X117055153Y-96443712D01*
X117055965Y-96448812D01*
X117179658Y-97345485D01*
X117180260Y-97350645D01*
X117266096Y-98249702D01*
X117266484Y-98254939D01*
X117314013Y-99153696D01*
X117314180Y-99159024D01*
X117322992Y-100054936D01*
X117322926Y-100060374D01*
X117292620Y-100950782D01*
X117292306Y-100956343D01*
X117222506Y-101838691D01*
X117221923Y-101844387D01*
X117112237Y-102716407D01*
X117111382Y-102722122D01*
X116887793Y-104011287D01*
X116886713Y-104016774D01*
X116603035Y-105304480D01*
X116601744Y-105309785D01*
X116259374Y-106592288D01*
X116257881Y-106597432D01*
X115858270Y-107870888D01*
X115856582Y-107875891D01*
X115401189Y-109136546D01*
X115399308Y-109141427D01*
X114889611Y-110385503D01*
X114887536Y-110390281D01*
X114325018Y-111614074D01*
X114322741Y-111618765D01*
X113708933Y-112818492D01*
X113706446Y-112823110D01*
X113042878Y-113995042D01*
X113040167Y-113999599D01*
X112328397Y-115140011D01*
X112325446Y-115144518D01*
X111567024Y-116249722D01*
X111563814Y-116254185D01*
X110760337Y-117320468D01*
X110756846Y-117324888D01*
X109909902Y-118348595D01*
X109906105Y-118352972D01*
X109017309Y-119330443D01*
X109013179Y-119334770D01*
X108084151Y-120262381D01*
X108079661Y-120266646D01*
X107111794Y-121141017D01*
X107107001Y-121145130D01*
X105835594Y-122181180D01*
X105830751Y-122184931D01*
X104500712Y-123163559D01*
X104495856Y-123166957D01*
X103111835Y-124086720D01*
X103106971Y-124089792D01*
X101673829Y-124949130D01*
X101668956Y-124951904D01*
X100191506Y-125749320D01*
X100186621Y-125751819D01*
X98669675Y-126485833D01*
X98664770Y-126488076D01*
X97113215Y-127157203D01*
X97108278Y-127159207D01*
X95527023Y-127761976D01*
X95522042Y-127763754D01*
X93915976Y-128298726D01*
X93910935Y-128300287D01*
X92284897Y-128766065D01*
X92279781Y-128767413D01*
X90638728Y-129162580D01*
X90633516Y-129163717D01*
X88982321Y-129486903D01*
X88976997Y-129487825D01*
X87320606Y-129737667D01*
X87315150Y-129738367D01*
X85658423Y-129913539D01*
X85652816Y-129914003D01*
X84000748Y-130013185D01*
X83994971Y-130013397D01*
X82353144Y-130035305D01*
X82346888Y-130035231D01*
X80630284Y-129971472D01*
X80623874Y-129971067D01*
X78906676Y-129817962D01*
X78900563Y-129817264D01*
X77184963Y-129578046D01*
X77179147Y-129577093D01*
X75468637Y-129255081D01*
X75463109Y-129253910D01*
X73761042Y-128852415D01*
X73755790Y-128851054D01*
X72065707Y-128373448D01*
X72060715Y-128371923D01*
X70386064Y-127821581D01*
X70381313Y-127819912D01*
X68725570Y-127200231D01*
X68721042Y-127198434D01*
X67087763Y-126512869D01*
X67083437Y-126510956D01*
X65475979Y-125762894D01*
X65471859Y-125760883D01*
X65420075Y-125734399D01*
X65396431Y-125712000D01*
X65362972Y-125705195D01*
X63893818Y-124953835D01*
X63889838Y-124951707D01*
X62344715Y-124089167D01*
X62340879Y-124086935D01*
X60832095Y-123172365D01*
X60828384Y-123170025D01*
X59359439Y-122206953D01*
X59355861Y-122204516D01*
X57930216Y-121196460D01*
X57926752Y-121193919D01*
X57709178Y-121028318D01*
X56548333Y-120144769D01*
X56544739Y-120141927D01*
X55440534Y-119235149D01*
X55436935Y-119232076D01*
X54362220Y-118278580D01*
X54358792Y-118275421D01*
X53315497Y-117277246D01*
X53312225Y-117273997D01*
X53010295Y-116962816D01*
X52696290Y-116639189D01*
X52663734Y-116577368D01*
X52669769Y-116507759D01*
X52712480Y-116452464D01*
X52734917Y-116444479D01*
X52738864Y-116441059D01*
X52748366Y-116439692D01*
X52778305Y-116429038D01*
X52807986Y-116431120D01*
X52808022Y-116431115D01*
X52808096Y-116431127D01*
X52809483Y-116431225D01*
X52814538Y-116432231D01*
X52814555Y-116432233D01*
X52814566Y-116432236D01*
X52875777Y-116444412D01*
X52906382Y-116450500D01*
X52906383Y-116450500D01*
X52906384Y-116450500D01*
X61525501Y-116450500D01*
X61592540Y-116470185D01*
X61638295Y-116522989D01*
X61649501Y-116574500D01*
X61649501Y-117766670D01*
X61659920Y-117914263D01*
X61666456Y-117943283D01*
X61715101Y-118159271D01*
X61715101Y-118159273D01*
X61808869Y-118392256D01*
X61938796Y-118607182D01*
X61938799Y-118607185D01*
X62101516Y-118798483D01*
X62213875Y-118894055D01*
X62292818Y-118961204D01*
X62507744Y-119091131D01*
X62740729Y-119184899D01*
X62985737Y-119240080D01*
X63133329Y-119250500D01*
X65376000Y-119250499D01*
X65443039Y-119270184D01*
X65488794Y-119322987D01*
X65500000Y-119374499D01*
X65500000Y-125500000D01*
X90500000Y-125500000D01*
X90500000Y-119374499D01*
X90519685Y-119307460D01*
X90572489Y-119261705D01*
X90624000Y-119250499D01*
X93066669Y-119250499D01*
X93066670Y-119250499D01*
X93214263Y-119240080D01*
X93459271Y-119184899D01*
X93692256Y-119091131D01*
X93907182Y-118961204D01*
X94098483Y-118798483D01*
X94261204Y-118607182D01*
X94391131Y-118392256D01*
X94484899Y-118159271D01*
X94540080Y-117914263D01*
X94550500Y-117766671D01*
X94550499Y-113233330D01*
X94540080Y-113085737D01*
X94484899Y-112840729D01*
X94475949Y-112818492D01*
X94460738Y-112780697D01*
X94391131Y-112607744D01*
X94261204Y-112392818D01*
X94179318Y-112296550D01*
X94098483Y-112201516D01*
X93966388Y-112089157D01*
X93907182Y-112038796D01*
X93692256Y-111908869D01*
X93459272Y-111815101D01*
X93214265Y-111759920D01*
X93214258Y-111759919D01*
X93066673Y-111749500D01*
X93066671Y-111749500D01*
X90624000Y-111749500D01*
X90556961Y-111729815D01*
X90511206Y-111677011D01*
X90500000Y-111625500D01*
X90500000Y-110630647D01*
X90519685Y-110563608D01*
X90572489Y-110517853D01*
X90641647Y-110507909D01*
X90692891Y-110527545D01*
X90819762Y-110612318D01*
X90819768Y-110612321D01*
X90819769Y-110612322D01*
X90992749Y-110683973D01*
X91047794Y-110694922D01*
X91176383Y-110720500D01*
X91176384Y-110720500D01*
X91194241Y-110720500D01*
X91204842Y-110722354D01*
X91226909Y-110733252D01*
X91250519Y-110740185D01*
X91265673Y-110752396D01*
X91267488Y-110753293D01*
X91268146Y-110754390D01*
X91271161Y-110756819D01*
X91364811Y-110850469D01*
X91364813Y-110850470D01*
X91364815Y-110850472D01*
X91510394Y-110938478D01*
X91672804Y-110989086D01*
X91743384Y-110995500D01*
X91743387Y-110995500D01*
X93356613Y-110995500D01*
X93356616Y-110995500D01*
X93427196Y-110989086D01*
X93589606Y-110938478D01*
X93735185Y-110850472D01*
X93855472Y-110730185D01*
X93943478Y-110584606D01*
X93994086Y-110422196D01*
X94000500Y-110351616D01*
X94000500Y-109188384D01*
X93994086Y-109117804D01*
X93943478Y-108955394D01*
X93943477Y-108955393D01*
X93941570Y-108949271D01*
X93940420Y-108879411D01*
X93942018Y-108874086D01*
X93970324Y-108786972D01*
X94000500Y-108596449D01*
X94000500Y-108403551D01*
X93970324Y-108213028D01*
X93910715Y-108029571D01*
X93855543Y-107921291D01*
X93842648Y-107852626D01*
X93855542Y-107808709D01*
X93910715Y-107700429D01*
X93970324Y-107516972D01*
X94000500Y-107326449D01*
X94000500Y-107133551D01*
X93970324Y-106943028D01*
X93910715Y-106759571D01*
X93823141Y-106587698D01*
X93709759Y-106431641D01*
X93573359Y-106295241D01*
X93417302Y-106181859D01*
X93245429Y-106094285D01*
X93061972Y-106034676D01*
X93061970Y-106034675D01*
X93061969Y-106034675D01*
X92915614Y-106011495D01*
X92871449Y-106004500D01*
X92228551Y-106004500D01*
X92192697Y-106010178D01*
X92038030Y-106034675D01*
X91854568Y-106094286D01*
X91682697Y-106181859D01*
X91593661Y-106246547D01*
X91526641Y-106295241D01*
X91526639Y-106295243D01*
X91526638Y-106295243D01*
X91390243Y-106431638D01*
X91390243Y-106431639D01*
X91390241Y-106431641D01*
X91373731Y-106454365D01*
X91276859Y-106587697D01*
X91189286Y-106759568D01*
X91129675Y-106943030D01*
X91099500Y-107133551D01*
X91099500Y-107326448D01*
X91129675Y-107516969D01*
X91129676Y-107516972D01*
X91152113Y-107586027D01*
X91189286Y-107700431D01*
X91244454Y-107808705D01*
X91244901Y-107811087D01*
X91246498Y-107812911D01*
X91251316Y-107845249D01*
X91257350Y-107877375D01*
X91256549Y-107880364D01*
X91256796Y-107882018D01*
X91252136Y-107896846D01*
X91247026Y-107915933D01*
X91245801Y-107918650D01*
X91189285Y-108029571D01*
X91172347Y-108081698D01*
X91169567Y-108087871D01*
X91151054Y-108109458D01*
X91135003Y-108132932D01*
X91128605Y-108135635D01*
X91124083Y-108140909D01*
X91096838Y-108149060D01*
X91070644Y-108160130D01*
X91063798Y-108158945D01*
X91057145Y-108160936D01*
X91029819Y-108153064D01*
X91001798Y-108148215D01*
X90994263Y-108142822D01*
X90990006Y-108141596D01*
X90985737Y-108136720D01*
X90968829Y-108124619D01*
X90605911Y-107761700D01*
X90605907Y-107761697D01*
X90450236Y-107657680D01*
X90450223Y-107657673D01*
X90338142Y-107611249D01*
X90331066Y-107608318D01*
X90277251Y-107586027D01*
X90172752Y-107565241D01*
X90168309Y-107564357D01*
X90168301Y-107564355D01*
X90093619Y-107549500D01*
X90093617Y-107549500D01*
X90093616Y-107549500D01*
X87718755Y-107549500D01*
X87651716Y-107529815D01*
X87637544Y-107519205D01*
X87634967Y-107516972D01*
X86954419Y-106927163D01*
X83000002Y-103500000D01*
X83000000Y-103500000D01*
X73500000Y-103500000D01*
X65500000Y-109999999D01*
X65500000Y-111625500D01*
X65480315Y-111692539D01*
X65427511Y-111738294D01*
X65376000Y-111749500D01*
X63133331Y-111749500D01*
X63133325Y-111749501D01*
X63010335Y-111758183D01*
X62985737Y-111759920D01*
X62740728Y-111815101D01*
X62740726Y-111815101D01*
X62507743Y-111908869D01*
X62292824Y-112038792D01*
X62292814Y-112038799D01*
X62101516Y-112201516D01*
X61938799Y-112392814D01*
X61938792Y-112392824D01*
X61808869Y-112607743D01*
X61715101Y-112840726D01*
X61715101Y-112840728D01*
X61659920Y-113085734D01*
X61659919Y-113085741D01*
X61649500Y-113233326D01*
X61649500Y-114425500D01*
X61629815Y-114492539D01*
X61577011Y-114538294D01*
X61525500Y-114549500D01*
X53445072Y-114549500D01*
X53378033Y-114529815D01*
X53357391Y-114513181D01*
X50652658Y-111808448D01*
X50619173Y-111747125D01*
X50624157Y-111677433D01*
X50666029Y-111621500D01*
X50678333Y-111613383D01*
X52187982Y-110741788D01*
X52222549Y-110718578D01*
X52355700Y-110590151D01*
X52458131Y-110436102D01*
X52463495Y-110422275D01*
X52506093Y-110366898D01*
X52571871Y-110343340D01*
X52598046Y-110344586D01*
X52612711Y-110346855D01*
X52705024Y-110341013D01*
X52797329Y-110335173D01*
X52797331Y-110335172D01*
X52797337Y-110335172D01*
X52975134Y-110284073D01*
X53012518Y-110265742D01*
X53981647Y-109706214D01*
X54043647Y-109689602D01*
X61294030Y-109689602D01*
X61361069Y-109709287D01*
X61381711Y-109725921D01*
X61607370Y-109951580D01*
X61637620Y-110000942D01*
X61655770Y-110056803D01*
X61759421Y-110260228D01*
X61893621Y-110444937D01*
X62055063Y-110606379D01*
X62239772Y-110740579D01*
X62330641Y-110786879D01*
X62443196Y-110844229D01*
X62443198Y-110844229D01*
X62443201Y-110844231D01*
X62559592Y-110882049D01*
X62660339Y-110914784D01*
X62885838Y-110950500D01*
X62885843Y-110950500D01*
X63114162Y-110950500D01*
X63339660Y-110914784D01*
X63556799Y-110844231D01*
X63760228Y-110740579D01*
X63944937Y-110606379D01*
X64106379Y-110444937D01*
X64240579Y-110260228D01*
X64344231Y-110056799D01*
X64414784Y-109839660D01*
X64426217Y-109767474D01*
X64450500Y-109614162D01*
X64450500Y-109385837D01*
X64414784Y-109160339D01*
X64382049Y-109059592D01*
X64344231Y-108943201D01*
X64344229Y-108943198D01*
X64344229Y-108943196D01*
X64289550Y-108835884D01*
X64240579Y-108739772D01*
X64106379Y-108555063D01*
X63944937Y-108393621D01*
X63760228Y-108259421D01*
X63739148Y-108248680D01*
X63603973Y-108179805D01*
X63582746Y-108159757D01*
X63559690Y-108141846D01*
X63557645Y-108136050D01*
X63553177Y-108131830D01*
X63546158Y-108103488D01*
X63536446Y-108075956D01*
X63537859Y-108069974D01*
X63536382Y-108064009D01*
X63545799Y-108036372D01*
X63552514Y-108007959D01*
X63556936Y-108003691D01*
X63558919Y-107997874D01*
X63581784Y-107979716D01*
X63602794Y-107959444D01*
X63610924Y-107956575D01*
X63613635Y-107954423D01*
X63636063Y-107947706D01*
X63693330Y-107936315D01*
X63770199Y-107921025D01*
X63868141Y-107880456D01*
X63943178Y-107849375D01*
X64098856Y-107745354D01*
X68907391Y-102936819D01*
X68968714Y-102903334D01*
X68995072Y-102900500D01*
X69164162Y-102900500D01*
X69389660Y-102864784D01*
X69404867Y-102859843D01*
X69606799Y-102794231D01*
X69810228Y-102690579D01*
X69994937Y-102556379D01*
X70156379Y-102394937D01*
X70290579Y-102210228D01*
X70394231Y-102006799D01*
X70464784Y-101789660D01*
X70478570Y-101702617D01*
X70500500Y-101564162D01*
X70500500Y-101335837D01*
X70464784Y-101110339D01*
X70414747Y-100956343D01*
X70394231Y-100893201D01*
X70394229Y-100893198D01*
X70394229Y-100893196D01*
X70290578Y-100689771D01*
X70202464Y-100568493D01*
X70156379Y-100505063D01*
X69994937Y-100343621D01*
X69810228Y-100209421D01*
X69797911Y-100203145D01*
X69606803Y-100105770D01*
X69389660Y-100035215D01*
X69164162Y-99999500D01*
X69164157Y-99999500D01*
X68935843Y-99999500D01*
X68935838Y-99999500D01*
X68710339Y-100035215D01*
X68493196Y-100105770D01*
X68289771Y-100209421D01*
X68105061Y-100343622D01*
X67943622Y-100505061D01*
X67809421Y-100689771D01*
X67705770Y-100893196D01*
X67635215Y-101110339D01*
X67599500Y-101335837D01*
X67599500Y-101504928D01*
X67579815Y-101571967D01*
X67563181Y-101592609D01*
X63135557Y-106020233D01*
X63074234Y-106053718D01*
X63047876Y-106056552D01*
X60902136Y-106056552D01*
X60835097Y-106036867D01*
X60789342Y-105984063D01*
X60779398Y-105914905D01*
X60808423Y-105851349D01*
X60829247Y-105832236D01*
X60977510Y-105724517D01*
X61144517Y-105557510D01*
X61283343Y-105366433D01*
X61390568Y-105155992D01*
X61463553Y-104931368D01*
X61480364Y-104825227D01*
X61500500Y-104698097D01*
X61500500Y-104461902D01*
X61463553Y-104228631D01*
X61390566Y-104004003D01*
X61283342Y-103793566D01*
X61265493Y-103768999D01*
X61144517Y-103602490D01*
X60986819Y-103444792D01*
X60953334Y-103383469D01*
X60950500Y-103357111D01*
X60950500Y-102445071D01*
X60970185Y-102378032D01*
X60986814Y-102357395D01*
X70807390Y-92536818D01*
X70868713Y-92503334D01*
X70895071Y-92500500D01*
X71118097Y-92500500D01*
X71351368Y-92463553D01*
X71388260Y-92451566D01*
X71575992Y-92390568D01*
X71786433Y-92283343D01*
X71977510Y-92144517D01*
X72135208Y-91986819D01*
X72196531Y-91953334D01*
X72222889Y-91950500D01*
X84777111Y-91950500D01*
X84844150Y-91970185D01*
X84864792Y-91986819D01*
X85022490Y-92144517D01*
X85213567Y-92283343D01*
X85312991Y-92334002D01*
X85424003Y-92390566D01*
X85424005Y-92390566D01*
X85424008Y-92390568D01*
X85544412Y-92429689D01*
X85648631Y-92463553D01*
X85881903Y-92500500D01*
X85881908Y-92500500D01*
X86118097Y-92500500D01*
X86224126Y-92483705D01*
X86351368Y-92463553D01*
X86481358Y-92421315D01*
X86551198Y-92419321D01*
X86607356Y-92451566D01*
X96513181Y-102357391D01*
X96546666Y-102418714D01*
X96549500Y-102445072D01*
X96549500Y-103277111D01*
X96529815Y-103344150D01*
X96513181Y-103364792D01*
X96355485Y-103522487D01*
X96355485Y-103522488D01*
X96355483Y-103522490D01*
X96297362Y-103602487D01*
X96216657Y-103713566D01*
X96109433Y-103924003D01*
X96036446Y-104148631D01*
X95999500Y-104381902D01*
X95999500Y-104618097D01*
X96036446Y-104851368D01*
X96109433Y-105075996D01*
X96216362Y-105285855D01*
X96216657Y-105286433D01*
X96355483Y-105477510D01*
X96522490Y-105644517D01*
X96713567Y-105783343D01*
X96805912Y-105830395D01*
X96924003Y-105890566D01*
X96924005Y-105890566D01*
X96924008Y-105890568D01*
X97044412Y-105929689D01*
X97148631Y-105963553D01*
X97381903Y-106000500D01*
X97381908Y-106000500D01*
X97618097Y-106000500D01*
X97851368Y-105963553D01*
X97870991Y-105957177D01*
X98075992Y-105890568D01*
X98286433Y-105783343D01*
X98477510Y-105644517D01*
X98644517Y-105477510D01*
X98783343Y-105286433D01*
X98890568Y-105075992D01*
X98963553Y-104851368D01*
X98967693Y-104825227D01*
X99000500Y-104618097D01*
X99000500Y-104381902D01*
X98963553Y-104148631D01*
X98890566Y-103924003D01*
X98824105Y-103793567D01*
X98783343Y-103713567D01*
X98644517Y-103522490D01*
X98486819Y-103364792D01*
X98453334Y-103303469D01*
X98450500Y-103277111D01*
X98450500Y-101906384D01*
X98447167Y-101889629D01*
X98445970Y-101883612D01*
X98445969Y-101883609D01*
X98419064Y-101748345D01*
X98419064Y-101748342D01*
X98413974Y-101722755D01*
X98413973Y-101722749D01*
X98348176Y-101563901D01*
X98342323Y-101549771D01*
X98342318Y-101549762D01*
X98238303Y-101394093D01*
X98180047Y-101335837D01*
X98105908Y-101261698D01*
X91066112Y-94221902D01*
X95999500Y-94221902D01*
X95999500Y-94458097D01*
X96036446Y-94691368D01*
X96109433Y-94915996D01*
X96216657Y-95126433D01*
X96355483Y-95317510D01*
X96522490Y-95484517D01*
X96713567Y-95623343D01*
X96812991Y-95674002D01*
X96924003Y-95730566D01*
X96924005Y-95730566D01*
X96924008Y-95730568D01*
X97044412Y-95769689D01*
X97148631Y-95803553D01*
X97381903Y-95840500D01*
X97381908Y-95840500D01*
X97618097Y-95840500D01*
X97851368Y-95803553D01*
X98075992Y-95730568D01*
X98286433Y-95623343D01*
X98477510Y-95484517D01*
X98644517Y-95317510D01*
X98783343Y-95126433D01*
X98890568Y-94915992D01*
X98963553Y-94691368D01*
X98987829Y-94538097D01*
X99000500Y-94458097D01*
X99000500Y-94221902D01*
X98963553Y-93988631D01*
X98896989Y-93783771D01*
X98890568Y-93764008D01*
X98890566Y-93764005D01*
X98890566Y-93764003D01*
X98824105Y-93633567D01*
X98783343Y-93553567D01*
X98644517Y-93362490D01*
X98477510Y-93195483D01*
X98286433Y-93056657D01*
X98233001Y-93029432D01*
X98075996Y-92949433D01*
X97851368Y-92876446D01*
X97618097Y-92839500D01*
X97618092Y-92839500D01*
X97381908Y-92839500D01*
X97381903Y-92839500D01*
X97148631Y-92876446D01*
X96924003Y-92949433D01*
X96713566Y-93056657D01*
X96604550Y-93135862D01*
X96522490Y-93195483D01*
X96522488Y-93195485D01*
X96522487Y-93195485D01*
X96355485Y-93362487D01*
X96355485Y-93362488D01*
X96355483Y-93362490D01*
X96300045Y-93438793D01*
X96216657Y-93553566D01*
X96109433Y-93764003D01*
X96036446Y-93988631D01*
X95999500Y-94221902D01*
X91066112Y-94221902D01*
X87470505Y-90626295D01*
X87440255Y-90576931D01*
X87390570Y-90424013D01*
X87390568Y-90424007D01*
X87283342Y-90213566D01*
X87144517Y-90022490D01*
X86977510Y-89855483D01*
X86786433Y-89716657D01*
X86575996Y-89609433D01*
X86351368Y-89536446D01*
X86118097Y-89499500D01*
X86118092Y-89499500D01*
X85881908Y-89499500D01*
X85881903Y-89499500D01*
X85648631Y-89536446D01*
X85424003Y-89609433D01*
X85213566Y-89716657D01*
X85104550Y-89795862D01*
X85022490Y-89855483D01*
X85022488Y-89855485D01*
X85022487Y-89855485D01*
X84864792Y-90013181D01*
X84803469Y-90046666D01*
X84777111Y-90049500D01*
X72222889Y-90049500D01*
X72155850Y-90029815D01*
X72135208Y-90013181D01*
X71977512Y-89855485D01*
X71977510Y-89855483D01*
X71786433Y-89716657D01*
X71575996Y-89609433D01*
X71351368Y-89536446D01*
X71118097Y-89499500D01*
X71118092Y-89499500D01*
X70881908Y-89499500D01*
X70881903Y-89499500D01*
X70648631Y-89536446D01*
X70424003Y-89609433D01*
X70213566Y-89716657D01*
X70104550Y-89795862D01*
X70022490Y-89855483D01*
X70022488Y-89855485D01*
X70022487Y-89855485D01*
X69855485Y-90022487D01*
X69855485Y-90022488D01*
X69855483Y-90022490D01*
X69845613Y-90036075D01*
X69716657Y-90213566D01*
X69609433Y-90424003D01*
X69536446Y-90648631D01*
X69499500Y-90881902D01*
X69499500Y-91104927D01*
X69479815Y-91171966D01*
X69463181Y-91192608D01*
X59261700Y-101394088D01*
X59261697Y-101394092D01*
X59157678Y-101549766D01*
X59131801Y-101612241D01*
X59086028Y-101722746D01*
X59086025Y-101722755D01*
X59080935Y-101748343D01*
X59080936Y-101748344D01*
X59054030Y-101883612D01*
X59052833Y-101889629D01*
X59049500Y-101906384D01*
X59049500Y-103357111D01*
X59040855Y-103386551D01*
X59034332Y-103416538D01*
X59030577Y-103421553D01*
X59029815Y-103424150D01*
X59013181Y-103444792D01*
X58944792Y-103513181D01*
X58883469Y-103546666D01*
X58857111Y-103549500D01*
X52188472Y-103549500D01*
X52121433Y-103529815D01*
X52075678Y-103477011D01*
X52064720Y-103433331D01*
X52053122Y-103250042D01*
X52053121Y-103250039D01*
X52053121Y-103250035D01*
X52002022Y-103072238D01*
X51983691Y-103034854D01*
X51941867Y-102962413D01*
X51559741Y-102300550D01*
X51559728Y-102300530D01*
X51536529Y-102265980D01*
X51536527Y-102265977D01*
X51482756Y-102210228D01*
X51408105Y-102132830D01*
X51408095Y-102132822D01*
X51254052Y-102030395D01*
X51254050Y-102030394D01*
X51120610Y-101978619D01*
X51065231Y-101936017D01*
X51041675Y-101870238D01*
X51042923Y-101844060D01*
X51064803Y-101702617D01*
X51064803Y-101702616D01*
X51064804Y-101702610D01*
X51056027Y-101563901D01*
X51053122Y-101517991D01*
X51053121Y-101517988D01*
X51053121Y-101517984D01*
X51002022Y-101340187D01*
X50983691Y-101302803D01*
X50957946Y-101258212D01*
X50559741Y-100568499D01*
X50559728Y-100568479D01*
X50536529Y-100533929D01*
X50536527Y-100533926D01*
X50508686Y-100505061D01*
X50408105Y-100400779D01*
X50408095Y-100400771D01*
X50254052Y-100298344D01*
X50254047Y-100298342D01*
X50081585Y-100231426D01*
X49990173Y-100217285D01*
X49898763Y-100203145D01*
X49898761Y-100203145D01*
X49898753Y-100203145D01*
X49714144Y-100214826D01*
X49714136Y-100214828D01*
X49656385Y-100231426D01*
X49536340Y-100265927D01*
X49536337Y-100265928D01*
X49536335Y-100265929D01*
X49498949Y-100284261D01*
X47812024Y-101258207D01*
X47812004Y-101258220D01*
X47777454Y-101281419D01*
X47777446Y-101281426D01*
X47644304Y-101409843D01*
X47644296Y-101409853D01*
X47541870Y-101563894D01*
X47541866Y-101563901D01*
X47536500Y-101577731D01*
X47493895Y-101633107D01*
X47428114Y-101656659D01*
X47401948Y-101655412D01*
X47387295Y-101653145D01*
X47387279Y-101653145D01*
X47202670Y-101664826D01*
X47202662Y-101664828D01*
X47142572Y-101682098D01*
X47024866Y-101715927D01*
X47024863Y-101715928D01*
X47024861Y-101715929D01*
X46987475Y-101734261D01*
X45300550Y-102708207D01*
X45300530Y-102708220D01*
X45265980Y-102731419D01*
X45265972Y-102731426D01*
X45132830Y-102859843D01*
X45132822Y-102859853D01*
X45030395Y-103013896D01*
X45030393Y-103013901D01*
X44963477Y-103186363D01*
X44963477Y-103186366D01*
X44940352Y-103335859D01*
X44935196Y-103369187D01*
X44935196Y-103369195D01*
X44946877Y-103553804D01*
X44946879Y-103553812D01*
X44997978Y-103731609D01*
X44997980Y-103731613D01*
X45016312Y-103768999D01*
X45440258Y-104503296D01*
X45440271Y-104503316D01*
X45463470Y-104537866D01*
X45463477Y-104537874D01*
X45591894Y-104671016D01*
X45591904Y-104671024D01*
X45632620Y-104698097D01*
X45745949Y-104773452D01*
X45745952Y-104773453D01*
X45879388Y-104825227D01*
X45934768Y-104867828D01*
X45958323Y-104933608D01*
X45957077Y-104959785D01*
X45935196Y-105101236D01*
X45935196Y-105101246D01*
X45946877Y-105285855D01*
X45946879Y-105285863D01*
X45997978Y-105463660D01*
X46001177Y-105470185D01*
X46016312Y-105501050D01*
X46440258Y-106235347D01*
X46440271Y-106235367D01*
X46463470Y-106269917D01*
X46463477Y-106269925D01*
X46591894Y-106403067D01*
X46591898Y-106403070D01*
X46591900Y-106403072D01*
X46738423Y-106500499D01*
X46783347Y-106554007D01*
X46793763Y-106603754D01*
X46793763Y-108248680D01*
X46774078Y-108315719D01*
X46721274Y-108361474D01*
X46652116Y-108371418D01*
X46588560Y-108342393D01*
X46561490Y-108309119D01*
X46467977Y-108141596D01*
X46356991Y-107942773D01*
X46354717Y-107938505D01*
X46353604Y-107936314D01*
X45698686Y-106646875D01*
X45696527Y-106642405D01*
X45657519Y-106557329D01*
X45325062Y-105832234D01*
X45094961Y-105330381D01*
X45092934Y-105325708D01*
X44835814Y-104698092D01*
X44548090Y-103995776D01*
X44546211Y-103990899D01*
X44522050Y-103924003D01*
X44060256Y-102645381D01*
X44058535Y-102640269D01*
X44032302Y-102556377D01*
X43633641Y-101281469D01*
X43632148Y-101276299D01*
X43325745Y-100119932D01*
X43324501Y-100114794D01*
X43322518Y-100105770D01*
X43066399Y-98939964D01*
X43065397Y-98934902D01*
X42855349Y-97744377D01*
X42854575Y-97739399D01*
X42692351Y-96536108D01*
X42691789Y-96531209D01*
X42675034Y-96353937D01*
X42577104Y-95317845D01*
X42576748Y-95313072D01*
X42520907Y-94301902D01*
X58499500Y-94301902D01*
X58499500Y-94538097D01*
X58536446Y-94771368D01*
X58609433Y-94995996D01*
X58675895Y-95126433D01*
X58716657Y-95206433D01*
X58855483Y-95397510D01*
X59022490Y-95564517D01*
X59213567Y-95703343D01*
X59312991Y-95754002D01*
X59424003Y-95810566D01*
X59424005Y-95810566D01*
X59424008Y-95810568D01*
X59516129Y-95840500D01*
X59648631Y-95883553D01*
X59881903Y-95920500D01*
X59881908Y-95920500D01*
X60118097Y-95920500D01*
X60351368Y-95883553D01*
X60575992Y-95810568D01*
X60786433Y-95703343D01*
X60977510Y-95564517D01*
X61144517Y-95397510D01*
X61283343Y-95206433D01*
X61390568Y-94995992D01*
X61463553Y-94771368D01*
X61476224Y-94691368D01*
X61500500Y-94538097D01*
X61500500Y-94301902D01*
X61463553Y-94068631D01*
X61390566Y-93844003D01*
X61283342Y-93633566D01*
X61144517Y-93442490D01*
X60977510Y-93275483D01*
X60786433Y-93136657D01*
X60575996Y-93029433D01*
X60351368Y-92956446D01*
X60118097Y-92919500D01*
X60118092Y-92919500D01*
X59881908Y-92919500D01*
X59881903Y-92919500D01*
X59648631Y-92956446D01*
X59424003Y-93029433D01*
X59213566Y-93136657D01*
X59132600Y-93195483D01*
X59022490Y-93275483D01*
X59022488Y-93275485D01*
X59022487Y-93275485D01*
X58855485Y-93442487D01*
X58855485Y-93442488D01*
X58855483Y-93442490D01*
X58795862Y-93524550D01*
X58716657Y-93633566D01*
X58609433Y-93844003D01*
X58536446Y-94068631D01*
X58499500Y-94301902D01*
X42520907Y-94301902D01*
X42509349Y-94092616D01*
X42509178Y-94087867D01*
X42508721Y-94060445D01*
X42488775Y-92863131D01*
X42488785Y-92858464D01*
X42515080Y-91632282D01*
X42515265Y-91627705D01*
X42587942Y-90403045D01*
X42588306Y-90398399D01*
X42589298Y-90388212D01*
X42707040Y-89178110D01*
X42707581Y-89173467D01*
X42711312Y-89145945D01*
X42872036Y-87960385D01*
X42872747Y-87955799D01*
X43082578Y-86752772D01*
X43083482Y-86748121D01*
X43127124Y-86544313D01*
X43338308Y-85558088D01*
X43339401Y-85553431D01*
X43380702Y-85391482D01*
X43638876Y-84379126D01*
X43640146Y-84374526D01*
X43983859Y-83218898D01*
X43985370Y-83214168D01*
X44374083Y-82076651D01*
X44375282Y-82073306D01*
X44595043Y-81487639D01*
X44596467Y-81484021D01*
X44846858Y-80876786D01*
X44848652Y-80872654D01*
X44982818Y-80578819D01*
X44984551Y-80575185D01*
X45128031Y-80286305D01*
X45130231Y-80282085D01*
X45281834Y-80004795D01*
X45284707Y-79999822D01*
X45444228Y-79738065D01*
X45447986Y-79732269D01*
X45615136Y-79489590D01*
X45619980Y-79483033D01*
X45794060Y-79262964D01*
X45800306Y-79255671D01*
X45980373Y-79061279D01*
X45988393Y-79053375D01*
X46179915Y-78881157D01*
X46187283Y-78875032D01*
X46198297Y-78866575D01*
X46275176Y-78807541D01*
X46280823Y-78803454D01*
X46375794Y-78738718D01*
X46382077Y-78734708D01*
X46414631Y-78715276D01*
X46478024Y-78677437D01*
X46484863Y-78673643D01*
X46581981Y-78623757D01*
X46589411Y-78620249D01*
X46687926Y-78577693D01*
X46695892Y-78574576D01*
X46796241Y-78539269D01*
X46804667Y-78536638D01*
X46907457Y-78508546D01*
X46916210Y-78506493D01*
X47012584Y-78487571D01*
X47025424Y-78485742D01*
X47146480Y-78474917D01*
X47163516Y-78474570D01*
X47269959Y-78479726D01*
X47286388Y-78481627D01*
X47393196Y-78501281D01*
X47408134Y-78505003D01*
X47519225Y-78540144D01*
X47532155Y-78545044D01*
X47649503Y-78597188D01*
X47660291Y-78602627D01*
X47784220Y-78672893D01*
X47793006Y-78678372D01*
X47922860Y-78767080D01*
X47929879Y-78772245D01*
X48049040Y-78866575D01*
X48064624Y-78878911D01*
X48070164Y-78883566D01*
X48208715Y-79007053D01*
X48213030Y-79011087D01*
X48351104Y-79146540D01*
X48355718Y-79151318D01*
X48430519Y-79233067D01*
X48649647Y-79472551D01*
X48653433Y-79476887D01*
X48673897Y-79501450D01*
X48882515Y-79751853D01*
X48948856Y-79831481D01*
X48950471Y-79833460D01*
X49211185Y-80159883D01*
X49211474Y-80160539D01*
X49252174Y-80211203D01*
X49252176Y-80211205D01*
X49296866Y-80267158D01*
X49298990Y-80269481D01*
X49312549Y-80286359D01*
X49520477Y-80545190D01*
X49523403Y-80551374D01*
X49561694Y-80596497D01*
X49587886Y-80629101D01*
X49598731Y-80642601D01*
X49604605Y-80648219D01*
X49604053Y-80648795D01*
X49613711Y-80657796D01*
X49795994Y-80872603D01*
X49839171Y-80923484D01*
X49845766Y-80935658D01*
X49881680Y-80973577D01*
X49915479Y-81013407D01*
X49915482Y-81013409D01*
X49916258Y-81013946D01*
X49935733Y-81030648D01*
X49956889Y-81052985D01*
X50159759Y-81267184D01*
X50168294Y-81276195D01*
X50176667Y-81289588D01*
X50213456Y-81323879D01*
X50248051Y-81360406D01*
X50250932Y-81362175D01*
X50270591Y-81377136D01*
X50335984Y-81438089D01*
X50345394Y-81446860D01*
X50353433Y-81458270D01*
X50393448Y-81491651D01*
X50431583Y-81527197D01*
X50432547Y-81527709D01*
X50453790Y-81541989D01*
X50527278Y-81603294D01*
X50537999Y-81616527D01*
X50577703Y-81645360D01*
X50615394Y-81676802D01*
X50619861Y-81678869D01*
X50640647Y-81691069D01*
X50708852Y-81740600D01*
X50708853Y-81740600D01*
X50717953Y-81747208D01*
X50732107Y-81762045D01*
X50771073Y-81785782D01*
X50775136Y-81788733D01*
X50775138Y-81788735D01*
X50807995Y-81812595D01*
X50807996Y-81812596D01*
X50813607Y-81814748D01*
X50816643Y-81815913D01*
X50836744Y-81825790D01*
X50919178Y-81876010D01*
X50937575Y-81891916D01*
X50975226Y-81910155D01*
X51010956Y-81931922D01*
X51024413Y-81935869D01*
X51043556Y-81943255D01*
X51132605Y-81986393D01*
X51155916Y-82002382D01*
X51191660Y-82015001D01*
X51208850Y-82023328D01*
X51225769Y-82031525D01*
X51230051Y-82032345D01*
X51244373Y-82035089D01*
X51262319Y-82039947D01*
X51351356Y-82071382D01*
X51351357Y-82071382D01*
X51359282Y-82074180D01*
X51387710Y-82088791D01*
X51421149Y-82096022D01*
X51428551Y-82098635D01*
X51428552Y-82098636D01*
X51453404Y-82107410D01*
X51453406Y-82107410D01*
X51453411Y-82107412D01*
X51476895Y-82109237D01*
X51493487Y-82111664D01*
X51598992Y-82134479D01*
X51631891Y-82145999D01*
X51663113Y-82148345D01*
X51693724Y-82154965D01*
X51720871Y-82153638D01*
X51736208Y-82153838D01*
X51849711Y-82162369D01*
X51885427Y-82169341D01*
X51915137Y-82167286D01*
X51944838Y-82169519D01*
X51973419Y-82164117D01*
X51987869Y-82162258D01*
X52107752Y-82153969D01*
X52143924Y-82155759D01*
X52173215Y-82149443D01*
X52203102Y-82147377D01*
X52230395Y-82138002D01*
X52244525Y-82134066D01*
X52359904Y-82109190D01*
X52368563Y-82107643D01*
X52372204Y-82107124D01*
X52400583Y-82104798D01*
X52408515Y-82101958D01*
X52419275Y-82100428D01*
X52419728Y-82100310D01*
X52419736Y-82100310D01*
X52431463Y-82095591D01*
X52451602Y-82089418D01*
X52463968Y-82086753D01*
X52486585Y-82075144D01*
X52501416Y-82068717D01*
X52876131Y-81934638D01*
X52908178Y-81927759D01*
X52937912Y-81912532D01*
X52969357Y-81901281D01*
X52989570Y-81887290D01*
X53003594Y-81878897D01*
X53338668Y-81707309D01*
X53369953Y-81696141D01*
X53397061Y-81677407D01*
X53426395Y-81662386D01*
X53445045Y-81645524D01*
X53457686Y-81635511D01*
X53756461Y-81429041D01*
X53785273Y-81414377D01*
X53810434Y-81391742D01*
X53838279Y-81372500D01*
X53853836Y-81354189D01*
X53865390Y-81342303D01*
X54129434Y-81104774D01*
X54154567Y-81087932D01*
X54178214Y-81060892D01*
X54204919Y-81036870D01*
X54216598Y-81018902D01*
X54227216Y-81004862D01*
X54458782Y-80740086D01*
X54479737Y-80722488D01*
X54480147Y-80721902D01*
X69499500Y-80721902D01*
X69499500Y-80958097D01*
X69536446Y-81191368D01*
X69609433Y-81415996D01*
X69673632Y-81541992D01*
X69716657Y-81626433D01*
X69855483Y-81817510D01*
X70022490Y-81984517D01*
X70213567Y-82123343D01*
X70299810Y-82167286D01*
X70424003Y-82230566D01*
X70424005Y-82230566D01*
X70424008Y-82230568D01*
X70544412Y-82269689D01*
X70648631Y-82303553D01*
X70881903Y-82340500D01*
X70881908Y-82340500D01*
X71118097Y-82340500D01*
X71351368Y-82303553D01*
X71356640Y-82301840D01*
X71575992Y-82230568D01*
X71786433Y-82123343D01*
X71977510Y-81984517D01*
X72144517Y-81817510D01*
X72283343Y-81626433D01*
X72390568Y-81415992D01*
X72463553Y-81191368D01*
X72465248Y-81180669D01*
X72500500Y-80958097D01*
X72500500Y-80721902D01*
X84499500Y-80721902D01*
X84499500Y-80958097D01*
X84536446Y-81191368D01*
X84609433Y-81415996D01*
X84673632Y-81541992D01*
X84716657Y-81626433D01*
X84855483Y-81817510D01*
X85022490Y-81984517D01*
X85213567Y-82123343D01*
X85299810Y-82167286D01*
X85424003Y-82230566D01*
X85424005Y-82230566D01*
X85424008Y-82230568D01*
X85544412Y-82269689D01*
X85648631Y-82303553D01*
X85881903Y-82340500D01*
X85881908Y-82340500D01*
X86118097Y-82340500D01*
X86351368Y-82303553D01*
X86356640Y-82301840D01*
X86575992Y-82230568D01*
X86786433Y-82123343D01*
X86977510Y-81984517D01*
X87144517Y-81817510D01*
X87283343Y-81626433D01*
X87390568Y-81415992D01*
X87463553Y-81191368D01*
X87465248Y-81180669D01*
X87500500Y-80958097D01*
X87500500Y-80721902D01*
X87463553Y-80488631D01*
X87429689Y-80384412D01*
X87390568Y-80264008D01*
X87390566Y-80264005D01*
X87390566Y-80264003D01*
X87317939Y-80121466D01*
X87283343Y-80053567D01*
X87144517Y-79862490D01*
X86977510Y-79695483D01*
X86786433Y-79556657D01*
X86768809Y-79547677D01*
X86575996Y-79449433D01*
X86351368Y-79376446D01*
X86118097Y-79339500D01*
X86118092Y-79339500D01*
X85881908Y-79339500D01*
X85881903Y-79339500D01*
X85648631Y-79376446D01*
X85424003Y-79449433D01*
X85213566Y-79556657D01*
X85173814Y-79585539D01*
X85022490Y-79695483D01*
X85022488Y-79695485D01*
X85022487Y-79695485D01*
X84855485Y-79862487D01*
X84855485Y-79862488D01*
X84855483Y-79862490D01*
X84795862Y-79944550D01*
X84716657Y-80053566D01*
X84609433Y-80264003D01*
X84536446Y-80488631D01*
X84499500Y-80721902D01*
X72500500Y-80721902D01*
X72463553Y-80488631D01*
X72429689Y-80384412D01*
X72390568Y-80264008D01*
X72390566Y-80264005D01*
X72390566Y-80264003D01*
X72317939Y-80121466D01*
X72283343Y-80053567D01*
X72144517Y-79862490D01*
X71977510Y-79695483D01*
X71786433Y-79556657D01*
X71768809Y-79547677D01*
X71575996Y-79449433D01*
X71351368Y-79376446D01*
X71118097Y-79339500D01*
X71118092Y-79339500D01*
X70881908Y-79339500D01*
X70881903Y-79339500D01*
X70648631Y-79376446D01*
X70424003Y-79449433D01*
X70213566Y-79556657D01*
X70173814Y-79585539D01*
X70022490Y-79695483D01*
X70022488Y-79695485D01*
X70022487Y-79695485D01*
X69855485Y-79862487D01*
X69855485Y-79862488D01*
X69855483Y-79862490D01*
X69795862Y-79944550D01*
X69716657Y-80053566D01*
X69609433Y-80264003D01*
X69536446Y-80488631D01*
X69499500Y-80721902D01*
X54480147Y-80721902D01*
X54501977Y-80690695D01*
X54527523Y-80661487D01*
X54535386Y-80645485D01*
X54545066Y-80629101D01*
X54741092Y-80348892D01*
X54754298Y-80333017D01*
X54763914Y-80323242D01*
X54784655Y-80286622D01*
X54808773Y-80252148D01*
X54816996Y-80229524D01*
X54827374Y-80211203D01*
X54916660Y-80053566D01*
X54992181Y-79920233D01*
X55004863Y-79901908D01*
X55010972Y-79894588D01*
X55027916Y-79857981D01*
X55032528Y-79849000D01*
X55052422Y-79813879D01*
X55054816Y-79804638D01*
X55062321Y-79783654D01*
X55214736Y-79454392D01*
X55225025Y-79440165D01*
X55242327Y-79394787D01*
X55262722Y-79350729D01*
X55263674Y-79345237D01*
X55269986Y-79322245D01*
X55402239Y-78975400D01*
X55410128Y-78963048D01*
X55425643Y-78914022D01*
X55443969Y-78865962D01*
X55444169Y-78864016D01*
X55449296Y-78839282D01*
X55565614Y-78471745D01*
X55573783Y-78456838D01*
X55585432Y-78409126D01*
X55586688Y-78405158D01*
X55591003Y-78391524D01*
X55600249Y-78362308D01*
X55600467Y-78357429D01*
X55603879Y-78333567D01*
X55824355Y-77430555D01*
X55830966Y-77416517D01*
X55839939Y-77366724D01*
X55851934Y-77317599D01*
X55851866Y-77314574D01*
X55853801Y-77289806D01*
X55869875Y-77200618D01*
X56026061Y-76333993D01*
X56029441Y-76326141D01*
X56037726Y-76269264D01*
X56047919Y-76212711D01*
X56047918Y-76212705D01*
X56047919Y-76212703D01*
X56048305Y-76204587D01*
X56048811Y-76204611D01*
X56049254Y-76190133D01*
X56070537Y-76044038D01*
X56192009Y-75210213D01*
X56192433Y-75209218D01*
X56201500Y-75145059D01*
X56210851Y-75080878D01*
X56210850Y-75080874D01*
X56211618Y-75075608D01*
X56211982Y-75070899D01*
X56221595Y-75002890D01*
X56519786Y-72893108D01*
X56520584Y-72888187D01*
X56716728Y-71814800D01*
X56718273Y-71807576D01*
X56968267Y-70788712D01*
X56970378Y-70781155D01*
X57117437Y-70312838D01*
X57119598Y-70306555D01*
X57129587Y-70279856D01*
X57287487Y-69857782D01*
X57290466Y-69850529D01*
X57397272Y-69612191D01*
X57479092Y-69429608D01*
X57483115Y-69421449D01*
X57693992Y-69030726D01*
X57699328Y-69021764D01*
X57933958Y-68663051D01*
X57940836Y-68653552D01*
X58200957Y-68328006D01*
X58209543Y-68318342D01*
X58497532Y-68026418D01*
X58507802Y-68017112D01*
X58830146Y-67756328D01*
X58840535Y-67748780D01*
X58920338Y-67696897D01*
X58930082Y-67691178D01*
X59007831Y-67650178D01*
X59016509Y-67645601D01*
X59026286Y-67640978D01*
X59117925Y-67602456D01*
X59127418Y-67598915D01*
X59225393Y-67566876D01*
X59234318Y-67564325D01*
X59339431Y-67538519D01*
X59347667Y-67536791D01*
X59460335Y-67517141D01*
X59467708Y-67516084D01*
X59587926Y-67502553D01*
X59594483Y-67501991D01*
X59715952Y-67494825D01*
X59724051Y-67494614D01*
X60007707Y-67496544D01*
X60015824Y-67496866D01*
X60315010Y-67518590D01*
X60320152Y-67519073D01*
X60638825Y-67555817D01*
X60641317Y-67556131D01*
X60912702Y-67593305D01*
X60914408Y-67594008D01*
X60977891Y-67602234D01*
X61041436Y-67610939D01*
X61041439Y-67610938D01*
X61044911Y-67611414D01*
X61052817Y-67611944D01*
X61607778Y-67683863D01*
X61619116Y-67687915D01*
X61672948Y-67692308D01*
X61726527Y-67699252D01*
X61726534Y-67699250D01*
X61732434Y-67699239D01*
X61751758Y-67698740D01*
X61969544Y-67716516D01*
X61984439Y-67720833D01*
X62035021Y-67721860D01*
X62085437Y-67725975D01*
X62088411Y-67725432D01*
X62113170Y-67723446D01*
X62327836Y-67727806D01*
X62343117Y-67731229D01*
X62393496Y-67729139D01*
X62438351Y-67730050D01*
X62443926Y-67730164D01*
X62443926Y-67730163D01*
X62443932Y-67730164D01*
X62447055Y-67729394D01*
X62471571Y-67725901D01*
X62503055Y-67724596D01*
X62526972Y-67726138D01*
X62528760Y-67726207D01*
X62528768Y-67726209D01*
X62578765Y-67721612D01*
X62584941Y-67721200D01*
X62635142Y-67719119D01*
X62635150Y-67719116D01*
X62636898Y-67718812D01*
X62660413Y-67714107D01*
X62688211Y-67711552D01*
X62713491Y-67711817D01*
X62715348Y-67712028D01*
X62766289Y-67704375D01*
X62817584Y-67699660D01*
X62831257Y-67694615D01*
X62873985Y-67688195D01*
X62898343Y-67686963D01*
X62899902Y-67687037D01*
X62902511Y-67687163D01*
X62902511Y-67687162D01*
X62902514Y-67687163D01*
X62951051Y-67676618D01*
X63000168Y-67669240D01*
X63015233Y-67662675D01*
X63059918Y-67652967D01*
X63083249Y-67650178D01*
X63089698Y-67650023D01*
X63131357Y-67637773D01*
X63139942Y-67635582D01*
X63182383Y-67626364D01*
X63188127Y-67623404D01*
X63209930Y-67614673D01*
X63245292Y-67604277D01*
X63267516Y-67599901D01*
X63276056Y-67599020D01*
X63314631Y-67584292D01*
X63319199Y-67582548D01*
X63363490Y-67569527D01*
X63380525Y-67559135D01*
X63429086Y-67540594D01*
X63450196Y-67534613D01*
X63460424Y-67532674D01*
X63496006Y-67515517D01*
X63505591Y-67511386D01*
X63542485Y-67497302D01*
X63550913Y-67491201D01*
X63569747Y-67479964D01*
X63610004Y-67460554D01*
X63629998Y-67452964D01*
X63641351Y-67449744D01*
X63674056Y-67430216D01*
X63683744Y-67425002D01*
X63718076Y-67408450D01*
X63727016Y-67400748D01*
X63744368Y-67388237D01*
X63790685Y-67360583D01*
X63807815Y-67352076D01*
X63824102Y-67345501D01*
X63855267Y-67322026D01*
X63888759Y-67302031D01*
X63907674Y-67282553D01*
X64317267Y-66974043D01*
X64332233Y-66964375D01*
X64350553Y-66954327D01*
X64350553Y-66954326D01*
X64350556Y-66954325D01*
X64376812Y-66929193D01*
X64405839Y-66907331D01*
X64424208Y-66883829D01*
X64795847Y-66528122D01*
X64810687Y-66515974D01*
X64824965Y-66506028D01*
X64845925Y-66481167D01*
X64854978Y-66471526D01*
X64878476Y-66449037D01*
X64887503Y-66434163D01*
X64898701Y-66418575D01*
X65232435Y-66022768D01*
X65250655Y-66007336D01*
X65274745Y-65972589D01*
X65301997Y-65940269D01*
X65307721Y-65928068D01*
X65318064Y-65910107D01*
X65617016Y-65478915D01*
X65631669Y-65464290D01*
X65654428Y-65424953D01*
X65680312Y-65387621D01*
X65683519Y-65378680D01*
X65692908Y-65358448D01*
X65703344Y-65340411D01*
X65960712Y-64895595D01*
X65972330Y-64882257D01*
X65993596Y-64838761D01*
X66017850Y-64796843D01*
X66019343Y-64791290D01*
X66027691Y-64769026D01*
X66085929Y-64649913D01*
X66270571Y-64272267D01*
X66283131Y-64255140D01*
X66299405Y-64213294D01*
X66319127Y-64172958D01*
X66321078Y-64162965D01*
X66327204Y-64141812D01*
X66787126Y-62959234D01*
X66797948Y-62941629D01*
X66810920Y-62898053D01*
X66827402Y-62855675D01*
X66828432Y-62846267D01*
X66832850Y-62824386D01*
X67210642Y-61555354D01*
X67217020Y-61543642D01*
X67229389Y-61492382D01*
X67244438Y-61441834D01*
X67244446Y-61441517D01*
X67247858Y-61415847D01*
X67565178Y-60100886D01*
X67568847Y-60093601D01*
X67580610Y-60036935D01*
X67594180Y-59980705D01*
X67594180Y-59980699D01*
X67595040Y-59972616D01*
X67595612Y-59972676D01*
X67596884Y-59958544D01*
X67597580Y-59955196D01*
X68185997Y-57120809D01*
X68186279Y-57119487D01*
X68188284Y-57110342D01*
X68491068Y-55729050D01*
X68492199Y-55724334D01*
X68495842Y-55710359D01*
X68828990Y-54432276D01*
X68831472Y-54423965D01*
X69224249Y-53259114D01*
X69227716Y-53250029D01*
X69444500Y-52742763D01*
X69448132Y-52735020D01*
X69685977Y-52270621D01*
X69691181Y-52261445D01*
X69947849Y-51850830D01*
X69955172Y-51840360D01*
X70230784Y-51486767D01*
X70240837Y-51475385D01*
X70535779Y-51180183D01*
X70549006Y-51168697D01*
X70865319Y-50931078D01*
X70881631Y-50920711D01*
X71224681Y-50738572D01*
X71243220Y-50730590D01*
X71622201Y-50602924D01*
X71641483Y-50598111D01*
X72067600Y-50527416D01*
X72086004Y-50525759D01*
X72567315Y-50518449D01*
X72584566Y-50519392D01*
G37*
%TD.AperFunction*%
M02*
